<?xml version="1.0" encoding="UTF-8"?>
<svg width="163px" height="244px" viewBox="0 0 163 244" version="1.1" xmlns="http://www.w3.org/2000/svg" xmlns:xlink="http://www.w3.org/1999/xlink">
    <!-- Generator: Sketch 57.1 (83088) - https://sketch.com -->
    <title>Online Item 1</title>
    <desc>Created with Sketch.</desc>
    <g id="Page-1" stroke="none" stroke-width="1" fill="none" fill-rule="evenodd">
        <g id="General-Challenge-(-Without-ongoing-challenge-)" transform="translate(-106.000000, -279.000000)">
            <g id="Online-Item-1" transform="translate(108.000000, 280.000000)">
                <path d="M134.716057,242 L25.2596777,242 C20.1457441,242 16,237.86543 16,232.76528 L16,9.23472 C16,4.13457 20.1457441,0 25.2596777,0 L134.716057,0 C139.829991,0 143.975735,4.13457 143.975735,9.23472 L143.975735,232.76528 C143.975735,237.86543 139.829991,242 134.716057,242 Z" id="Path" fill="#FFFFFF" fill-rule="nonzero"></path>
                <path d="M58.0507299,15.691885 L101.924398,15.691885 C106.065289,15.691885 109.422408,12.343815 109.422408,8.214085 L109.422408,0 L50.553327,0 L50.553327,8.214085 C50.553327,12.343815 53.9104455,15.691885 58.0507299,15.691885 Z M16.8371564,98.467985 L143.137972,98.467985 L143.137972,157.167505 L16.8371564,157.167505 L16.8371564,98.467985 Z M40.4595261,237.178755 L31.6220664,237.178755 C29.2519431,237.178755 27.3301232,235.262115 27.3301232,232.89838 L27.3301232,224.085345 C27.3301232,221.721005 29.2519431,219.804365 31.6220664,219.804365 L40.4595261,219.804365 C42.8296493,219.804365 44.7514692,221.721005 44.7514692,224.085345 L44.7514692,232.89838 C44.7514692,235.262115 42.8296493,237.178755 40.4595261,237.178755 Z M60.9207204,237.17815 L69.7575735,237.17815 C72.1276967,237.17815 74.0495166,235.26151 74.0495166,232.897775 L74.0495166,224.08474 C74.0495166,221.7204 72.1276967,219.80376 69.7575735,219.80376 L60.9207204,219.80376 C58.5499905,219.80376 56.6287773,221.7204 56.6287773,224.08474 L56.6287773,232.897775 C56.6287773,235.26151 58.5499905,237.17815 60.9207204,237.17815 Z M99.0556209,237.17815 L90.2187678,237.17815 C87.8480379,237.17815 85.9268246,235.26151 85.9268246,232.897775 L85.9268246,224.08474 C85.9268246,221.7204 87.8480379,219.80376 90.2187678,219.80376 L99.0556209,219.80376 C101.425744,219.80376 103.347564,221.7204 103.347564,224.08474 L103.347564,232.897775 C103.347564,235.26151 101.425744,237.17815 99.0556209,237.17815 Z M119.516815,237.17815 L128.353668,237.17815 C130.723791,237.17815 132.645611,235.26151 132.645611,232.897775 L132.645611,224.08474 C132.645611,221.7204 130.724398,219.80376 128.353668,219.80376 L119.516815,219.80376 C117.146085,219.80376 115.224872,221.7204 115.224872,224.08474 L115.224872,232.897775 C115.224872,235.26151 117.146085,237.17815 119.516815,237.17815 Z" id="Shape" fill="#FFFFFF"></path>
                <path d="M43.7044171,10.32977 L26.8981991,10.32977 C25.413763,10.32977 24.2101991,9.12945 24.2101991,7.64841 L24.2101991,7.64841 C24.2101991,6.167975 25.413763,4.967655 26.8981991,4.967655 L43.7044171,4.967655 C45.1888531,4.967655 46.3924171,6.167975 46.3924171,7.64841 L46.3924171,7.64841 C46.3924171,9.12945 45.1888531,10.32977 43.7044171,10.32977 Z" id="Path" fill="#D0D2D3" fill-rule="nonzero"></path>
                <path d="M133.077536,10.32977 L116.271318,10.32977 C114.786882,10.32977 113.583318,9.12945 113.583318,7.64841 L113.583318,7.64841 C113.583318,6.167975 114.786882,4.967655 116.271318,4.967655 L133.077536,4.967655 C134.561972,4.967655 135.765536,6.167975 135.765536,7.64841 L135.765536,7.64841 C135.765536,9.12945 134.561972,10.32977 133.077536,10.32977 Z" id="Path" fill="#D0D2D3" fill-rule="nonzero"></path>
                <path d="M134.716057,242 L25.2596777,242 C20.1457441,242 16,237.86543 16,232.76528 L16,9.23472 C16,4.13457 20.1457441,0 25.2596777,0 L134.716057,0 C139.829991,0 143.975735,4.13457 143.975735,9.23472 L143.975735,232.76528 C143.975735,237.86543 139.829991,242 134.716057,242 Z" id="Path" stroke="#231F20" stroke-width="1.04524" stroke-linecap="round"></path>
                <polygon id="Path" fill="#FFFFFF" fill-rule="nonzero" points="130.194199 134.77222 118.683299 134.77222 118.683299 139.015085 130.194199 139.015085"></polygon>
                <polygon id="Path" fill="#FFFFFF" fill-rule="nonzero" points="130.194199 129.01504 118.683299 129.01504 118.683299 133.25851 130.194199 133.25851"></polygon>
                <path d="M64.2001896,32.504835 L95.775545,32.504835 L95.775545,37.339995 L64.2001896,37.339995 L64.2001896,32.504835 Z M24.2095924,32.504835 L55.7849479,32.504835 L55.7849479,37.3406 L24.2095924,37.3406 L24.2095924,32.504835 Z M135.766142,32.504835 L104.190787,32.504835 L104.190787,37.339995 L135.766142,37.339995 L135.766142,32.504835 Z" id="Shape" fill="#22A6B3"></path>
                <g id="Group-7" transform="translate(24.817630, 59.264050)" fill="#22A6B3">
                    <polygon id="Path" points="0.182369668 0.73595 98.1823697 0.73595 98.1823697 2.73595 0.182369668 2.73595"></polygon>
                    <polygon id="Path" points="106.18237 10.73595 0.182369668 10.73595 0.182369668 12.73595 106.18237 12.73595"></polygon>
                    <polygon id="Path" points="0.182369668 14.73595 110.18237 14.73595 110.18237 16.73595 0.182369668 16.73595"></polygon>
                    <polygon id="Path" points="98.1823697 18.73595 0.182369668 18.73595 0.182369668 20.73595 98.1823697 20.73595"></polygon>
                    <polygon id="Path-Copy-3" points="106.18237 22.73595 0.182369668 22.73595 0.182369668 24.73595 106.18237 24.73595"></polygon>
                    <polygon id="Path-Copy-2" points="0.182369668 26.73595 110.18237 26.73595 110.18237 28.73595 0.182369668 28.73595"></polygon>
                    <polygon id="Path-Copy" points="98.1823697 30.73595 0.182369668 30.73595 0.182369668 32.73595 98.1823697 32.73595"></polygon>
                    <polygon id="Path-Copy-9" points="106.18237 10.73595 0.182369668 10.73595 0.182369668 12.73595 106.18237 12.73595"></polygon>
                    <polygon id="Path-Copy-8" points="0.182369668 14.73595 110.18237 14.73595 110.18237 16.73595 0.182369668 16.73595"></polygon>
                    <polygon id="Path-Copy-7" points="98.1823697 18.73595 0.182369668 18.73595 0.182369668 20.73595 98.1823697 20.73595"></polygon>
                    <polygon id="Path-Copy-6" points="106.18237 22.73595 0.182369668 22.73595 0.182369668 24.73595 106.18237 24.73595"></polygon>
                    <polygon id="Path-Copy-5" points="0.182369668 26.73595 110.18237 26.73595 110.18237 28.73595 0.182369668 28.73595"></polygon>
                    <polygon id="Path-Copy-4" points="98.1823697 30.73595 0.182369668 30.73595 0.182369668 32.73595 98.1823697 32.73595"></polygon>
                    <polygon id="Path-Copy-15" points="106.18237 34.73595 0.182369668 34.73595 0.182369668 36.73595 106.18237 36.73595"></polygon>
                    <polygon id="Path-Copy-14" points="0.182369668 38.73595 110.18237 38.73595 110.18237 40.73595 0.182369668 40.73595"></polygon>
                    <polygon id="Path-Copy-13" points="98.1823697 42.73595 0.182369668 42.73595 0.182369668 44.73595 98.1823697 44.73595"></polygon>
                    <polygon id="Path-Copy-12" points="106.18237 46.73595 0.182369668 46.73595 0.182369668 48.73595 106.18237 48.73595"></polygon>
                    <polygon id="Path-Copy-11" points="0.182369668 50.73595 110.18237 50.73595 110.18237 52.73595 0.182369668 52.73595"></polygon>
                    <polygon id="Path-Copy-10" points="98.1823697 54.73595 0.182369668 54.73595 0.182369668 56.73595 98.1823697 56.73595"></polygon>
                    <polygon id="Path-Copy-27" points="106.18237 10.73595 0.182369668 10.73595 0.182369668 12.73595 106.18237 12.73595"></polygon>
                    <polygon id="Path-Copy-26" points="0.182369668 14.73595 110.18237 14.73595 110.18237 16.73595 0.182369668 16.73595"></polygon>
                    <polygon id="Path-Copy-25" points="98.1823697 18.73595 0.182369668 18.73595 0.182369668 20.73595 98.1823697 20.73595"></polygon>
                    <polygon id="Path-Copy-24" points="106.18237 22.73595 0.182369668 22.73595 0.182369668 24.73595 106.18237 24.73595"></polygon>
                    <polygon id="Path-Copy-23" points="0.182369668 26.73595 110.18237 26.73595 110.18237 28.73595 0.182369668 28.73595"></polygon>
                    <polygon id="Path-Copy-22" points="98.1823697 30.73595 0.182369668 30.73595 0.182369668 32.73595 98.1823697 32.73595"></polygon>
                    <polygon id="Path-Copy-21" points="106.18237 34.73595 0.182369668 34.73595 0.182369668 36.73595 106.18237 36.73595"></polygon>
                    <polygon id="Path-Copy-20" points="0.182369668 38.73595 110.18237 38.73595 110.18237 40.73595 0.182369668 40.73595"></polygon>
                    <polygon id="Path-Copy-19" points="98.1823697 42.73595 0.182369668 42.73595 0.182369668 44.73595 98.1823697 44.73595"></polygon>
                    <polygon id="Path-Copy-18" points="106.18237 46.73595 0.182369668 46.73595 0.182369668 48.73595 106.18237 48.73595"></polygon>
                    <polygon id="Path-Copy-17" points="0.182369668 50.73595 110.18237 50.73595 110.18237 52.73595 0.182369668 52.73595"></polygon>
                    <polygon id="Path-Copy-16" points="98.1823697 54.73595 0.182369668 54.73595 0.182369668 56.73595 98.1823697 56.73595"></polygon>
                    <polygon id="Path-Copy-39" points="106.18237 58.73595 0.182369668 58.73595 0.182369668 60.73595 106.18237 60.73595"></polygon>
                    <polygon id="Path-Copy-38" points="0.182369668 62.73595 110.18237 62.73595 110.18237 64.73595 0.182369668 64.73595"></polygon>
                    <polygon id="Path-Copy-37" points="98.1823697 66.73595 0.182369668 66.73595 0.182369668 68.73595 98.1823697 68.73595"></polygon>
                    <polygon id="Path-Copy-36" points="106.18237 70.73595 0.182369668 70.73595 0.182369668 72.73595 106.18237 72.73595"></polygon>
                    <polygon id="Path-Copy-35" points="0.182369668 74.73595 110.18237 74.73595 110.18237 76.73595 0.182369668 76.73595"></polygon>
                    <polygon id="Path-Copy-34" points="98.1823697 78.73595 0.182369668 78.73595 0.182369668 80.73595 98.1823697 80.73595"></polygon>
                    <polygon id="Path-Copy-33" points="106.18237 82.73595 0.182369668 82.73595 0.182369668 84.73595 106.18237 84.73595"></polygon>
                    <polygon id="Path-Copy-32" points="0.182369668 86.73595 110.18237 86.73595 110.18237 88.73595 0.182369668 88.73595"></polygon>
                    <polygon id="Path-Copy-31" points="98.1823697 90.73595 0.182369668 90.73595 0.182369668 92.73595 98.1823697 92.73595"></polygon>
                    <polygon id="Path-Copy-30" points="106.18237 94.73595 0.182369668 94.73595 0.182369668 96.73595 106.18237 96.73595"></polygon>
                    <polygon id="Path-Copy-29" points="0.182369668 98.73595 110.18237 98.73595 110.18237 100.73595 0.182369668 100.73595"></polygon>
                    <polygon id="Path-Copy-28" points="98.1823697 102.73595 0.182369668 102.73595 0.182369668 104.73595 98.1823697 104.73595"></polygon>
                </g>
                <g id="Group-4" transform="translate(24.500000, 185.000000)" fill="#22A6B3">
                    <polygon id="Path" points="0.5 0 109.5 0 109.5 28.06958 0.5 28.06958"></polygon>
                </g>
                <path d="M143.5,182 L143.5,168" id="Line-2-Copy" stroke="#FF5E5E" stroke-width="4" stroke-linecap="square" transform="translate(143.500000, 175.000000) rotate(50.000000) translate(-143.500000, -175.000000) "></path>
                <path d="M15,182 L15,168" id="Line-2-Copy-5" stroke="#FF5E5E" stroke-width="4" stroke-linecap="square" transform="translate(15.000000, 175.000000) scale(-1, 1) rotate(50.000000) translate(-15.000000, -175.000000) "></path>
                <path d="M144.5,230 L144.5,216" id="Line-2-Copy-4" stroke="#FF5E5E" stroke-width="4" stroke-linecap="square" transform="translate(144.500000, 223.000000) rotate(315.000000) translate(-144.500000, -223.000000) "></path>
                <path d="M14.5,230 L14.5,216" id="Line-2-Copy-7" stroke="#FF5E5E" stroke-width="4" stroke-linecap="square" transform="translate(14.500000, 223.000000) scale(-1, 1) rotate(315.000000) translate(-14.500000, -223.000000) "></path>
                <path d="M151.5,208 L151.5,194" id="Line-2-Copy-2" stroke="#FF5E5E" stroke-width="4" stroke-linecap="square" transform="translate(151.500000, 201.000000) rotate(-90.000000) translate(-151.500000, -201.000000) "></path>
                <path d="M7.5,208 L7.5,194" id="Line-2-Copy-6" stroke="#FF5E5E" stroke-width="4" stroke-linecap="square" transform="translate(7.500000, 201.000000) rotate(-90.000000) translate(-7.500000, -201.000000) "></path>
            </g>
        </g>
    </g>
</svg>