<?xml version="1.0" encoding="UTF-8"?>
<svg width="22px" height="22px" viewBox="0 0 22 22" version="1.1" xmlns="http://www.w3.org/2000/svg" xmlns:xlink="http://www.w3.org/1999/xlink">
    <!-- Generator: Sketch 56.2 (81672) - https://sketch.com -->
    <title>Untitled</title>
    <desc>Created with Sketch.</desc>
    <g id="Page-1" stroke="none" stroke-width="1" fill="none" fill-rule="evenodd">
        <g id="bars" fill="#2B1F2E" fill-rule="nonzero">
            <path d="M20.625,19.25 C21.3843915,19.25 22,19.8656085 22,20.625 C22,21.3843915 21.3843915,22 20.625,22 L6.375,22 C5.61560847,22 5,21.3843915 5,20.625 C5,19.8656085 5.61560847,19.25 6.375,19.25 L20.625,19.25 Z M18.625,9.625 C19.3843915,9.625 20,10.2406085 20,11 C20,11.7593915 19.3843915,12.375 18.625,12.375 L8.375,12.375 C7.61560847,12.375 7,11.7593915 7,11 C7,10.2406085 7.61560847,9.625 8.375,9.625 L18.625,9.625 Z M20.625,0 C21.3843915,0 22,0.615608469 22,1.375 C22,2.13439153 21.3843915,2.75 20.625,2.75 L1.375,2.75 C0.615608469,2.75 0,2.13439153 0,1.375 C0,0.615608469 0.615608469,0 1.375,0 L20.625,0 Z" id="Combined-Shape"></path>
        </g>
    </g>
</svg>