<?xml version="1.0" encoding="UTF-8"?>
<svg width="174px" height="79px" viewBox="0 0 174 79" version="1.1" xmlns="http://www.w3.org/2000/svg" xmlns:xlink="http://www.w3.org/1999/xlink">
    <!-- Generator: Sketch 57.1 (83088) - https://sketch.com -->
    <title>Bush 4</title>
    <desc>Created with Sketch.</desc>
    <g id="Page-1" stroke="none" stroke-width="1" fill="none" fill-rule="evenodd">
        <g id="General-Challenge-(-With-ongoing-challenge-)" transform="translate(-154.000000, -334.000000)">
            <g id="Group-4" transform="translate(30.000000, 180.000000)">
                <g id="Bush-4" transform="translate(124.000000, 154.000000)">
                    <path d="M32.0717336,25.8699098 C34.8467705,25.2608975 29.0936926,5.02459426 40.5995246,3.1292418 C58.0611148,0.219192623 58.1964508,22.5538525 66.3859016,27.9682664 C88.5852254,42.5871516 74.1690205,64.1771393 65.2352213,77.578 L65.0998852,77.7810041 L64.8292131,77.7810041 C57.3844344,78.1193443 9.66940574,80.2853689 9.06039344,77.7810041 C-0.753413934,37.5110779 -4.97505738,32.8024836 8.76414344,25.4250492 C17.4272705,20.7553074 29.2970205,26.5469139 32.0717336,25.8699098 Z" id="Path" fill="#FF5E5E" fill-rule="nonzero"></path>
                    <path d="M104.289066,24.15425 C104.762742,14.9494549 99.9557213,-1.60752049 87.299209,1.91186475 C71.5296434,6.37860246 63.3405164,28.171918 75.5906967,39.5420902 C49.4659795,34.5340082 48.0501311,69.8631967 52.1788525,79 L150.648467,79 C160.597611,76.1572951 178.600545,65.5991393 171.494107,45.9718484 C164.65834,27.0889057 152.611164,30.675959 146.790742,35.2783566 C156.604225,15.9217377 143.474361,0.558180328 124.86209,0.0168360656 C109.633869,-0.5925 105.642426,15.558791 104.289066,24.15425 Z" id="Path" fill="#1B5C6A" fill-rule="nonzero"></path>
                    <path d="M70.4126352,30.9935779 C71.2826066,34.1347992 72.9733361,37.0694549 75.6136844,39.5200738 C50.0970082,34.6285492 48.1524426,68.2181189 51.92275,78.2980656 C48.1605369,78.4392295 43.9343607,78.5823361 39.6414877,78.6988934 C35.664291,69.1457213 37.3080738,34.5612049 63.1740984,39.5200738 C56.6245451,33.4406352 55.9177541,24.3821844 59.0881148,16.5851434 C59.2645697,16.9590984 59.4394057,17.3324057 59.6129467,17.7037705 C60.3239467,19.2225779 60.8397131,20.789627 61.663709,22.1151434 C63.1660041,24.5317664 65.0441967,26.4484877 66.4092131,27.9465738 C67.9056803,28.9318074 69.2357295,29.9490943 70.4126352,30.9935779 Z" id="Path" fill-opacity="0.14" fill="#000000"></path>
                </g>
            </g>
        </g>
    </g>
</svg>