<?xml version="1.0" encoding="UTF-8"?>
<svg width="26px" height="30px" viewBox="0 0 26 30" version="1.1" xmlns="http://www.w3.org/2000/svg" xmlns:xlink="http://www.w3.org/1999/xlink">
    <!-- Generator: Sketch 57.1 (83088) - https://sketch.com -->
    <title>flag-color-filled</title>
    <desc>Created with Sketch.</desc>
    <g id="-symbols" stroke="none" stroke-width="1" fill="none" fill-rule="evenodd">
        <g id="Bottom-Nav-/-Default" transform="translate(-251.000000, -18.000000)">
            <g id="Group-25">
                <g id="flag-color-filled" transform="translate(246.000000, 15.000000)">
                    <rect id="Rectangle" x="0" y="0" width="35.6400003" height="35.6400003"></rect>
                    <path d="M30.4098303,6.78652432 L24.3510302,12.8453244 L30.4098303,18.9040502 C30.6622803,19.1565002 30.7365303,19.5426002 30.6028803,19.8693002 C30.4692303,20.1960002 30.1425303,20.4187502 29.7861303,20.4187502 L8.99614494,20.4187502 C8.50609493,20.4187502 8.10514493,20.0178002 8.10514493,19.5277502 L8.10514493,6.16282431 C8.10514493,5.6727743 8.50609493,5.2718243 8.99614494,5.2718243 L29.7861303,5.2718243 C30.1425303,5.2718243 30.4692303,5.4945743 30.6028803,5.82127431 C30.7365303,6.14797431 30.6622803,6.53407431 30.4098303,6.78652432 Z" id="Path" fill="#533C59"></path>
                    <path d="M8.09028008,3.86100004 C8.09028008,3.37095003 8.49123008,2.97000003 8.98128009,2.97000003 C9.47133009,2.97000003 9.8722801,3.37095003 9.8722801,3.86100004 L9.8722801,30.8880003 L12.0996316,30.8880003 C12.5896816,30.8880003 12.9906316,31.2889503 12.9906316,31.7790003 C12.9906316,32.2690503 12.5896816,32.6700003 12.0996316,32.6700003 L5.86263156,32.6700003 C5.37258155,32.6700003 4.97163155,32.2690503 4.97163155,31.7790003 C4.97163155,31.2889503 5.37258155,30.8880003 5.86263156,30.8880003 L8.09028008,30.8880003 L8.09028008,3.86100004 Z" id="Path" fill-opacity="0.7" fill="#533C59"></path>
                    <path d="M12.0996316,30.8880003 L5.86263156,30.8880003 C5.37258155,30.8880003 4.97163155,31.2889503 4.97163155,31.7790003 C4.97163155,32.2690503 5.37258155,32.6700003 5.86263156,32.6700003 L12.0996316,32.6700003 C12.5896816,32.6700003 12.9906316,32.2690503 12.9906316,31.7790003 C12.9906316,31.2889503 12.5896816,30.8880003 12.0996316,30.8880003 Z" id="Path" fill-opacity="0.7" fill="#533C59"></path>
                </g>
            </g>
        </g>
    </g>
</svg>