<?xml version="1.0" encoding="UTF-8"?>
<svg width="41px" height="36px" viewBox="0 0 41 36" version="1.1" xmlns="http://www.w3.org/2000/svg" xmlns:xlink="http://www.w3.org/1999/xlink">
    <!-- Generator: Sketch 57.1 (83088) - https://sketch.com -->
    <title>cloudy-nature-color</title>
    <desc>Created with Sketch.</desc>
    <g id="Page-1" stroke="none" stroke-width="1" fill="none" fill-rule="evenodd">
        <g id="Questions-Assessment-1" transform="translate(-304.000000, -392.000000)">
            <g id="cloudy-nature-color" transform="translate(304.000000, 392.000000)">
                <path d="M20.7096,5.84872 L20.5696,5.84872 C19.9696,5.84872 19.4496,5.38872 19.3896,4.78872 L18.9896,1.32872 C18.9096,0.66872 19.3898,0.08872 20.0498,0.00872 C20.6898,-0.07128 21.2896,0.40872 21.3696,1.06872 L21.7698,4.52872 C21.8498,5.18872 21.3696,5.76872 20.7096,5.84872 Z M38.7296,10.84848 L35.7696,12.68848 C35.5696,12.80848 35.3496,12.86848 35.1296,12.86848 C34.7296,12.86848 34.3296,12.66848 34.1096,12.30848 C33.7496,11.74848 33.9296,11.00848 34.4896,10.64848 L37.4494,8.80848 C38.0094,8.44848 38.7496,8.62848 39.1096,9.18848 C39.4696,9.74848 39.2896,10.48848 38.7296,10.84848 Z M29.8294,21.8888 C30.0694,21.5288 30.2896,21.1488 30.4896,20.7488 C31.4296,18.7888 31.5694,16.5688 30.8494,14.5288 C30.1294,12.4689 28.6694,10.8289 26.7094,9.8689 C24.7494,8.9289 22.5296,8.8089 20.4896,9.5289 C18.4296,10.2289 16.7894,11.7089 15.84948,13.6689 C15.60948,14.1488 15.42958,14.6488 15.30958,15.1488 C16.0696,14.9488 16.8696,14.8288 17.6896,14.8288 C17.7044,14.7696 17.7302,14.7212 17.759,14.6676 C17.769,14.6488 17.7792,14.6296 17.7896,14.6088 C18.4696,13.1689 19.6896,12.0889 21.1896,11.5489 C22.7096,11.0289 24.3296,11.1289 25.7696,11.8089 C27.2096,12.5089 28.2896,13.7289 28.8096,15.2288 C29.3496,16.7488 29.2496,18.3688 28.5496,19.8088 C28.3496,20.2088 28.1094,20.6088 27.8294,20.9488 C28.5494,21.1488 29.2294,21.4688 29.8294,21.8888 Z M39.2294,18.7284 L35.7496,18.7084 C35.0896,18.7084 34.5496,19.2484 34.5496,19.9084 C34.5496,20.5684 35.0896,21.1084 35.7496,21.1084 L39.2294,21.1284 C39.8894,21.1284 40.4296,20.5884 40.4296,19.9284 C40.4296,19.2684 39.8894,18.7284 39.2294,18.7284 Z M11.98954,5.18848 C11.56954,4.66848 10.8296,4.58848 10.3096,5.00848 C9.7896,5.42848 9.70956,6.16848 10.12956,6.68848 L12.3096,9.40848 C12.5496,9.70848 12.88954,9.86848 13.24954,9.86848 C13.50954,9.86848 13.76954,9.78848 13.98954,9.60848 C14.50954,9.18848 14.5896,8.44848 14.1696,7.92848 L11.98954,5.18848 Z M29.2896,1.74868 C29.5696,1.14868 30.2896,0.90868 30.8896,1.18868 C31.4896,1.46868 31.7496,2.18868 31.4496,2.78868 L29.8496,6.08868 C29.6496,6.52868 29.2096,6.76868 28.7696,6.76868 C28.5896,6.76868 28.4096,6.72868 28.2496,6.64868 C27.6496,6.36868 27.4096,5.64868 27.6896,5.04868 L29.2896,1.74868 Z" id="Shape" fill="#FF5E5E"></path>
                <path d="M29.8294,21.8886 C29.2294,21.4686 28.5494,21.1486 27.8294,20.9486 C27.5294,20.8486 27.2296,20.7886 26.9096,20.7286 C25.3096,17.1686 21.7296,14.8286 17.7896,14.8286 L17.6896,14.8286 C16.8696,14.8286 16.0696,14.9486 15.30958,15.1486 C11.36956,16.1486 8.36948,19.4886 7.84948,23.5886 C7.42948,23.5086 6.98954,23.4486 6.52954,23.4486 C3.10954,23.4486 0.30958,26.2486 0.30958,29.6886 C0.30958,33.1086 3.10954,35.9086 6.52954,35.9086 L25.6896,35.9086 C29.7496,35.9086 33.1896,32.3286 33.1896,28.1086 C33.1896,25.5286 31.8694,23.2286 29.8294,21.8886 Z M25.6896,33.5086 L6.52954,33.5086 C4.42954,33.5086 2.70948,31.7886 2.70948,29.6886 C2.70948,27.5686 4.42954,25.8486 6.52954,25.8486 C7.16954,25.8486 7.80954,26.0286 8.40954,26.3686 C8.78954,26.5886 9.26952,26.5086 9.62952,26.2686 C10.00952,26.0286 10.20958,25.5486 10.18958,25.1086 L10.16956,24.8486 C10.16956,20.6486 13.58956,17.2286 17.7896,17.2286 C20.9896,17.2286 23.8494,19.2486 24.9494,22.2486 C25.1094,22.6886 25.5296,23.0086 26.0096,23.0286 C28.6896,23.2086 30.7896,25.4286 30.7896,28.1086 C30.7896,30.9886 28.4096,33.5086 25.6896,33.5086 Z" id="Shape" fill="#529393"></path>
                <path d="M20.7096,5.84872 L20.5696,5.84872 C19.9696,5.84872 19.4496,5.38872 19.3896,4.78872 L18.9896,1.32872 C18.9096,0.66872 19.3898,0.08872 20.0498,0.00872 C20.6898,-0.07128 21.2896,0.40872 21.3696,1.06872 L21.7698,4.52872 C21.8498,5.18872 21.3696,5.76872 20.7096,5.84872 Z M35.7696,12.68848 L38.7296,10.84848 C39.2896,10.48848 39.4696,9.74848 39.1096,9.18848 C38.7496,8.62848 38.0094,8.44848 37.4494,8.80848 L34.4896,10.64848 C33.9296,11.00848 33.7496,11.74848 34.1096,12.30848 C34.3296,12.66848 34.7296,12.86848 35.1296,12.86848 C35.3496,12.86848 35.5696,12.80848 35.7696,12.68848 Z M39.2294,18.7284 L35.7496,18.7084 C35.0896,18.7084 34.5496,19.2484 34.5496,19.9084 C34.5496,20.5684 35.0896,21.1084 35.7496,21.1084 L39.2294,21.1284 C39.8894,21.1284 40.4296,20.5884 40.4296,19.9284 C40.4296,19.2684 39.8894,18.7284 39.2294,18.7284 Z M11.98954,5.18848 C11.56954,4.66848 10.8296,4.58848 10.3096,5.00848 C9.7896,5.42848 9.70956,6.16848 10.12956,6.68848 L12.3096,9.40848 C12.5496,9.70848 12.88954,9.86848 13.24954,9.86848 C13.50954,9.86848 13.76954,9.78848 13.98954,9.60848 C14.50954,9.18848 14.5896,8.44848 14.1696,7.92848 L11.98954,5.18848 Z M29.2896,1.74868 C29.5696,1.14868 30.2896,0.90868 30.8896,1.18868 C31.4896,1.46868 31.7496,2.18868 31.4496,2.78868 L29.8496,6.08868 C29.6496,6.52868 29.2096,6.76868 28.7696,6.76868 C28.5896,6.76868 28.4096,6.72868 28.2496,6.64868 C27.6496,6.36868 27.4096,5.64868 27.6896,5.04868 L29.2896,1.74868 Z" id="Shape" fill-opacity="0.2" fill="#FFFFFF"></path>
            </g>
        </g>
    </g>
</svg>