<?xml version="1.0" encoding="UTF-8"?>
<svg width="319px" height="300px" viewBox="0 0 319 300" version="1.1" xmlns="http://www.w3.org/2000/svg" xmlns:xlink="http://www.w3.org/1999/xlink">
    <!-- Generator: Sketch 57.1 (83088) - https://sketch.com -->
    <title>Confetti</title>
    <desc>Created with Sketch.</desc>
    <g id="Page-1" stroke="none" stroke-width="1" fill="none" fill-rule="evenodd">
        <g id="Quizz-Results-Confetti" transform="translate(-25.000000, -43.000000)">
            <g id="Confetti" transform="translate(25.000000, 43.000000)">
                <path d="M152.215,50.055 L170.807,25.028 L179.388,31.463 L163.656,60.781 L152.215,50.055 Z M291.654,131.385 L282.848,119.53 L278.783,122.578 L286.235,136.465 L291.654,131.385 Z M202.952,216.382 L226.412,247.962 L211.975,261.497 L192.124,224.502 L202.952,216.382 Z" id="Shape" fill="#FF5E5E"></path>
                <path d="M0.493,19.228 L12.396,3.204 L17.89,7.325 L7.818,26.095 L0.493,19.228 Z M92.867,120.131 L111.459,145.159 L100.018,155.885 L84.287,126.567 L92.867,120.131 Z M236.283,128.047 L212.823,159.627 L227.26,173.162 L247.111,136.167 L236.283,128.047 Z M53.407,226.598 L65.31,210.574 L70.804,214.695 L60.732,233.465 L53.407,226.598 Z M137.048,271.079 L142.687,278.669 L139.217,281.922 L134.446,273.03 L137.048,271.079 Z M300.235,20.021 L318.827,45.049 L307.386,55.775 L291.655,26.457 L300.235,20.021 Z" id="Shape" fill="#529393"></path>
                <path d="M95.263,0 L107.166,16.024 L99.841,22.891 L89.769,4.12 L95.263,0 Z M148.177,207.37 L160.08,223.394 L152.755,230.261 L142.683,211.49 L148.177,207.37 Z M285.665,254.885 L309.125,286.465 L294.688,300 L274.837,263.005 L285.665,254.885 Z M27.311,287.487 L15.408,271.463 L9.914,275.584 L19.986,294.354 L27.311,287.487 Z M84.134,63.71 L89.772,71.3 L86.302,74.553 L81.531,65.661 L84.134,63.71 Z" id="Shape" fill="#4987CF"></path>
            </g>
        </g>
    </g>
</svg>