<?xml version="1.0" encoding="UTF-8"?>
<svg width="51px" height="52px" viewBox="0 0 51 52" version="1.1" xmlns="http://www.w3.org/2000/svg" xmlns:xlink="http://www.w3.org/1999/xlink">
    <!-- Generator: Sketch 57.1 (83088) - https://sketch.com -->
    <title>Group 2 Copy 3</title>
    <desc>Created with Sketch.</desc>
    <g id="Page-1" stroke="none" stroke-width="1" fill="none" fill-rule="evenodd">
        <g id="Questions-Assessment-3-Selected" transform="translate(-77.000000, -676.000000)">
            <g id="Group-2-Copy-3" transform="translate(78.000000, 676.000000)">
                <g id="Martini-Copy-14" transform="translate(17.307692, 16.358491)">
                    <polygon id="Path-52" stroke="#533C59" stroke-width="2.19824642" stroke-linejoin="round" transform="translate(6.627458, 7.746146) rotate(90.000000) translate(-6.627458, -7.746146) " points="2.65507583 1.31361286 10.599841 7.74614595 2.65507583 14.178679"></polygon>
                    <path d="M6.82238357,11.1226712 L6.82238357,17.4784833" id="Path-54" stroke="#533C59" stroke-width="2.19824642" stroke-linecap="round"></path>
                    <path d="M6.82238335,15.1430743 L6.82238335,20.2111307" id="Path-54" stroke="#533C59" stroke-width="2.19824642" stroke-linecap="round" transform="translate(6.822383, 17.677102) rotate(-90.000000) translate(-6.822383, -17.677102) "></path>
                    <path d="M12.8650662,0 C14.8028425,0 16.3737206,1.60064663 16.3737206,3.57514432 C16.3737206,5.549642 14.8028425,7.15028863 12.8650662,7.15028863 C12.3716602,7.15028863 11.9020416,7.04651262 11.4760862,6.8592129 L12.4508888,5.5164072 C12.5843692,5.54583671 12.7229414,5.56133559 12.8650662,5.56133559 C13.9416086,5.56133559 14.8143186,4.67208749 14.8143186,3.57514432 C14.8143186,2.47820116 13.9416086,1.58895303 12.8650662,1.58895303 C11.7885238,1.58895303 10.9158137,2.47820116 10.9158137,3.57514432 L10.9156365,3.57514432 L9.35641175,3.57514432 L9.35641175,3.57514432 C9.35641175,1.60064663 10.9272899,0 12.8650662,0 Z" id="Combined-Shape" fill="#533C59" fill-rule="nonzero"></path>
                </g>
                <g id="Martini-Copy-15" transform="translate(32.692308, 0.000000)">
                    <polygon id="Path-52" stroke="#533C59" stroke-width="2.19824642" stroke-linejoin="round" transform="translate(6.627458, 7.746146) rotate(90.000000) translate(-6.627458, -7.746146) " points="2.65507583 1.31361286 10.599841 7.74614595 2.65507583 14.178679"></polygon>
                    <path d="M6.82238357,11.1226712 L6.82238357,17.4784833" id="Path-54" stroke="#533C59" stroke-width="2.19824642" stroke-linecap="round"></path>
                    <path d="M6.82238335,15.1430743 L6.82238335,20.2111307" id="Path-54" stroke="#533C59" stroke-width="2.19824642" stroke-linecap="round" transform="translate(6.822383, 17.677102) rotate(-90.000000) translate(-6.822383, -17.677102) "></path>
                    <path d="M12.8650662,0 C14.8028425,0 16.3737206,1.60064663 16.3737206,3.57514432 C16.3737206,5.549642 14.8028425,7.15028863 12.8650662,7.15028863 C12.3716602,7.15028863 11.9020416,7.04651262 11.4760862,6.8592129 L12.4508888,5.5164072 C12.5843692,5.54583671 12.7229414,5.56133559 12.8650662,5.56133559 C13.9416086,5.56133559 14.8143186,4.67208749 14.8143186,3.57514432 C14.8143186,2.47820116 13.9416086,1.58895303 12.8650662,1.58895303 C11.7885238,1.58895303 10.9158137,2.47820116 10.9158137,3.57514432 L10.9156365,3.57514432 L9.35641175,3.57514432 L9.35641175,3.57514432 C9.35641175,1.60064663 10.9272899,0 12.8650662,0 Z" id="Combined-Shape" fill="#533C59" fill-rule="nonzero"></path>
                </g>
                <g id="Martini-Copy-18" transform="translate(32.692308, 32.716981)">
                    <polygon id="Path-52" stroke="#533C59" stroke-width="2.19824642" stroke-linejoin="round" transform="translate(6.627458, 7.746146) rotate(90.000000) translate(-6.627458, -7.746146) " points="2.65507583 1.31361286 10.599841 7.74614595 2.65507583 14.178679"></polygon>
                    <path d="M6.82238357,11.1226712 L6.82238357,17.4784833" id="Path-54" stroke="#533C59" stroke-width="2.19824642" stroke-linecap="round"></path>
                    <path d="M6.82238335,15.1430743 L6.82238335,20.2111307" id="Path-54" stroke="#533C59" stroke-width="2.19824642" stroke-linecap="round" transform="translate(6.822383, 17.677102) rotate(-90.000000) translate(-6.822383, -17.677102) "></path>
                    <path d="M12.8650662,0 C14.8028425,0 16.3737206,1.60064663 16.3737206,3.57514432 C16.3737206,5.549642 14.8028425,7.15028863 12.8650662,7.15028863 C12.3716602,7.15028863 11.9020416,7.04651262 11.4760862,6.8592129 L12.4508888,5.5164072 C12.5843692,5.54583671 12.7229414,5.56133559 12.8650662,5.56133559 C13.9416086,5.56133559 14.8143186,4.67208749 14.8143186,3.57514432 C14.8143186,2.47820116 13.9416086,1.58895303 12.8650662,1.58895303 C11.7885238,1.58895303 10.9158137,2.47820116 10.9158137,3.57514432 L10.9156365,3.57514432 L9.35641175,3.57514432 L9.35641175,3.57514432 C9.35641175,1.60064663 10.9272899,0 12.8650662,0 Z" id="Combined-Shape" fill="#533C59" fill-rule="nonzero"></path>
                </g>
                <g id="Martini-Copy-16">
                    <polygon id="Path-52" stroke="#533C59" stroke-width="2.19824642" stroke-linejoin="round" transform="translate(6.627458, 7.746146) rotate(90.000000) translate(-6.627458, -7.746146) " points="2.65507583 1.31361286 10.599841 7.74614595 2.65507583 14.178679"></polygon>
                    <path d="M6.82238357,11.1226712 L6.82238357,17.4784833" id="Path-54" stroke="#533C59" stroke-width="2.19824642" stroke-linecap="round"></path>
                    <path d="M6.82238335,15.1430743 L6.82238335,20.2111307" id="Path-54" stroke="#533C59" stroke-width="2.19824642" stroke-linecap="round" transform="translate(6.822383, 17.677102) rotate(-90.000000) translate(-6.822383, -17.677102) "></path>
                    <path d="M12.8650662,0 C14.8028425,0 16.3737206,1.60064663 16.3737206,3.57514432 C16.3737206,5.549642 14.8028425,7.15028863 12.8650662,7.15028863 C12.3716602,7.15028863 11.9020416,7.04651262 11.4760862,6.8592129 L12.4508888,5.5164072 C12.5843692,5.54583671 12.7229414,5.56133559 12.8650662,5.56133559 C13.9416086,5.56133559 14.8143186,4.67208749 14.8143186,3.57514432 C14.8143186,2.47820116 13.9416086,1.58895303 12.8650662,1.58895303 C11.7885238,1.58895303 10.9158137,2.47820116 10.9158137,3.57514432 L10.9156365,3.57514432 L9.35641175,3.57514432 L9.35641175,3.57514432 C9.35641175,1.60064663 10.9272899,0 12.8650662,0 Z" id="Combined-Shape" fill="#533C59" fill-rule="nonzero"></path>
                </g>
                <g id="Martini-Copy-19" transform="translate(0.000000, 32.716981)">
                    <polygon id="Path-52" stroke="#533C59" stroke-width="2.19824642" stroke-linejoin="round" transform="translate(6.627458, 7.746146) rotate(90.000000) translate(-6.627458, -7.746146) " points="2.65507583 1.31361286 10.599841 7.74614595 2.65507583 14.178679"></polygon>
                    <path d="M6.82238357,11.1226712 L6.82238357,17.4784833" id="Path-54" stroke="#533C59" stroke-width="2.19824642" stroke-linecap="round"></path>
                    <path d="M6.82238335,15.1430743 L6.82238335,20.2111307" id="Path-54" stroke="#533C59" stroke-width="2.19824642" stroke-linecap="round" transform="translate(6.822383, 17.677102) rotate(-90.000000) translate(-6.822383, -17.677102) "></path>
                    <path d="M12.8650662,0 C14.8028425,0 16.3737206,1.60064663 16.3737206,3.57514432 C16.3737206,5.549642 14.8028425,7.15028863 12.8650662,7.15028863 C12.3716602,7.15028863 11.9020416,7.04651262 11.4760862,6.8592129 L12.4508888,5.5164072 C12.5843692,5.54583671 12.7229414,5.56133559 12.8650662,5.56133559 C13.9416086,5.56133559 14.8143186,4.67208749 14.8143186,3.57514432 C14.8143186,2.47820116 13.9416086,1.58895303 12.8650662,1.58895303 C11.7885238,1.58895303 10.9158137,2.47820116 10.9158137,3.57514432 L10.9156365,3.57514432 L9.35641175,3.57514432 L9.35641175,3.57514432 C9.35641175,1.60064663 10.9272899,0 12.8650662,0 Z" id="Combined-Shape" fill="#533C59" fill-rule="nonzero"></path>
                </g>
            </g>
        </g>
    </g>
</svg>