<?xml version="1.0" encoding="UTF-8"?>
<svg width="46px" height="50px" viewBox="0 0 46 50" version="1.1" xmlns="http://www.w3.org/2000/svg" xmlns:xlink="http://www.w3.org/1999/xlink">
    <!-- Generator: Sketch 57.1 (83088) - https://sketch.com -->
    <title>Martini Copy</title>
    <desc>Created with Sketch.</desc>
    <g id="Page-1" stroke="none" stroke-width="1" fill="none" fill-rule="evenodd">
        <g id="Questions-Assessment-3-Selected" transform="translate(-252.000000, -499.000000)">
            <g id="Group-2" transform="translate(201.000000, 447.000000)">
                <g id="Martini-Copy" transform="translate(53.000000, 52.000000)">
                    <polygon id="Path-52" stroke="#FEF4DB" stroke-width="4" stroke-linejoin="round" transform="translate(17.809524, 20.800000) rotate(90.000000) translate(-17.809524, -20.800000) " points="7.14285732 3.51428553 28.4761907 20.7999998 7.14285732 38.0857141"></polygon>
                    <path d="M18.3333333,29.8666667 L18.3333333,46.9333333" id="Path-54" stroke="#FEF4DB" stroke-width="4" stroke-linecap="round"></path>
                    <path d="M18.3333327,40.6571429 L18.3333327,54.2761905" id="Path-54" stroke="#FEF4DB" stroke-width="4" stroke-linecap="round" transform="translate(18.333333, 47.466667) rotate(-90.000000) translate(-18.333333, -47.466667) "></path>
                    <path d="M34.5714286,0 C39.7786848,0 44,4.2980664 44,9.6 C44,14.9019336 39.7786848,19.2 34.5714286,19.2 C33.2455318,19.2 31.9835574,18.92134 30.8389158,18.4184016 L33.4584374,14.8126913 C33.8171304,14.8917156 34.1895061,14.9333333 34.5714286,14.9333333 C37.4643487,14.9333333 39.8095238,12.5455187 39.8095238,9.6 C39.8095238,6.65448133 37.4643487,4.26666667 34.5714286,4.26666667 C31.6785085,4.26666667 29.3333333,6.65448133 29.3333333,9.6 L29.3328571,9.6 L25.1428571,9.6 L25.1428571,9.6 C25.1428571,4.2980664 29.3641724,0 34.5714286,0 Z" id="Combined-Shape" fill="#FEF4DB" fill-rule="nonzero"></path>
                </g>
            </g>
        </g>
    </g>
</svg>