<?xml version="1.0" encoding="UTF-8"?>
<svg width="51px" height="52px" viewBox="0 0 51 52" version="1.1" xmlns="http://www.w3.org/2000/svg" xmlns:xlink="http://www.w3.org/1999/xlink">
    <!-- Generator: Sketch 57.1 (83088) - https://sketch.com -->
    <title>Group Copy 2</title>
    <desc>Created with Sketch.</desc>
    <g id="Page-1" stroke="none" stroke-width="1" fill="none" fill-rule="evenodd">
        <g id="Questions-Assessment-3-Selected" transform="translate(-247.000000, -855.000000)">
            <g id="Group-Copy-2" transform="translate(249.000000, 855.000000)">
                <g id="Martini-Copy-5">
                    <polygon id="Path-52" stroke="#FEF4DB" stroke-width="2.77187204" stroke-linejoin="round" transform="translate(8.815307, 10.353528) rotate(90.000000) translate(-8.815307, -10.353528) " points="3.50580605 1.79749399 14.1248088 10.3535276 3.50580605 18.9095612"></polygon>
                    <path d="M9.07458107,14.8666039 L9.07458107,23.361806" id="Path-54" stroke="#FEF4DB" stroke-width="2.77187204" stroke-linecap="round"></path>
                    <path d="M9.07458077,20.2567224 L9.07458077,26.9978398" id="Path-54" stroke="#FEF4DB" stroke-width="2.77187204" stroke-linecap="round" transform="translate(9.074581, 23.627281) rotate(-90.000000) translate(-9.074581, -23.627281) "></path>
                    <path d="M17.1120672,0 C19.68954,0 21.7789946,2.13943026 21.7789946,4.77855124 C21.7789946,7.41767221 19.68954,9.55710247 17.1120672,9.55710247 C16.4557786,9.55710247 15.8311301,9.41839507 15.2645587,9.16804955 L16.561162,7.37325045 C16.7387068,7.41258604 16.9230243,7.4333019 17.1120672,7.4333019 C18.5439965,7.4333019 19.7048046,6.24472957 19.7048046,4.77855124 C19.7048046,3.31237291 18.5439965,2.12380055 17.1120672,2.12380055 C15.6801379,2.12380055 14.5193297,3.31237291 14.5193297,4.77855124 L14.519094,4.77855124 L12.4451397,4.77855124 L12.4451397,4.77855124 C12.4451397,2.13943026 14.5345944,0 17.1120672,0 Z" id="Combined-Shape" fill="#FEF4DB" fill-rule="nonzero"></path>
                </g>
                <g id="Martini-Copy-6" transform="translate(27.223743, 0.000000)">
                    <polygon id="Path-52" stroke="#FEF4DB" stroke-width="2.77187204" stroke-linejoin="round" transform="translate(8.815307, 10.353528) rotate(90.000000) translate(-8.815307, -10.353528) " points="3.50580605 1.79749399 14.1248088 10.3535276 3.50580605 18.9095612"></polygon>
                    <path d="M9.07458107,14.8666039 L9.07458107,23.361806" id="Path-54" stroke="#FEF4DB" stroke-width="2.77187204" stroke-linecap="round"></path>
                    <path d="M9.07458077,20.2567224 L9.07458077,26.9978398" id="Path-54" stroke="#FEF4DB" stroke-width="2.77187204" stroke-linecap="round" transform="translate(9.074581, 23.627281) rotate(-90.000000) translate(-9.074581, -23.627281) "></path>
                    <path d="M17.1120672,0 C19.68954,0 21.7789946,2.13943026 21.7789946,4.77855124 C21.7789946,7.41767221 19.68954,9.55710247 17.1120672,9.55710247 C16.4557786,9.55710247 15.8311301,9.41839507 15.2645587,9.16804955 L16.561162,7.37325045 C16.7387068,7.41258604 16.9230243,7.4333019 17.1120672,7.4333019 C18.5439965,7.4333019 19.7048046,6.24472957 19.7048046,4.77855124 C19.7048046,3.31237291 18.5439965,2.12380055 17.1120672,2.12380055 C15.6801379,2.12380055 14.5193297,3.31237291 14.5193297,4.77855124 L14.519094,4.77855124 L12.4451397,4.77855124 L12.4451397,4.77855124 C12.4451397,2.13943026 14.5345944,0 17.1120672,0 Z" id="Combined-Shape" fill="#FEF4DB" fill-rule="nonzero"></path>
                </g>
                <g id="Martini-Copy-7" transform="translate(27.223743, 26.132702)">
                    <polygon id="Path-52" stroke="#FEF4DB" stroke-width="2.77187204" stroke-linejoin="round" transform="translate(8.815307, 10.353528) rotate(90.000000) translate(-8.815307, -10.353528) " points="3.50580605 1.79749399 14.1248088 10.3535276 3.50580605 18.9095612"></polygon>
                    <path d="M9.07458107,14.8666039 L9.07458107,23.361806" id="Path-54" stroke="#FEF4DB" stroke-width="2.77187204" stroke-linecap="round"></path>
                    <path d="M9.07458077,20.2567224 L9.07458077,26.9978398" id="Path-54" stroke="#FEF4DB" stroke-width="2.77187204" stroke-linecap="round" transform="translate(9.074581, 23.627281) rotate(-90.000000) translate(-9.074581, -23.627281) "></path>
                    <path d="M17.1120672,0 C19.68954,0 21.7789946,2.13943026 21.7789946,4.77855124 C21.7789946,7.41767221 19.68954,9.55710247 17.1120672,9.55710247 C16.4557786,9.55710247 15.8311301,9.41839507 15.2645587,9.16804955 L16.561162,7.37325045 C16.7387068,7.41258604 16.9230243,7.4333019 17.1120672,7.4333019 C18.5439965,7.4333019 19.7048046,6.24472957 19.7048046,4.77855124 C19.7048046,3.31237291 18.5439965,2.12380055 17.1120672,2.12380055 C15.6801379,2.12380055 14.5193297,3.31237291 14.5193297,4.77855124 L14.519094,4.77855124 L12.4451397,4.77855124 L12.4451397,4.77855124 C12.4451397,2.13943026 14.5345944,0 17.1120672,0 Z" id="Combined-Shape" fill="#FEF4DB" fill-rule="nonzero"></path>
                </g>
                <g id="Martini-Copy-8" transform="translate(0.000000, 26.132702)">
                    <polygon id="Path-52" stroke="#FEF4DB" stroke-width="2.77187204" stroke-linejoin="round" transform="translate(8.815307, 10.353528) rotate(90.000000) translate(-8.815307, -10.353528) " points="3.50580605 1.79749399 14.1248088 10.3535276 3.50580605 18.9095612"></polygon>
                    <path d="M9.07458107,14.8666039 L9.07458107,23.361806" id="Path-54" stroke="#FEF4DB" stroke-width="2.77187204" stroke-linecap="round"></path>
                    <path d="M9.07458077,20.2567224 L9.07458077,26.9978398" id="Path-54" stroke="#FEF4DB" stroke-width="2.77187204" stroke-linecap="round" transform="translate(9.074581, 23.627281) rotate(-90.000000) translate(-9.074581, -23.627281) "></path>
                    <path d="M17.1120672,0 C19.68954,0 21.7789946,2.13943026 21.7789946,4.77855124 C21.7789946,7.41767221 19.68954,9.55710247 17.1120672,9.55710247 C16.4557786,9.55710247 15.8311301,9.41839507 15.2645587,9.16804955 L16.561162,7.37325045 C16.7387068,7.41258604 16.9230243,7.4333019 17.1120672,7.4333019 C18.5439965,7.4333019 19.7048046,6.24472957 19.7048046,4.77855124 C19.7048046,3.31237291 18.5439965,2.12380055 17.1120672,2.12380055 C15.6801379,2.12380055 14.5193297,3.31237291 14.5193297,4.77855124 L14.519094,4.77855124 L12.4451397,4.77855124 L12.4451397,4.77855124 C12.4451397,2.13943026 14.5345944,0 17.1120672,0 Z" id="Combined-Shape" fill="#FEF4DB" fill-rule="nonzero"></path>
                </g>
            </g>
        </g>
    </g>
</svg>