<?xml version="1.0" encoding="UTF-8"?>
<svg width="33px" height="37px" viewBox="0 0 33 37" version="1.1" xmlns="http://www.w3.org/2000/svg" xmlns:xlink="http://www.w3.org/1999/xlink">
    <!-- Generator: Sketch 57.1 (83088) - https://sketch.com -->
    <title>drizzle-nature-color</title>
    <desc>Created with Sketch.</desc>
    <g id="Page-1" stroke="none" stroke-width="1" fill="none" fill-rule="evenodd">
        <g id="Questions-Assessment-1" transform="translate(-137.000000, -402.000000)">
            <g id="drizzle-nature-color" transform="translate(137.000000, 402.000000)">
                <path d="M2.94002,25.3004 C3.24002,24.7204 3.98002,24.5004 4.56002,24.8004 C5.16002,25.1004 5.38002,25.8404 5.06002,26.4204 L4.00002,28.4404 C3.78002,28.8404 3.38002,29.0804 2.94002,29.0804 C2.74002,29.0804 2.56002,29.0404 2.38002,28.9404 C1.80002,28.6404 1.58002,27.9004 1.88002,27.3204 L2.94002,25.3004 Z M17.9198,24.8004 C17.3398,24.5004 16.5998,24.7204 16.2998,25.3004 L15.2398,27.3204 C14.9398,27.9004 15.1598,28.6404 15.7398,28.9404 C15.9198,29.0404 16.0998,29.0804 16.2998,29.0804 C16.7398,29.0804 17.1398,28.8404 17.3598,28.4404 L18.4198,26.4204 C18.7198,25.8404 18.4998,25.1004 17.9198,24.8004 Z M30.4398,24.8004 C29.8598,24.5004 29.12,24.7204 28.82,25.3004 L27.76,27.3204 C27.46,27.9004 27.68,28.6404 28.26,28.9404 C28.44,29.0404 28.62,29.0804 28.82,29.0804 C29.26,29.0804 29.66,28.8404 29.88,28.4404 L30.9398,26.4204 C31.2398,25.8404 31.0198,25.1004 30.4398,24.8004 Z M11.24,32.2804 C10.65994,31.9804 9.91996,32.2004 9.61996,32.7804 L8.55996,34.8004 C8.25996,35.3804 8.47996,36.1204 9.05996,36.4204 C9.23996,36.5204 9.41996,36.5604 9.61996,36.5604 C10.05996,36.5604 10.45994,36.3204 10.67994,35.9204 L11.74,33.9004 C12.06,33.3204 11.82,32.6004 11.24,32.2804 Z M22.14,32.7804 C22.44,32.2004 23.18,31.9804 23.76,32.2804 C24.36,32.6004 24.58,33.3204 24.26,33.9004 L23.2,35.9204 C22.98,36.3204 22.58,36.5604 22.14,36.5604 C21.94,36.5604 21.76,36.5204 21.58,36.4204 C21,36.1204 20.78,35.3804 21.08,34.8004 L22.14,32.7804 Z" id="Shape" fill="#FF5E5E"></path>
                <path d="M25.36,21.06 L6.21998,21.06 C2.77998,21.06 0,18.26 0,14.84 C0,11.42 2.79998,8.62 6.21998,8.62 C6.65998,8.62 7.09998,8.66 7.53998,8.76 C8.15998,3.82 12.38,0 17.48,0 C21.42,0 25,2.34 26.6,5.9 C30.18,6.5 32.88,9.6 32.88,13.28 C32.86,17.5 29.42,21.06 25.36,21.06 Z M6.20002,11 C4.08002,11 2.38,12.72 2.38,14.82 C2.38,16.92 4.10002,18.64 6.20002,18.64 L25.34,18.64 C28.06,18.64 30.44,16.12 30.44,13.24 C30.44,10.56 28.34,8.34 25.66,8.18 C25.18,8.16 24.76,7.84 24.6,7.4 C23.5,4.4 20.64,2.38 17.44,2.38 C13.24,2.38 9.82,5.8 9.82,10 L9.85998,10.24 C9.87998,10.68 9.67998,11.18 9.29998,11.42 C8.91998,11.66 8.46002,11.74 8.08002,11.52 C7.48002,11.18 6.84002,11 6.20002,11 Z" id="Shape" fill="#529393"></path>
                <path d="M9.61996,32.7804 C9.91996,32.2004 10.65994,31.9804 11.24,32.2804 C11.82,32.6004 12.06,33.3204 11.74,33.9004 L10.67996,35.9204 C10.45996,36.3204 10.05996,36.5604 9.61996,36.5604 C9.41996,36.5604 9.23996,36.5204 9.05996,36.4204 C8.47996,36.1204 8.25996,35.3804 8.55996,34.8004 L9.61996,32.7804 Z M22.14,32.7804 C22.44,32.2004 23.18,31.9804 23.76,32.2804 C24.36,32.6004 24.58,33.3204 24.26,33.9004 L23.2,35.9204 C22.98,36.3204 22.58,36.5604 22.14,36.5604 C21.94,36.5604 21.76,36.5204 21.58,36.4204 C21,36.1204 20.78,35.3804 21.08,34.8004 L22.14,32.7804 Z" id="Shape" fill-opacity="0.3" fill="#FFFFFF"></path>
            </g>
        </g>
    </g>
</svg>