<?xml version="1.0" encoding="UTF-8"?>
<svg width="195px" height="109px" viewBox="0 0 195 109" version="1.1" xmlns="http://www.w3.org/2000/svg" xmlns:xlink="http://www.w3.org/1999/xlink">
    <!-- Generator: Sketch 57.1 (83088) - https://sketch.com -->
    <title>Woman Hiking</title>
    <desc>Created with Sketch.</desc>
    <g id="Page-1" stroke="none" stroke-width="1" fill="none" fill-rule="evenodd">
        <g id="General-Challenge-(-With-ongoing-challenge-)" transform="translate(-132.000000, -568.000000)">
            <g id="Woman-Hiking" transform="translate(132.000000, 568.000000)">
                <path d="M123.087045,4.89043033 C123.01691,5.7997265 122.578885,6.76243267 121.994247,7.45027717 C121.972138,7.5766445 121.943504,7.70170383 121.909614,7.82545517 C120.97539,11.20084 118.818067,13.9260217 116.506157,16.471535 C114.716543,18.4426183 112.966073,20.4344117 111.320897,22.5279383 C106.997189,28.22991 103.384433,34.447815 100.557839,41.02651 C99.4922258,43.6176217 98.5500279,46.2596 97.7352323,48.939365 C97.3751348,50.6459417 97.0697677,51.90689 96.8553764,52.5334583 C96.4967286,59.16956 96.5422165,65.8251 96.985316,72.4573867 C97.2919517,77.0208533 100.121083,81.01098 104.27335,82.9077617 C104.583792,83.049825 104.894414,83.1929783 105.203769,83.3390383 C108.981622,85.119735 112.446315,87.3513283 115.539131,90.179515 C116.642621,91.1892183 70.9290753,84.5674683 62.9835502,83.2997983 C59.6734433,82.8974067 56.3401394,82.8140217 53.0209712,83.150105 C52.1320539,83.284175 51.2471236,83.4484017 50.3672677,83.6424217 C47.1988801,84.34202 44.0188941,82.8205617 42.7921701,79.7734667 C41.7265567,77.1302167 42.5413522,73.6505733 45.0143727,72.03919 C45.1923374,71.9232867 45.3795446,71.8164667 45.5745446,71.7212733 C45.8304368,71.5962867 46.0865102,71.4698467 46.3438522,71.3435883 C46.3503764,71.3408633 46.3569006,71.3370483 46.3632435,71.3343233 C49.5655204,69.759455 52.7545678,68.1322667 55.7618448,66.21205 C56.4532249,65.7691467 57.1353625,65.3118917 57.8060827,64.83647 C58.3283783,64.4299 58.8390753,64.00916 59.3369052,63.57534 C60.4402138,62.6152317 61.4799117,61.58609 62.4364266,60.474835 C63.9373467,58.411465 65.0212639,56.1564367 66.0673048,53.81548 C67.4344796,50.7565767 69.1004972,48.1433017 71.2864545,45.5927017 C74.4845632,41.8590883 78.5262825,38.960415 81.7231227,35.2268017 C84.7967286,31.02031 86.2807946,25.9748817 88.7915102,21.4428433 C90.0988801,19.08481 91.6895074,16.918435 93.5700976,15.076335 C94.60454,13.89096 95.8053485,12.8683583 97.1971701,12.1843833 C97.4583178,12.0176133 97.7247212,11.8573833 97.9951115,11.7024217 C97.9963801,11.7024217 97.9963801,11.7024217 97.9963801,11.7009683 C98.8528578,10.7513967 99.8053857,9.87467333 100.707351,9.03308433 C102.39276,7.45939683 104.187449,5.9899315 106.073113,4.66505467 C109.808197,2.04267817 114.056334,0.376504167 118.611468,0.0117356667 C120.976659,-0.178451167 122.784215,1.97364483 123.061129,4.13095467 C123.077983,4.256014 123.089763,4.38107333 123.094837,4.50613267 C123.100093,4.6325 123.097489,4.76015717 123.087045,4.89043033 Z" id="Path" fill="#E5E5E5" fill-rule="nonzero"></path>
                <path d="M194.809712,89.3340383 C192.774535,88.4195283 190.637872,89.384905 188.570074,90.3203067 C188.124257,90.5221383 187.662128,90.7306917 187.219935,90.9116317 C183.12421,92.575335 178.546422,92.2001933 174.119052,91.83795 C172.413346,91.6986117 170.651278,91.554005 168.934517,91.5265733 C165.925971,91.4797033 162.886255,91.79762 159.944038,92.1062717 C156.404136,92.4775983 152.744442,92.8618233 149.152528,92.6000417 C147.338267,92.468515 145.505883,92.168765 143.734572,91.8795517 C142.172579,91.62431 140.557124,91.361075 138.952179,91.21011 C134.359531,90.780105 129.696747,91.26352 125.187282,91.7298583 C121.931724,92.0672133 118.564531,92.415105 115.253336,92.4176483 C115.118141,92.4176483 115.009043,92.5270117 115.009043,92.662535 C115.009043,92.7980583 115.118141,92.9074217 115.253336,92.9074217 C118.589359,92.9048783 121.969419,92.555715 125.236575,92.2170883 C129.722663,91.7520217 134.360799,91.2726033 138.906691,91.69734 C140.49605,91.8457617 142.102263,92.1075433 143.655376,92.361695 C145.437017,92.65218 147.279912,92.95302 149.116101,93.0872717 C149.951738,93.1484933 150.79118,93.1744717 151.629535,93.1744717 C154.437825,93.1744717 157.251371,92.8801717 159.993513,92.59223 C162.921413,92.28485 165.948081,91.9669333 168.925455,92.015075 C170.62645,92.0425067 172.380906,92.1858417 174.07737,92.32518 C178.562732,92.69251 183.200325,93.0716483 187.402974,91.3638 C187.854229,91.180135 188.321794,90.9690383 188.773048,90.7657533 C190.739359,89.8761317 192.774535,88.9563533 194.610362,89.7809383 C194.733597,89.8368917 194.878578,89.7809383 194.932946,89.6572233 C194.987314,89.53478 194.932946,89.3889017 194.809712,89.3340383 Z" id="Path" fill="#0A0F21" fill-rule="nonzero"></path>
                <path d="M45.0143727,72.03919 C45.4614591,71.8061117 45.9045586,71.5741233 46.3438522,71.3435883 C46.3503764,71.341045 46.3569006,71.3370483 46.3632435,71.334505 C49.7590706,69.5483583 52.8923002,67.84051 55.7618448,66.2122317 C67.161552,59.7414467 74.3897816,54.5188933 77.3098885,50.6355867 C79.2214684,48.0938883 81.024131,45.4024967 82.7680762,42.80103 C86.0442937,37.9131067 89.4321468,32.858595 93.6402323,28.6442917 C94.9930901,27.2894217 96.4512407,25.99977 97.9001487,24.75172 C98.2602463,24.4403433 98.6188941,24.1329633 98.9750046,23.8281267 L98.6578578,23.4555283 C98.2705762,23.786525 97.882026,24.1198833 97.4922072,24.45742 C96.0664963,25.6871217 94.631724,26.9586067 93.2946329,28.2964 C89.0528392,32.544675 85.6517565,37.6200783 82.3626719,42.52744 C80.6225325,45.1236383 78.8225883,47.8099433 76.9200697,50.3398333 C74.3729275,53.725555 68.4819703,58.1587667 59.3369052,63.5755217 C54.7754275,66.27854 49.4042286,69.2266267 43.2352695,72.4117883 C27.0906831,80.746655 10.61746,88.02622 5.95201255,90.0597967 C5.82856087,90.1132067 5.77136571,90.2578133 5.82595121,90.3815283 C5.86623792,90.4739967 5.95590892,90.5286783 6.0494763,90.5286783 C6.08197026,90.5286783 6.11575093,90.5221383 6.14694006,90.50924 C10.8149972,88.4743917 27.3012686,81.1895583 43.4587221,72.84688 C43.9824675,72.576015 44.5024071,72.3075117 45.0143727,72.03919 Z" id="Path" fill="#0A0F21" fill-rule="nonzero"></path>
                <path d="M123.087045,4.89046667 L134.443982,17.9268667 C135.644791,19.3037183 137.004173,20.863145 137.3746,22.76901 C137.651334,24.198 137.335637,25.69239 137.02882,27.1370033 C136.953429,27.4965217 136.874233,27.86912 136.805367,28.2351783 C135.933304,32.8911133 136.466111,37.838805 138.434958,43.3598367 C140.238708,48.418345 143.027607,53.2995467 145.517663,57.4083017 C149.243504,63.5533583 156.392356,69.1628617 163.306157,74.5887 C169.230822,79.2366417 175.356831,84.0437233 179.023048,89.0201183 C179.102788,89.12821 179.255019,89.151645 179.365567,89.0722567 C179.472491,88.991415 179.49605,88.837725 179.41631,88.7283617 C175.710223,83.6998283 169.557031,78.8705833 163.607537,74.20175 C156.727625,68.804615 149.6152,63.2223617 145.936115,57.15306 C143.457839,53.0664683 140.684526,48.2110633 138.895093,43.19561 C136.956148,37.758145 136.429684,32.8938383 137.286162,28.326375 C137.353759,27.965585 137.431687,27.5968017 137.507077,27.238555 C137.824224,25.7458 138.150432,24.2019967 137.854126,22.67527 C137.459052,20.6404217 135.99184,18.95728 134.813141,17.6036817 L123.323546,4.41628033 C123.237825,4.31858 123.150836,4.2234775 123.061129,4.13097283 C123.077983,4.25605033 123.089763,4.38110967 123.094837,4.506169 C123.100093,4.63253633 123.097556,4.7601935 123.087045,4.89046667 Z" id="Path" fill="#0A0F21" fill-rule="nonzero"></path>
                <path d="M119.357398,105.186998 C113.970613,104.26068 108.526743,105.490382 103.260836,106.679935 C99.210237,107.594445 95.0204554,108.540202 90.8669191,108.508955 C86.4069284,108.474983 81.9869888,107.309047 78.0857203,105.139947 C77.9583178,105.069642 77.8296468,104.996793 77.7024257,104.923763 C76.7979229,104.411827 75.8622491,103.882995 74.8069656,103.730577 C73.5476208,103.548183 72.3156413,103.925868 71.1238941,104.291927 C71.00954,104.32717 70.8951859,104.362232 70.7808318,104.396203 C64.3155669,106.348938 57.1665335,106.446675 50.6505251,104.671065 C50.118987,104.526458 49.5796561,104.366228 49.0573606,104.211267 C47.60954,103.781262 46.1124257,103.337087 44.5803346,103.155965 C42.9012686,102.956677 41.1988243,103.073852 39.5523792,103.187212 L20.3537593,104.508292 C20.2185641,104.517375 20.1172584,104.63455 20.1257563,104.770073 C20.1355623,104.905597 20.2537221,105.007148 20.3876487,104.998065 L39.5860874,103.676985 C41.2091543,103.565078 42.8882203,103.449175 44.5230669,103.643195 C46.0136571,103.82032 47.4901115,104.258137 48.9181784,104.68142 C49.4433736,104.836563 49.9852416,104.998065 50.5218541,105.143943 C57.1250325,106.942988 64.3701162,106.84398 70.9212825,104.865085 C71.0356366,104.830023 71.1512593,104.79478 71.266882,104.759718 C72.4066171,104.410555 73.5865846,104.048312 74.7368309,104.215082 C75.7009572,104.35442 76.5963987,104.86127 77.4619377,105.351043 C77.5906087,105.424073 77.7192797,105.496922 77.8479507,105.56868 C81.8206227,107.77811 86.321027,108.963485 90.8631134,108.998728 C90.9332481,108.998728 91.0033829,109 91.0735177,109 C95.212737,109 99.3582993,108.064598 103.368848,107.1579 C108.587816,105.979065 113.983662,104.76099 119.275483,105.670232 C119.410678,105.693667 119.535362,105.603742 119.557472,105.469672 C119.579582,105.336692 119.489875,105.209162 119.357398,105.186998 Z" id="Path" fill="#0A0F21" fill-rule="nonzero"></path>
                <path d="M170.70184,106.365833 C168.609577,107.220393 166.246924,106.814005 163.962379,106.421968 C163.47506,106.338583 162.970706,106.251202 162.478313,106.179625 C157.00309,105.373207 151.481292,106.221227 146.140177,107.041997 C146.00625,107.062888 145.915274,107.187875 145.934665,107.322127 C145.952969,107.443298 146.056993,107.530498 146.176422,107.530498 C146.188202,107.530498 146.20125,107.529227 146.214117,107.527955 C151.518987,106.712453 157.005809,105.870792 162.407997,106.666855 C162.894047,106.738432 163.395683,106.82436 163.880465,106.907745 C166.232607,107.31159 168.665395,107.729787 170.887779,106.823088 C171.012463,106.772403 171.072268,106.629068 171.021524,106.5039 C170.969512,106.374917 170.826705,106.313695 170.70184,106.365833 Z" id="Path" fill="#0A0F21" fill-rule="nonzero"></path>
                <polygon id="Path" fill="#CCCCCC" fill-rule="nonzero" points="49.469289 85.69035 41.09625 63.20801 44.9766775 63.5831517 37.1648978 44.06325 40.0746747 44.06325 34.2540335 26.6588567 28.433211 44.06325 31.3442565 44.06325 23.5324768 63.5831517 27.4130855 63.20801 19.0398652 85.69035 32.3136385 85.69035 32.3136385 93.6317267 36.10454 93.6317267 36.10454 85.69035"></polygon>
                <path d="M8.7252895,94.8082 C8.63561849,94.8394467 8.54725232,94.878505 8.4614777,94.92156 C8.41598978,94.9228317 8.37050186,94.9228317 8.32501394,94.9241033 C7.27237639,94.944995 6.26131227,95.8386133 6.31069656,96.9433283 L35.5456366,96.3661733 C35.2156227,95.3448433 34.1487407,94.6308933 33.0675418,94.95535 C32.3825046,95.1611783 31.5417937,95.04255 30.7554507,94.9110233 C29.6586664,94.7260867 28.5722119,94.5593167 27.4623792,94.6870283 C27.2974628,94.7064667 27.1336338,94.7299017 26.9698048,94.75479 C26.9023885,94.69484 26.8320725,94.6374333 26.7566822,94.5840233 C25.39875,93.61356 23.6872444,93.489845 22.0730576,93.54053 C21.370079,93.5626933 20.6669191,93.60702 19.9639405,93.5679617 C19.8782203,93.5626933 19.7143913,93.5483417 19.6935502,93.5510667 C19.5415009,93.5249067 19.3881831,93.4923883 19.2401208,93.45333 C18.8437779,93.3477817 18.4693634,93.1810117 18.0652277,93.1003517 C17.8885316,93.0651083 17.7169099,93.0454883 17.5492751,93.0351333 L17.5492751,86.126895 L30.0602649,86.126895 L21.7885316,63.344805 L25.6222026,63.71486 L17.9053857,38.6543067 L20.7800046,38.6543067 L15.0307667,21.46101 L9.28020586,38.65576 L12.1561478,38.65576 L4.43802602,63.7161317 L8.27173327,63.3460767 L0,86.126895 L12.4589777,86.126895 L12.4589777,94.06046 C11.189303,94.171095 9.9338908,94.3860067 8.7252895,94.8082 Z" id="Path" fill="#E5E5E5" fill-rule="nonzero"></path>
                <path d="M102.171845,20.3746433 C102.147198,20.6155333 102.122551,20.86042 102.095186,21.1080317 C101.063281,22.038165 100.013253,22.939595 98.9750046,23.8281267 C98.6188941,24.1329633 98.2602463,24.4403433 97.9001487,24.75172 C97.7586106,24.661795 97.6234154,24.5640583 97.4922072,24.4572383 C97.882026,24.1198833 98.2705762,23.7863433 98.6578578,23.4555283 C99.8287639,22.452365 101.016524,21.43376 102.171845,20.3746433 Z" id="Path" fill="#E5E5E5" fill-rule="nonzero"></path>
                <path d="M124.775172,64.02878 L124.719354,64.0157 L124.562049,63.9779133 L124.211194,63.08048 C124.276255,63.118085 124.338597,63.1455167 124.38789,63.1651367 C124.447695,63.1885717 124.488109,63.1989267 124.488109,63.1989267 L124.775172,64.02878 Z" id="Path" fill="#FCD295" fill-rule="nonzero"></path>
                <path d="M125.882467,63.7798967 L125.300186,62.8497633 C125.254698,62.7116967 125.154661,62.5983367 125.023453,62.5345717 C124.972709,62.509865 124.915623,62.483705 124.853281,62.4577267 C124.79855,62.4342917 124.738927,62.4108567 124.679122,62.3886933 C124.454219,62.3091233 124.212463,62.2557133 124.057876,62.31966 C124.012388,62.3378267 123.975962,62.3652583 123.947328,62.4055883 L118.723104,49.0487283 L120.565999,46.0174383 L124.489377,58.3605983 L125.339331,61.0363667 C125.339331,61.0363667 125.5771,61.4311283 125.939735,62.0173667 C126.208676,62.4524583 126.545214,62.9930983 126.903862,63.558445 C126.806543,63.6223917 126.716836,63.6965117 126.634921,63.7798967 L125.882467,63.7798967 L125.882467,63.7798967 Z" id="Path" fill="#FCD295" fill-rule="nonzero"></path>
                <path d="M129.286087,66.9416233 L126.822128,69.7554583 L125.592686,66.61208 L125.703053,66.5403217 L126.389359,66.0923317 L126.498457,66.0205733 L126.619336,65.941185 C126.852031,66.1900683 127.167728,66.3631967 127.529094,66.4166067 C127.684949,66.43877 127.875962,66.4493067 128.096877,66.4493067 C128.319061,66.4493067 128.569879,66.43877 128.841538,66.4206033 C129.018234,66.65241 129.170283,66.8335317 129.286087,66.9416233 Z" id="Path" fill="#FCD295" fill-rule="nonzero"></path>
                <path d="M119.974656,51.96684 L121.373002,51.0394317" id="Path" stroke="#0A0F21" stroke-width="0.509739"></path>
                <path d="M122.636152,58.3189967 L123.804521,57.4866" id="Path" stroke="#0A0F21" stroke-width="0.509739"></path>
                <path d="M124.376292,61.4233167 L124.853281,62.4577267 C124.79855,62.4342917 124.738927,62.4108567 124.679122,62.3886933 L124.256682,61.4741833 L119.687412,49.206415 L119.809559,49.1608167 L124.376292,61.4233167 Z" id="Path" fill="#0A0F21" fill-rule="nonzero"></path>
                <polygon id="Path" fill="#0A0F21" fill-rule="nonzero" points="127.360009 67.8861083 127.243118 67.94079 126.389359 66.09215 126.498457 66.0205733"></polygon>
                <path d="M128.388109,73.4318467 L120.590646,69.4833217 L119.692667,63.7798967 L114.233211,52.3681417 L117.871882,46.443265 L124.057876,62.31966 C123.986473,62.3481817 123.934461,62.4015917 123.909633,62.4889733 C123.800534,62.8862783 124.195609,63.090835 124.38789,63.1651367 L124.719354,64.0157 L121.991529,63.3656967 C121.735637,63.304475 121.51599,63.5533583 121.605516,63.8007883 L122.248871,65.5451517 C122.276236,65.620725 122.330785,65.6832183 122.40092,65.7222767 L124.718086,66.9781383 C124.824647,67.035545 124.953318,67.0302767 125.054624,66.9650583 L125.703053,66.5405033 L128.388109,73.4318467 Z" id="Path" fill="#F9E6C5" fill-rule="nonzero"></path>
                <polygon id="Path" fill="#0A0F21" fill-rule="nonzero" opacity="0.2" points="117.661478 49.9581517 116.537328 51.5070417 116.938927 52.1192583 117.991492 50.90518"></polygon>
                <path d="M115.94073,54.9280067 L117.99276,53.238325" id="Path" stroke="#0A0F21" stroke-width="1.01948" opacity="0.2"></path>
                <g id="Group" opacity="0.3" transform="translate(116.710037, 55.590000)" fill="#0A0F21" fill-rule="nonzero">
                    <polygon id="Path" points="2.79306691 0.0614033333 0.0839079926 2.11823333 0.240850372 2.32587833 2.95000929 0.269048333"></polygon>
                    <polygon id="Path" points="0.976087361 2.38637333 2.49657993 5.52194 1.98968866 6.07166333 2.18070167 6.24897 2.80847119 5.56753833 1.21005112 2.27174167"></polygon>
                    <polygon id="Path" points="7.40764405 11.7541967 6.38099442 11.519665 7.25033922 13.8933217 8.39406134 14.4481317"></polygon>
                    <polygon id="Path" points="3.93515799 3.59790833 4.44712361 3.33085833 3.57777881 0.95593 2.86555762 1.32725667"></polygon>
                    <polygon id="Path" points="2.54587361 1.19573 1.81426115 1.72837667 3.03971654 4.08241333 3.75320632 3.709815"></polygon>
                    <polygon id="Path" points="4.39402416 9.75913333 4.13849442 9.80600333 4.74814126 13.1493967 5.003671 13.1025267"></polygon>
                    <polygon id="Path" points="5.15064591 6.96873333 3.09934015 8.658415 3.26443773 8.85970167 5.31574349 7.17002"></polygon>
                </g>
                <path d="M124.737477,66.9872217 C124.731134,66.9846783 124.72461,66.9819533 124.718086,66.9781383 L124.560781,66.8934817 L126.316506,71.4269733 L121.328783,68.9868267 C121.296343,68.9712033 121.257379,68.9842833 121.241794,69.0168017 C121.226027,69.0495017 121.239075,69.08856 121.271515,69.1041833 L126.556993,71.6900267 L124.737477,66.9872217 Z M122.552969,69.5002167 C122.560762,69.5301917 122.586678,69.5483583 122.61658,69.5483583 C122.621836,69.5483583 122.627091,69.5483583 122.632165,69.5470867 C122.667323,69.5380033 122.688164,69.5014883 122.679103,69.4676983 L121.870651,66.4037083 L123.516008,66.3266817 L123.293643,66.2056917 L121.836942,66.274725 L120.637402,61.722885 L120.590646,61.622605 L122.172212,60.7224467 L123.318471,63.68216 L123.471789,63.718675 L122.286566,60.6572283 L122.312481,60.6430583 C122.343652,60.62471 122.355432,60.58438 122.337309,60.5531333 C122.319006,60.5218867 122.280042,60.51135 122.248871,60.5296983 L122.238541,60.534785 L117.835455,49.1608167 C117.822588,49.1270267 117.784893,49.10995 117.752454,49.12303 C117.740674,49.1270267 117.73415,49.133385 117.725088,49.14265 L114.747714,52.8526467 L114.849201,52.93476 L115.831631,51.710145 L117.353392,54.9761483 L116.494377,55.708265 C116.467012,55.7317 116.463206,55.77203 116.486585,55.7994617 C116.499633,55.815085 116.517756,55.8228967 116.536059,55.8228967 C116.551645,55.8228967 116.565781,55.8176283 116.578829,55.8072733 L117.41066,55.0985917 L120.423011,61.5679233 L119.223471,62.2506267 C119.1923,62.2675217 119.18197,62.3078517 119.200093,62.3390983 C119.211873,62.35999 119.233801,62.3716167 119.255911,62.3716167 C119.266422,62.3716167 119.27802,62.3690733 119.288532,62.363805 L120.478829,61.6865517 L120.515256,61.7672117 L121.704284,66.2810833 L120.363206,66.3437583 C120.32678,66.34503 120.299596,66.375005 120.300864,66.41152 C120.302133,66.4465817 120.332035,66.4740133 120.365743,66.4740133 L120.36973,66.4740133 L121.739442,66.408795 L122.552969,69.5002167 Z M115.922607,51.5969667 L117.756259,49.3119633 L119.304117,53.3138983 L117.456148,54.8889483 L115.922607,51.5969667 Z M117.513234,55.0113917 L119.354679,53.4428817 L122.125455,60.6000033 L120.536097,61.5041583 L117.513234,55.0113917 Z" id="Shape" fill="#0A0F21" fill-rule="nonzero"></path>
                <path d="M123.602997,41.1607617 L123.477045,40.97201 C123.458741,40.9433067 121.574345,38.1214783 120.290353,34.9493967 C118.56598,30.6882233 118.70625,27.725785 120.695939,26.383995 C123.020897,24.8156667 124.770098,25.102155 125.827918,25.6180883 C127.232788,26.3046067 128.73244,28.16233 128.918197,30.7677933 C129.162491,34.1991133 123.966901,40.7087733 123.745985,40.9849083 L123.602997,41.1607617 Z M124.047546,25.5437867 C123.053336,25.5437867 121.983736,25.9189283 120.881696,26.6615817 C116.716561,29.47142 122.67131,39.1052033 123.627644,40.5928717 C124.47506,39.5025083 128.798769,33.7847317 128.584196,30.7912283 C128.4075,28.3185633 126.998824,26.5625733 125.680943,25.9189283 C125.167709,25.6687733 124.620586,25.5437867 124.047546,25.5437867 Z" id="Shape" fill="#0A0F21" fill-rule="nonzero"></path>
                <path d="M123.745985,42.3332383 C125.706134,42.3332383 127.29513,42.1326783 127.29513,41.8850667 C127.29513,41.6376367 125.706134,41.436895 123.745985,41.436895 C121.785836,41.436895 120.19684,41.6376367 120.19684,41.8850667 C120.19684,42.1326783 121.785836,42.3332383 123.745985,42.3332383 Z" id="Path" fill="#FCD295" fill-rule="nonzero"></path>
                <path d="M128.220474,30.5697767 C128.294414,30.1437683 128.339902,29.7359267 128.118987,29.253965 C127.88901,28.7511117 127.538155,28.3016683 127.13402,27.9199867 C127.107923,27.7414083 127.032533,27.565555 126.900056,27.4627317 C126.605019,27.2307433 126.345139,27.06797 125.979967,26.9793167 C125.145599,26.7762133 124.677853,27.1904133 124.707574,27.4158617 C124.753062,27.75576 125.178039,28.5140367 125.656296,29.2486967 C126.259419,30.175015 125.8252,31.4243367 124.780428,31.777315 C124.41,31.9023017 124.068206,32.0131183 123.826631,32.0821517 C123.163704,32.2723567 122.976678,33.26898 123.627644,33.6103317 C123.723875,33.6610167 123.820107,33.706615 123.914888,33.7483983 C123.895497,33.9177117 123.917607,34.087025 123.98901,34.2316317 C123.641961,34.3488067 123.300167,34.4414567 123.162435,34.4792433 C122.20737,34.741025 122.484103,36.035945 123.384619,36.1218733 C123.493899,36.13241 123.596473,36.1309567 123.69796,36.1244167 C123.436631,36.4279817 123.191069,36.743355 122.955836,37.070355 C122.682909,37.4505833 122.840214,37.8662367 123.145581,38.1111233 C122.698494,38.94352 123.777156,39.7330433 124.465999,39.1024783 C124.953318,38.6570317 125.254698,38.1202067 125.387356,37.5326967 C125.682393,37.00768 125.973443,36.4826633 126.264493,35.9551033 C126.427054,35.722025 126.564786,35.4796817 126.662286,35.2307983 C127.198899,34.24998 127.731705,33.2649833 128.255451,32.277625 C128.336097,32.1264783 128.365999,31.977875 128.359475,31.8385367 C128.502463,31.4125283 128.490683,30.976165 128.220474,30.5697767 Z" id="Path" fill="#FCD295" fill-rule="nonzero"></path>
                <path d="M137.373151,45.621405 L136.230878,45.5992417 C136.308806,45.9209733 136.615623,46.3507967 136.928783,46.3351733 C137.182138,46.322275 137.39526,45.9912783 137.49276,45.71896 C137.505809,45.6864417 137.516138,45.6539233 137.523931,45.6239483 L137.373151,45.621405 Z" id="Path" fill="#FFFFFF" fill-rule="nonzero"></path>
                <path d="M139.679986,47.3982867 L139.687779,47.2093533 L139.712426,46.60622 L139.929535,41.1711167 C139.929535,41.1711167 136.867709,41.1816533 136.059257,40.7987 C135.79684,40.6748033 135.643522,40.5394617 135.559071,40.415565 C135.473169,40.4208333 135.389986,40.4261017 135.312059,40.4326417 L135.157472,40.8677333 L134.819484,40.9849083 L134.819484,42.0752717 L135.364071,41.9762633 C135.435474,41.9631833 135.503072,42.010235 135.514851,42.0818117 C135.5279,42.1521167 135.480962,42.2198783 135.410827,42.2329583 L134.819484,42.3397783 L134.819484,44.6129733 C134.819484,44.900915 134.862435,45.17832 134.941631,45.43883 C135.293936,46.610035 136.379122,47.4620517 137.661664,47.4620517 L137.912481,47.4620517 L138.290702,47.4620517 L139.030107,47.4620517 C139.252291,47.4620517 139.469401,47.4398883 139.679986,47.3982867 Z M137.934591,43.018485 C137.921543,42.8698817 138.03336,42.738355 138.181603,42.7267283 C138.330934,42.7136483 138.460874,42.8257367 138.473922,42.9741583 C138.485702,43.1240333 138.375153,43.2542883 138.225641,43.2673683 C138.07631,43.278995 137.946371,43.16836 137.934591,43.018485 Z M137.994396,41.8877917 L139.18868,42.0049667 C139.260265,42.0115067 139.312096,42.0752717 139.305572,42.14703 C139.299229,42.21461 139.241961,42.264205 139.177082,42.264205 L139.164033,42.264205 L137.969749,42.14703 C137.898164,42.1390367 137.846334,42.0765433 137.852677,42.0049667 C137.859201,41.9332083 137.921543,41.8812517 137.994396,41.8877917 Z M134.8898,43.138385 C134.876752,42.98851 134.987119,42.858255 135.136631,42.845175 C135.286143,42.8335483 135.416083,42.9441833 135.427681,43.0940583 C135.44073,43.24248 135.328913,43.3741883 135.18085,43.385815 C135.031338,43.3976233 134.901399,43.2868067 134.8898,43.138385 Z M136.158025,44.63768 C136.082816,44.60389 136.021743,44.5479367 135.981329,44.4814467 C135.930767,44.3980617 135.909926,44.2977817 135.928048,44.1960483 L136.233415,42.550875 C136.241208,42.5065483 136.28289,42.4753017 136.328378,42.484385 C136.372598,42.4934683 136.4025,42.5365233 136.394707,42.5806683 L136.089159,44.2260233 C136.069768,44.3342967 136.125586,44.4423883 136.225623,44.4879867 C136.44527,44.586995 136.757161,44.6091583 136.819684,44.5998933 C136.855929,44.586995 136.897612,44.5998933 136.918271,44.6351367 C136.941831,44.6729233 136.930051,44.72379 136.891087,44.747225 C136.871515,44.7588517 136.830014,44.7653917 136.772746,44.7653917 C136.621966,44.7653917 136.367342,44.72379 136.186659,44.6494883 C136.176329,44.6454917 136.167268,44.6416767 136.158206,44.63768 L136.158025,44.63768 Z M136.928783,46.3351733 C136.615623,46.3507967 136.308806,45.9209733 136.230878,45.5992417 L137.373151,45.6212233 L137.523931,45.6239483 C137.516138,45.6539233 137.505809,45.6864417 137.49276,45.71896 C137.39526,45.9912783 137.182138,46.3220933 136.928783,46.3351733 Z M138.759898,48.2606583 C139.063996,48.0860767 139.395279,47.86081 139.669475,47.6653367 L139.650084,48.1641933 L138.759898,48.2606583 Z M126.38664,62.090215 L125.939554,62.0173667 C125.5771,61.4311283 125.33915,61.0363667 125.33915,61.0363667 L124.489377,58.3605983 C124.498439,58.2641333 124.533415,58.15477 124.608806,58.03487 C124.733671,57.8355817 125.007867,57.92151 125.278076,58.08174 C125.713564,58.3397067 125.956589,58.8296617 125.905846,59.332515 L125.861626,59.76361 L126.632384,59.900405 C126.40875,60.133665 126.254164,60.43723 126.208676,60.7823967 C126.157932,61.17189 126.221724,61.6616633 126.38664,62.090215 Z M125.882467,63.7798967 L126.634921,63.7798967 C126.415274,64.0078883 126.261956,64.3049133 126.212481,64.64354 C126.141078,65.1347667 126.304907,65.6051017 126.619336,65.941185 L126.498457,66.0205733 L126.389359,66.0923317 L125.703053,66.5403217 L125.592686,66.61208 L125.054624,66.9650583 C124.959842,67.02628 124.840232,67.0340917 124.737477,66.9872217 C124.731134,66.9846783 124.72461,66.9819533 124.718086,66.9781383 L124.560781,66.8934817 L123.516008,66.3266817 L123.293643,66.20551 L122.40092,65.7222767 C122.330785,65.6832183 122.276236,65.620725 122.248871,65.5451517 L121.605516,63.8007883 C121.51599,63.5531767 121.735455,63.304475 121.991529,63.3656967 L123.318471,63.68216 L123.471789,63.718675 L124.562049,63.9779133 L124.719354,64.0157 L124.775172,64.02878 L124.488109,63.1989267 C124.488109,63.1989267 124.447695,63.1885717 124.38789,63.164955 C124.338597,63.1455167 124.276255,63.118085 124.211194,63.0802983 C124.026705,62.9734783 123.829168,62.7847267 123.909633,62.4889733 C123.918875,62.4562733 123.931743,62.4290233 123.947328,62.4055883 C123.975962,62.3652583 124.012388,62.3378267 124.057876,62.31966 C124.212463,62.2557133 124.454219,62.3091233 124.679122,62.3886933 C124.738927,62.410675 124.79855,62.4342917 124.853281,62.4577267 C124.915623,62.483705 124.972709,62.5096833 125.023453,62.5345717 C125.154661,62.5983367 125.254698,62.7116967 125.300186,62.8497633 L125.882467,63.7798967 Z M139.507096,104.966637 L139.527937,105.584122 C139.608401,105.620637 139.666938,105.701478 139.664401,105.800487 L139.664038,105.818653 C139.66132,105.94909 139.658964,106.07335 139.709888,106.114407 C140.601524,106.842708 140.979382,106.407617 141.18888,106.166363 C141.243248,106.10387 141.286199,106.054275 141.323894,106.041377 C141.347997,106.033383 141.372463,106.024482 141.396747,106.015762 L141.396928,106.015762 C141.415776,106.008858 141.434442,106.002137 141.452565,105.995778 L141.521431,104.966637 L139.507096,104.966637 Z M135.629205,105.788678 C135.630474,105.739265 135.614888,105.693667 135.588973,105.657152 L135.518657,104.966637 L137.532993,104.966637 L137.532993,105.972343 C137.46902,105.985605 137.39671,106.012128 137.325307,106.038107 C137.312621,106.04283 137.299935,106.047372 137.28743,106.051913 C137.249373,106.064812 137.206059,106.114407 137.151329,106.177082 C136.940743,106.417972 136.562523,106.850883 135.673425,106.120947 C135.622681,106.079527 135.6254,105.957992 135.628299,105.829008 C135.628662,105.815565 135.629024,105.802122 135.629205,105.788678 Z" id="Shape" fill="#E8AC7B"></path>
                <path d="M151.568462,56.32575 C151.455376,56.1108383 151.131705,55.9936633 150.886143,55.934985 C151.112314,56.9185283 151.014814,58.5260967 150.782119,60.247025 C150.858778,60.2561083 150.938155,60.2510217 151.014814,60.2210467 C151.424205,60.06336 151.756757,56.689265 151.568462,56.32575 Z M149.962068,63.731755 C149.962068,63.731755 149.802226,63.8413 149.509907,63.965015 C149.177175,64.1043533 148.673002,64.2633117 148.036171,64.2998267 C146.836631,64.3701317 146.476715,63.78135 146.476715,63.78135 C146.476715,63.78135 146.119336,65.8552567 145.820493,67.9213517 C145.946445,68.1480717 146.023104,68.2834133 146.023104,68.2834133 L145.67098,70.0239617 C145.634554,70.0448533 145.590335,70.0473967 145.541041,70.0317733 C145.473443,70.6180117 145.429224,71.1234083 145.418894,71.47784 C145.41237,71.7799517 145.430493,71.9714283 145.483773,72.0079433 C145.861993,72.2684533 147.694377,72.2737217 148.424721,72.148735 C148.737881,72.095325 149.026394,71.5975583 149.274675,70.8681667 C149.955725,68.86838 150.336482,65.1282267 150.115567,64.03532 C150.080409,63.8594667 150.029665,63.7526467 149.962068,63.731755 Z M135.692816,88.5252583 C135.854108,89.4722867 137.153685,89.7171733 137.301747,89.74188 C137.318601,89.744605 137.352491,89.7496917 137.401784,89.7536883 L137.778736,93.0534817 L137.637017,104.966818 L137.533174,104.966818 L135.518838,104.966818 L135.383643,104.966818 L133.765651,88.9588967 L133.738285,88.6880317 L133.725418,88.563045 L133.725418,88.2751033 L133.726687,87.99897 L133.726687,87.4868517 L133.727955,86.3717817 L133.729224,86.0916517 L133.746078,73.6558417 C133.946334,74.08185 134.197151,74.5209383 134.505056,74.972925 C135.021008,75.7284767 135.698072,76.327795 136.43494,76.7994017 L137.140637,86.7990617 C137.049661,86.8159567 136.962491,86.8393917 136.883295,86.8668233 C136.627221,86.9554767 136.377853,87.1091667 136.172342,87.3044583 C136.08789,87.3840283 136.011231,87.4712283 135.945084,87.56515 C135.80862,87.7539017 135.714926,87.96627 135.686473,88.1904467 C135.672156,88.2919983 135.672156,88.3948217 135.687742,88.4990983 C135.68901,88.5081817 135.690279,88.5174467 135.692816,88.5252583 Z M136.202426,87.6563467 L136.202426,87.6576183 C136.048927,87.849095 135.947621,88.069275 135.937291,88.2972667 C135.934572,88.3519483 135.937291,88.40663 135.945084,88.4613117 C136.059438,89.2468383 137.213309,89.4632033 137.344698,89.4853667 C137.351222,89.4866383 137.360283,89.48791 137.371882,89.4891817 L137.317333,89.0032233 C137.166552,88.9381867 137.044405,88.84045 136.963941,88.72055 C136.789782,88.4574967 136.772928,88.0209517 137.013234,87.8322 C137.066515,87.7904167 137.131575,87.7617133 137.206966,87.7475433 L137.158759,87.0608433 C137.091162,87.075195 137.026283,87.0922717 136.967746,87.1129817 C136.68322,87.21199 136.399963,87.4100067 136.202426,87.6563467 Z M137.279638,88.68022 C137.239405,88.650245 137.206966,88.6150017 137.180869,88.5759433 C137.067783,88.4053583 137.063978,88.122685 137.173076,88.036575 C137.187393,88.0249483 137.205697,88.015865 137.225088,88.0105967 L137.261515,88.5174467 L137.279638,88.68022 Z" id="Shape" fill="#939393"></path>
                <path d="M150.464972,55.101135 C150.661241,55.2653617 150.797704,55.5533033 150.886143,55.934985 C151.112314,56.9185283 151.014814,58.5260967 150.782119,60.247025 L150.782119,60.2473883 C150.766533,60.359295 150.750948,60.4712017 150.734094,60.58438 C150.565191,61.7515883 150.340288,62.95404 150.115386,64.03532 C150.080409,63.8594667 150.029665,63.7526467 149.962068,63.731755 C149.962068,63.731755 149.802226,63.8411183 149.509907,63.965015 C149.177175,64.1043533 148.673002,64.2633117 148.036171,64.299645 C146.836631,64.3701317 146.476715,63.7811683 146.476715,63.7811683 C146.476715,63.7811683 146.119336,65.8552567 145.820311,67.9213517 C145.946445,68.14789 146.023104,68.2834133 146.023104,68.2834133 L145.67098,70.0239617 C145.634554,70.0446717 145.590335,70.0473967 145.541041,70.0317733 C145.473443,70.6180117 145.429224,71.1234083 145.418894,71.4776583 C145.386092,71.1304933 145.344954,70.6561617 145.304902,70.1934567 L145.304902,70.1930933 L145.28243,69.932765 C145.283699,69.90824 145.283699,69.883715 145.283699,69.85919 L145.283699,69.8584633 L145.275906,69.8506517 C145.118601,69.6982333 144.934112,69.4598867 144.727514,69.1510533 C144.099744,68.2156517 143.273169,66.63933 142.444057,64.8924233 C141.978848,63.9128767 141.51237,62.8797383 141.078332,61.8753033 C141.246329,61.3243083 141.428643,60.729895 141.614582,60.12331 L141.712444,59.8041217 C142.489545,61.6473117 143.187449,63.2666883 143.365595,63.5740683 C143.544828,63.8841733 144.0075,64.699675 144.496087,65.5685867 C144.585432,65.7271817 144.675864,65.887775 144.765572,66.0472783 L144.765753,66.0476417 L144.767565,66.0509117 C144.956403,66.3866317 145.142704,66.7176283 145.312333,67.0171967 L145.345678,67.0771467 L145.345678,67.0773283 L145.34586,67.07751 C145.383011,67.1443633 145.419075,67.2092183 145.455139,67.27262 L146.792412,61.415505 C146.792412,61.415505 147.269401,59.8053933 147.673536,58.184745 C147.361645,57.6246667 146.513141,56.1408133 145.496822,54.68312 C145.489572,54.6725833 145.482142,54.661865 145.474712,54.6511467 L145.474531,54.6507833 C145.4671,54.640065 145.45967,54.6295283 145.452602,54.6191733 C145.13165,54.1606467 144.795112,53.705935 144.453318,53.285195 C143.782598,52.4593383 143.095204,51.7610117 142.476678,51.4145733 C142.467616,51.4100317 142.458555,51.4047633 142.449856,51.3998583 L142.449856,51.3998583 C142.4475,51.3985867 142.445144,51.397315 142.442969,51.3960433 C142.441701,51.395135 142.440251,51.3944083 142.438982,51.3936817 C141.613676,50.93897 141.271882,51.02508 140.895112,51.3142933 C140.859954,51.3415433 140.824796,51.3702467 140.78855,51.4002217 C140.739981,51.4405517 140.690325,51.4836067 140.638313,51.52866 C140.524322,51.6274867 140.399094,51.7361233 140.251757,51.84694 C140.112756,51.9512167 140.000939,52.0892833 139.909963,52.2482417 C139.783829,52.46715 139.698109,52.7263883 139.639572,52.990895 L139.635767,53.0103333 C139.471938,53.7764217 139.555121,54.573575 139.83711,55.30442 C139.83711,55.30442 139.838559,55.30442 139.83711,55.3056917 C139.750121,55.58782 139.656608,55.8899317 139.558564,56.2062133 C139.460702,56.5226767 139.358309,56.85331 139.253741,57.1921183 C139.205534,57.043515 139.164033,56.9054483 139.127607,56.77919 C138.830033,55.7356967 138.631227,54.6647717 138.731264,53.618735 C138.771496,53.1992667 138.859935,52.7836133 139.007997,52.3759533 C139.138118,52.0189783 139.295242,51.666 139.483717,51.35208 C139.520144,51.2868617 139.559108,51.2243683 139.601877,51.1631467 C139.601877,51.1631467 139.600609,51.161875 139.601877,51.161875 C139.622718,51.129175 139.644828,51.0979283 139.669475,51.0666817 C139.89184,50.75149 140.155525,50.4922517 140.460892,50.3320217 C140.460892,50.3320217 140.462342,50.3305683 140.462342,50.3320217 C140.602612,50.2564483 140.750855,50.2030383 140.909247,50.1730633 C141.552602,50.054435 142.392226,50.38416 143.279693,50.9898367 C143.314851,51.0132717 143.348559,51.0367067 143.383717,51.0628667 C144.412904,51.783175 145.49809,52.8631833 146.41691,54.0303917 C146.823583,53.9548183 147.339535,53.9417383 147.893183,54.0173117 C147.889377,54.0500117 147.9075,54.079805 147.938671,54.08907 C147.939577,54.0894333 147.945558,54.09125 147.95625,54.09452 L147.956431,54.09452 C147.978178,54.1012417 148.019317,54.113595 148.075135,54.1319433 C148.088183,54.172455 148.115367,54.2087883 148.158318,54.2336767 C148.197282,54.25584 148.241501,54.2636517 148.28572,54.2543867 C148.295325,54.2523883 148.305655,54.25039 148.31671,54.24821 L148.316891,54.24821 C148.33447,54.2447583 148.353862,54.2409433 148.375246,54.23622 C148.675539,54.3483083 149.080943,54.51635 149.421468,54.7221783 C149.717774,54.8993033 149.966055,55.1064033 150.054312,55.3291267 C150.333764,56.0339933 149.71125,60.187075 149.704726,60.2286767 C149.698202,60.26392 149.72303,60.29771 149.759456,60.3029783 L149.768518,60.3029783 C149.799689,60.3029783 149.828322,60.280815 149.832128,60.2482967 C149.859493,60.0762583 150.467691,56.01837 150.175191,55.280985 C150.125897,55.15727 150.03619,55.0399133 149.919298,54.93055 L150.116836,54.907115 C150.142751,54.9045717 150.167398,54.8993033 150.190776,54.8927633 C150.28447,54.9579817 150.376715,55.027015 150.464972,55.101135 Z M148.19855,54.967065 C147.995939,54.4576717 147.060265,54.240035 146.513141,54.1553783 C147.129131,54.953985 147.663206,55.787835 148.043964,56.5733617 C148.201269,55.7956467 148.281733,55.1767083 148.19855,54.967065 Z M148.665209,54.178995 C149.043248,54.2845433 149.424006,54.4355083 149.785372,54.63625 C149.730279,54.6496933 149.676998,54.660775 149.629154,54.670585 C149.617193,54.6731283 149.605595,54.67549 149.594359,54.6778517 C149.29026,54.4772917 148.92237,54.3105217 148.614466,54.1880783 C148.622983,54.1868067 148.63132,54.1851717 148.639837,54.1835367 C148.648174,54.1819017 148.656691,54.1802667 148.665209,54.178995 Z M138.867728,74.5834317 C138.419373,74.54183 137.969749,74.4909633 137.529187,74.4310133 C136.097133,74.2369933 134.748081,73.94778 133.746078,73.5933483 C133.740279,73.5915317 133.73448,73.58917 133.728499,73.5868083 C133.7227,73.5846283 133.716901,73.5822667 133.711101,73.58045 L133.711101,73.58045 C133.7227,73.6051567 133.73448,73.6298633 133.746078,73.6560233 C133.946334,74.08185 134.197151,74.5209383 134.505056,74.972925 C135.021008,75.7284767 135.698072,76.327795 136.43494,76.7994017 L137.140637,86.7990617 C137.396529,86.748195 137.689029,86.7403833 137.961956,86.801605 C138.308824,86.874635 138.62724,87.0557567 138.80013,87.39184 C139.01579,87.8113083 138.975558,88.4653083 138.537714,88.8313667 C138.345251,88.9928683 138.090627,89.084065 137.825493,89.0931483 C137.750102,89.097145 137.673443,89.0918767 137.596784,89.0815217 C137.496747,89.0658983 137.401784,89.0397383 137.317333,89.0032233 L137.371882,89.4891817 C137.440748,89.498265 137.605846,89.5153417 137.820237,89.498265 C138.18414,89.4697433 138.685776,89.3433033 139.09263,88.9147517 C139.622718,88.3557633 139.63178,87.65889 139.62145,87.45833 C139.618913,87.3865717 139.673462,87.32535 139.744865,87.321535 C139.81645,87.3162667 139.878792,87.3734917 139.881329,87.44525 C139.893109,87.67197 139.882598,88.46004 139.280925,89.09442 C138.81046,89.5894617 138.229628,89.7302533 137.8177,89.758775 C137.752639,89.7640433 137.691566,89.765315 137.635748,89.765315 C137.539517,89.765315 137.460321,89.7602283 137.401784,89.7536883 L137.778736,93.0534817 L139.136668,104.966818 L139.507096,104.966818 L141.521431,104.966818 L141.611138,104.966818 L141.612407,103.63284 L141.626724,88.5942917 L142.571459,77.4234267 C142.898936,76.7029367 143.329168,75.693415 143.720256,74.5703517 C143.436998,74.612135 143.128913,74.6433817 142.804154,74.6668167 C141.644847,74.7476583 140.257012,74.712415 138.867728,74.5834317 Z M138.371348,88.6318967 C138.22836,88.750525 138.032091,88.82083 137.829298,88.831185 C137.764419,88.8351817 137.699359,88.8326383 137.63448,88.8233733 C137.49276,88.8026633 137.369345,88.7530683 137.279638,88.68022 L137.261515,88.517265 L137.225088,88.0105967 C137.361552,87.9637267 137.621431,88.03276 137.854126,88.26711 C137.874786,88.2880017 137.895627,88.310165 137.916468,88.3336 C137.961956,88.3882817 138.045139,88.3948217 138.099689,88.3479517 C138.152969,88.3010817 138.159493,88.2189683 138.112737,88.1642867 C138.037347,88.076905 137.957969,88.002785 137.877505,87.9441067 C137.643541,87.7707967 137.396529,87.7123 137.206966,87.7473617 L137.158759,87.0608433 C137.397979,87.0099767 137.683773,87.0008933 137.942384,87.06484 C138.207519,87.1273333 138.442751,87.2666717 138.568885,87.5115583 C138.733801,87.8320183 138.705349,88.3517667 138.371348,88.6318967 Z" id="Shape" fill="#CCCCCC"></path>
                <path d="M144.151757,44.5557483 C144.13744,44.5582917 144.121854,44.5582917 144.107537,44.5582917 C143.641059,44.5582917 143.262839,44.1791533 143.262839,43.7115433 C143.262839,42.8933216 142.966533,42.3554017 142.355799,41.9450167 C141.811213,41.5776867 141.018527,41.3119083 139.964512,41.0370467 C139.757914,40.9836367 139.542254,40.928955 139.316083,40.8740917 C139.265339,40.8617383 139.214777,40.849385 139.164033,40.8370317 L139.164033,40.8370317 C138.911947,40.775265 138.660586,40.7138617 138.412849,40.648825 C137.386199,40.3777783 136.319317,40.3674233 135.559071,40.415565 C135.643522,40.5394617 135.79684,40.6748033 136.059257,40.7987 C136.867709,41.1816533 139.929535,41.1711167 139.929535,41.1711167 L139.712426,46.60622 L139.687779,47.2093533 L139.679986,47.3982867 C139.469401,47.4398883 139.252291,47.4620517 139.030107,47.4620517 L138.290702,47.4620517 L137.912481,47.4620517 L137.661664,47.4620517 C136.379122,47.4620517 135.293936,46.610035 134.941631,45.43883 L134.759679,48.5576833 C134.689545,48.8350883 134.935288,49.0905117 135.214559,49.02929 L137.912481,48.0364817 L137.912481,48.3531267 L138.759898,48.2606583 C139.063996,48.0860767 139.395279,47.8606283 139.669475,47.6653367 L139.650084,48.1641933 L139.62145,48.8716033 L139.59934,49.41733 C139.668206,49.6311517 139.995683,49.7027283 140.446757,49.6883767 C140.922296,49.6752967 141.538285,49.567205 142.134884,49.4344067 C142.606617,49.3275867 143.066571,49.2051433 143.438267,49.099595 C143.936097,48.960075 144.277709,48.84944 144.277709,48.84944 C144.277709,48.84944 144.24527,46.56698 144.153025,44.5557483 L144.151757,44.5557483 Z M144.453318,53.285195 C144.795112,53.705935 145.13165,54.1606467 145.452602,54.6191733 L145.457858,54.626985 L145.4671,54.6402467 L145.474531,54.6507833 L145.474531,54.6507833 L145.474712,54.6511467 L145.474893,54.65151 L145.474893,54.65151 L145.484317,54.6647717 C145.488485,54.6709483 145.492653,54.677125 145.496822,54.68312 C146.51296,56.1408133 147.361645,57.6246667 147.673536,58.184745 C147.269401,59.8053933 146.792412,61.415505 146.792412,61.415505 L145.455139,67.2724383 C145.419257,67.2094 145.383192,67.1447267 145.346041,67.0778733 L145.345497,67.076965 L145.312333,67.0171967 C145.30309,62.2050283 145.04448,57.150335 144.854735,55.31096 C144.89388,55.2628183 144.934112,55.214495 144.975613,55.167625 L144.96619,55.150185 L144.96619,55.150185 C144.931394,55.0856933 144.87612,54.9832333 144.800186,54.8524333 C144.719721,54.2752783 144.602649,53.759345 144.453318,53.285195 Z M150.190776,54.8927633 C150.60796,54.787215 150.743155,54.2349483 150.3923,53.94955 C150.345544,53.9104917 150.293532,53.872705 150.237533,53.8376433 C149.850432,53.5900317 148.817258,53.7607983 148.21033,53.8910533 C148.146538,53.9039517 148.1025,53.945735 148.08039,53.9966017 L148.053931,53.988245 L148.032546,53.9815233 L148.032365,53.9815233 C148.001738,53.971895 147.982165,53.9657183 147.975098,53.9639017 C147.941208,53.9535467 147.904963,53.9744383 147.894452,54.0082283 C147.893908,54.0095 147.893546,54.0113167 147.893364,54.0129517 C147.893183,54.0145867 147.893183,54.01604 147.893183,54.0173117 C147.889377,54.0500117 147.9075,54.0799867 147.938671,54.08907 C147.939577,54.0894333 147.945558,54.09125 147.95625,54.09452 L147.95625,54.09452 C147.978178,54.1012417 148.019317,54.113595 148.075135,54.1319433 C148.088183,54.172455 148.115367,54.2087883 148.158318,54.2336767 C148.197282,54.25584 148.241501,54.2636517 148.28572,54.2543867 C148.295325,54.2523883 148.305655,54.25039 148.316891,54.24821 C148.334289,54.2447583 148.353862,54.2409433 148.375246,54.23622 C148.675539,54.3483083 149.080943,54.51635 149.421468,54.7221783 C149.717774,54.8993033 149.966055,55.1064033 150.054312,55.3291267 C150.333764,56.0339933 149.71125,60.187075 149.704726,60.2286767 C149.698202,60.26392 149.72303,60.29771 149.759456,60.3029783 L149.768518,60.3029783 C149.799689,60.3029783 149.828322,60.280815 149.832128,60.2482967 C149.859493,60.0762583 150.467691,56.01837 150.175191,55.280985 C150.125897,55.15727 150.03619,55.040095 149.919298,54.93055 L150.116836,54.907115 C150.142751,54.9045717 150.167398,54.8993033 150.190776,54.8927633 Z M149.785372,54.63625 C149.730279,54.6496933 149.676817,54.660775 149.629154,54.670585 C149.617193,54.6731283 149.605595,54.67549 149.594359,54.6778517 C149.29026,54.4772917 148.92237,54.3105217 148.614466,54.1880783 C148.622802,54.1868067 148.63132,54.1851717 148.639837,54.1835367 C148.644006,54.1826283 148.648355,54.1819017 148.652704,54.1809933 C148.656873,54.1802667 148.661041,54.17954 148.665209,54.178995 C148.731901,54.1651883 148.802217,54.1508367 148.873257,54.1363033 L148.876701,54.1357583 C149.116283,54.08689 149.363838,54.0363867 149.508457,54.0044133 C149.855507,53.92884 149.997226,54.0747183 150.227203,54.3156083 C150.363666,54.4589433 150.057031,54.56976 149.785372,54.63625 Z M146.51296,54.1553783 C147.129131,54.953985 147.663206,55.7876533 148.043964,56.57318 C148.201269,55.795465 148.281733,55.1767083 148.19855,54.967065 C147.995939,54.4576717 147.060084,54.240035 146.51296,54.1553783 Z M139.305572,42.14703 C139.299229,42.2147917 139.241961,42.264205 139.176901,42.264205 L139.164033,42.264205 L137.969749,42.14703 C137.898164,42.1392183 137.846152,42.0765433 137.852677,42.0049667 C137.859201,41.93339 137.921543,41.8812517 137.994396,41.8877917 L139.18868,42.0049667 C139.260265,42.0115067 139.312096,42.0752717 139.305572,42.14703 Z M137.934591,43.018485 C137.946371,43.16836 138.07631,43.278995 138.225641,43.2673683 C138.375153,43.2542883 138.485702,43.1240333 138.473922,42.9741583 C138.460874,42.8257367 138.330934,42.7136483 138.181603,42.7267283 C138.03336,42.738355 137.921543,42.8698817 137.934591,43.018485 Z M141.396747,106.015762 L141.396928,106.015762 L141.39711,106.015762 C141.415776,106.008858 141.434442,106.002137 141.452565,105.99596 C141.574712,105.952905 141.686529,105.925655 141.742347,105.993417 C142.119117,106.446675 142.037384,107.766302 141.982835,108.253532 C141.968518,108.390327 141.854164,108.493332 141.7177,108.497147 L134.134628,108.753842 C133.972249,108.758928 133.821468,108.713512 133.698053,108.631398 C133.39921,108.439922 133.248429,108.048975 133.422588,107.699993 C133.488736,107.567013 133.587505,107.466733 133.737017,107.435487 C134.503787,107.27126 135.445985,106.984772 136.349219,106.681207 C136.758429,106.54314 137.160028,106.401077 137.532993,106.265553 C137.610376,106.238303 137.686854,106.210145 137.76152,106.182532 L137.804651,106.166545 C138.479178,105.919115 139.036631,105.701478 139.344717,105.579035 C139.408327,105.553057 139.473388,105.558325 139.527937,105.584303 C139.608401,105.620818 139.666938,105.701478 139.664401,105.800487 L139.664038,105.818835 C139.66132,105.94909 139.658964,106.07335 139.709888,106.114407 C140.601524,106.84289 140.979382,106.407798 141.18888,106.166545 C141.243067,106.10387 141.286199,106.054457 141.323894,106.041558 C141.347997,106.033565 141.372463,106.024663 141.396747,106.015762 Z M137.225088,88.0105967 C137.361552,87.963545 137.621431,88.0325783 137.853945,88.26711 C137.874786,88.2880017 137.895627,88.310165 137.916468,88.3336 C137.961956,88.3882817 138.045139,88.3948217 138.099689,88.3479517 C138.152969,88.3010817 138.159493,88.2189683 138.112556,88.1642867 C138.037347,88.076905 137.957969,88.002785 137.877505,87.9441067 C137.643541,87.7707967 137.396529,87.7121183 137.206784,87.7473617 C137.131394,87.7617133 137.066515,87.7904167 137.013234,87.8320183 C136.772746,88.0209517 136.789782,88.457315 136.963759,88.72055 C137.044405,88.8402683 137.166552,88.938005 137.317333,89.0032233 C137.401784,89.0397383 137.496566,89.0657167 137.596784,89.08134 C137.673443,89.091695 137.750102,89.0969633 137.825493,89.0931483 C138.090627,89.0838833 138.345251,88.9926867 138.537533,88.831185 C138.975558,88.4651267 139.01579,87.8111267 138.80013,87.3916583 C138.62724,87.055575 138.308824,86.8744533 137.961956,86.801605 C137.689029,86.7403833 137.396529,86.748195 137.140637,86.7990617 C137.049661,86.8159567 136.962491,86.8393917 136.883295,86.8666417 C136.627221,86.955295 136.377672,87.108985 136.172342,87.3044583 C136.08789,87.3838467 136.011231,87.4712283 135.944902,87.5649683 C135.808439,87.7539017 135.714926,87.96627 135.686292,88.190265 C135.671975,88.2918167 135.671975,88.3948217 135.68756,88.4990983 C135.68901,88.5081817 135.690279,88.517265 135.692816,88.5250767 C135.853927,89.472105 137.153504,89.7169917 137.301747,89.74188 C137.318601,89.7444233 137.352491,89.7496917 137.401784,89.7535067 C137.460321,89.7600467 137.539517,89.765315 137.635748,89.765315 C137.691566,89.765315 137.752639,89.7640433 137.8177,89.758775 C138.229628,89.7300717 138.81046,89.5894617 139.280925,89.09442 C139.882598,88.46004 139.893109,87.6717883 139.881329,87.4450683 C139.878792,87.3734917 139.81645,87.316085 139.744865,87.3213533 C139.673462,87.32535 139.618913,87.3865717 139.62145,87.4581483 C139.63178,87.6587083 139.622718,88.3557633 139.092449,88.91457 C138.685776,89.3431217 138.18414,89.4695617 137.820237,89.498265 C137.605846,89.51516 137.440748,89.498265 137.371882,89.4891817 C137.360283,89.4877283 137.351041,89.4864567 137.344517,89.485185 C137.213309,89.4630217 136.059257,89.2468383 135.944902,88.4613117 C135.93711,88.40663 135.934572,88.3517667 135.93711,88.297085 C135.947621,88.0690933 136.048927,87.8489133 136.202244,87.6574367 L136.202244,87.656165 C136.399782,87.4100067 136.683039,87.21199 136.967746,87.1129817 C137.026283,87.09209 137.091162,87.075195 137.158759,87.0608433 C137.397797,87.0099767 137.683773,87.0008933 137.942384,87.0646583 C138.207519,87.1273333 138.442751,87.2666717 138.568704,87.5115583 C138.733801,87.8320183 138.705167,88.3517667 138.371348,88.6318967 C138.22836,88.750525 138.032091,88.82083 137.829298,88.831185 C137.764419,88.8351817 137.699359,88.8324567 137.63448,88.8233733 C137.49276,88.8026633 137.369345,88.7530683 137.279638,88.6800383 C137.239405,88.6500633 137.206784,88.6150017 137.180869,88.5759433 C137.067783,88.4051767 137.063978,88.1225033 137.173076,88.036575 C137.187393,88.0247667 137.205516,88.0156833 137.225088,88.0105967 Z M136.052914,56.4481933 C136.307537,56.4481933 136.514136,56.5602817 136.514136,56.6970767 C136.514136,56.8351433 136.307537,56.9457783 136.052914,56.9457783 C135.799377,56.9457783 135.592779,56.8351433 135.592779,56.6970767 C135.592779,56.5602817 135.799377,56.4481933 136.052914,56.4481933 Z M135.391436,60.23776 C135.391436,60.3760083 135.598034,60.4866433 135.852658,60.4866433 C136.107463,60.4866433 136.312793,60.3760083 136.312793,60.23776 C136.312793,60.1011467 136.107463,59.99033 135.852658,59.99033 C135.598034,59.99033 135.391436,60.1011467 135.391436,60.23776 Z M136.328378,42.484385 C136.372598,42.4934683 136.4025,42.5365233 136.394707,42.58085 L136.089159,44.226205 C136.069768,44.3342967 136.125586,44.4423883 136.225623,44.4879867 C136.44527,44.586995 136.757161,44.6091583 136.819503,44.600075 C136.855929,44.586995 136.897612,44.600075 136.918271,44.6351367 C136.94165,44.6729233 136.930051,44.72379 136.891087,44.747225 C136.871515,44.7588517 136.830014,44.7653917 136.772746,44.7653917 C136.621966,44.7653917 136.367342,44.72379 136.186659,44.6494883 C136.176329,44.6456733 136.167268,44.6416767 136.158206,44.6378617 L136.158025,44.6378617 C136.082635,44.60389 136.021561,44.5479367 135.981329,44.4814467 C135.930586,44.3980617 135.909926,44.2977817 135.928048,44.19623 L136.233415,42.550875 C136.241208,42.5065483 136.28289,42.4753017 136.328378,42.484385 Z M134.989837,67.3207617 C134.989837,67.4575567 135.196436,67.569645 135.451059,67.569645 C135.705864,67.569645 135.911194,67.4575567 135.911194,67.3207617 C135.911194,67.182695 135.705864,67.0718783 135.451059,67.0718783 C135.196436,67.0718783 134.989837,67.182695 134.989837,67.3207617 Z M134.8898,43.138385 C134.876752,42.98851 134.987119,42.858255 135.136631,42.845175 C135.286143,42.8335483 135.416083,42.9441833 135.427681,43.0940583 C135.44073,43.24248 135.328913,43.3741883 135.18085,43.385815 C135.031338,43.3976233 134.901399,43.2868067 134.8898,43.138385 Z M134.819484,40.9849083 L135.157472,40.8677333 L135.312059,40.4326417 C135.136631,40.448265 134.983313,40.46516 134.858448,40.4795117 C134.634995,40.508215 134.505056,40.5329217 134.4998,40.5341933 L134.49092,40.5356467 L134.49092,40.5356467 C134.470804,40.5390983 134.451413,40.5423683 134.430934,40.5445483 C134.4998,40.8481133 134.615604,41.0566667 134.615604,41.0566667 L134.819484,40.9849083 Z M134.119043,42.4634933 L134.119043,42.4634933 C134.056701,42.4634933 134.002151,42.42062 133.990372,42.3566733 C133.977505,42.2863683 134.02553,42.2186067 134.095664,42.2057083 L134.819484,42.0752717 L135.364071,41.9762633 C135.435474,41.963365 135.503072,42.010235 135.514851,42.0818117 C135.527718,42.1521167 135.480962,42.2198783 135.410827,42.2329583 L134.819484,42.3397783 L134.141152,42.4622217 C134.13336,42.4634933 134.125567,42.4634933 134.119043,42.4634933 Z M134.416617,58.9599167 C134.368592,60.0424683 134.339958,61.248735 134.324373,62.4486433 C134.368592,62.4393783 134.412811,62.430295 134.457031,62.4224833 C134.473885,61.1106683 134.506324,59.7923133 134.562142,58.642 C134.642788,56.90672 134.775446,55.554575 134.98585,55.1781617 C135.413364,54.4108017 137.790335,51.9708367 137.814981,51.9459483 L137.834554,51.92651 L137.791603,51.25289 L137.751371,50.641945 L137.608383,48.411805 L137.607114,48.3896417 C137.607114,48.38837 137.607114,48.38837 137.605846,48.3869167 C137.603309,48.351855 137.569419,48.3244233 137.538248,48.32842 C137.501822,48.3309633 137.474638,48.36221 137.477175,48.3974533 L137.478443,48.40908 L137.510883,48.9302817 L137.623968,50.67846 L137.661664,51.2450783 L137.702077,51.8756433 C137.452528,52.1323383 135.292667,54.3612067 134.871496,55.114215 C134.638982,55.53114 134.498532,57.05278 134.416617,58.9599167 Z M134.306612,65.6334417 L134.306612,65.6334417 C134.350288,65.62563 134.393783,65.618 134.43619,65.61037 C134.43619,66.03111 134.437458,66.4309583 134.438727,66.8048283 C134.445251,68.3629833 134.462105,69.445535 134.463555,69.4833217 C134.463555,69.5183833 134.434921,69.5483583 134.398494,69.5483583 C134.362068,69.5483583 134.333434,69.5211083 134.333434,69.4845933 C134.333253,69.4578883 134.332528,69.4012083 134.331441,69.31746 L134.331441,69.3172783 L134.331441,69.3172783 L134.331441,69.3170967 C134.326547,68.959395 134.31513,68.1082867 134.308787,66.9899467 C134.30625,66.57175 134.304981,66.1157667 134.304981,65.633805 L134.306612,65.6334417 Z M133.343211,88.0705467 C133.452491,88.1617433 133.583699,88.2307767 133.725237,88.2749217 L133.726687,87.9987883 C133.647309,87.96627 133.573188,87.923215 133.510846,87.869805 C133.175576,87.5911283 133.146942,87.0711983 133.31204,86.7494667 C133.403016,86.57107 133.552528,86.4498983 133.727955,86.3717817 L133.729224,86.0916517 C133.457565,86.1853917 133.221064,86.3561583 133.080795,86.6295667 C132.864954,87.0504883 132.905367,87.703035 133.343211,88.0705467 Z M132.788295,88.1524783 C133.0846,88.4651267 133.43165,88.617545 133.738285,88.68785 L133.765651,88.9588967 C133.39776,88.8885917 132.964991,88.717825 132.599819,88.3323283 C131.998146,87.6979483 131.987816,86.9096967 131.999414,86.6829767 C132.003401,86.6114 132.063206,86.5554467 132.135878,86.5592617 C132.207463,86.5632583 132.262012,86.62448 132.259475,86.6960567 C132.248964,86.8966167 132.258025,87.5936717 132.788295,88.1524783 Z" id="Shape" fill="#0A0F21"></path>
                <path d="M144.832807,35.1801133 C144.293476,35.1801133 143.816487,35.441895 143.520181,35.8444683 C143.320107,36.115515 143.201766,36.450145 143.201766,36.81366 C143.201766,37.5223417 143.652658,38.1267467 144.282965,38.3534667 C144.454586,38.4146883 144.640344,38.44866 144.832807,38.44866 C145.733322,38.44866 146.462398,37.7165433 146.462398,36.81366 C146.462398,35.9109583 145.733322,35.1801133 144.832807,35.1801133 Z M151.702207,60.968605 C151.584047,60.740795 151.087486,60.6325217 150.734094,60.58438 C150.565191,61.7515883 150.340288,62.95404 150.115386,64.03532 C150.336482,65.1282267 149.955544,68.86838 149.274675,70.867985 C149.685335,70.7195633 150.049238,70.5827683 150.190776,70.513735 C152.097282,69.5901417 151.891952,61.33212 151.702207,60.968605 Z M142.177653,39.9597633 C142.320641,40.0157167 142.461092,40.0783917 142.598824,40.1434283 C143.366863,40.5134833 144.036134,41.01234 144.462379,41.73937 C144.770283,42.2656583 144.952235,42.9103933 144.952235,43.7115433 C144.952235,44.1637117 144.598843,44.533585 144.153025,44.5557483 L144.151757,44.5557483 C144.13744,44.5582917 144.121854,44.5582917 144.107537,44.5582917 C143.641059,44.5582917 143.262839,44.179335 143.262839,43.7115433 C143.262839,42.8934983 142.966533,42.3554017 142.355799,41.9451983 C141.811213,41.5776867 141.018527,41.3119083 139.964512,41.0370467 C139.757914,40.9836367 139.542254,40.928955 139.316083,40.8742733 C139.265339,40.86192 139.214596,40.849385 139.164033,40.8370317 C138.911947,40.7754467 138.660586,40.7140433 138.412849,40.648825 C137.386199,40.37796 136.319317,40.3674233 135.559071,40.4157467 C135.47335,40.421015 135.390167,40.4261017 135.312059,40.4326417 C135.136631,40.448265 134.983313,40.46516 134.858629,40.4795117 C134.634995,40.508215 134.505056,40.5329217 134.4998,40.5341933 L134.49092,40.5358283 C134.470804,40.5390983 134.451413,40.5423683 134.431115,40.54473 C133.998346,40.5916 133.595479,40.29839 133.510846,39.8632983 C133.422588,39.4047717 133.720163,38.9605967 134.177579,38.8719433 C134.216543,38.8641317 134.60908,38.7900117 135.210753,38.7404167 C135.422607,38.7235217 135.659108,38.70917 135.91645,38.70263 C136.02428,38.7000867 136.136097,38.698815 136.250451,38.698815 C137.025014,38.698815 137.937309,38.772935 138.841812,39.01001 C139.128875,39.0855833 139.422644,39.1573417 139.716231,39.2289183 L139.716413,39.2289183 L139.72638,39.2314617 C140.52414,39.4260267 141.386961,39.63676 142.177653,39.9597633 Z M137.532993,105.972525 C137.46902,105.985787 137.39671,106.012128 137.325307,106.038288 C137.312621,106.04283 137.299935,106.047372 137.28743,106.051913 C137.249373,106.064812 137.206059,106.114588 137.151329,106.177082 C136.940743,106.418153 136.562523,106.851065 135.673425,106.120947 C135.622681,106.079708 135.6254,105.958173 135.628299,105.829008 C135.628662,105.815747 135.629024,105.802303 135.629205,105.78886 C135.630474,105.739265 135.614888,105.693667 135.588973,105.657333 C135.532974,105.576492 135.427681,105.537433 135.326375,105.576492 C134.471348,105.912575 131.566826,107.029098 129.696747,107.423678 C129.547235,107.454925 129.447198,107.555387 129.380869,107.686913 C129.13277,108.181955 129.536905,108.760382 130.089103,108.743487 L133.698053,108.631398 C133.39921,108.439922 133.248429,108.048975 133.422588,107.699993 C133.488917,107.567013 133.587505,107.466733 133.737017,107.435487 C134.503787,107.27126 135.445985,106.984772 136.349219,106.681207 C136.758611,106.54314 137.160028,106.401077 137.532993,106.265553 C137.610376,106.238303 137.686854,106.210145 137.76152,106.182532 L137.804651,106.166545 C137.776018,106.105323 137.743578,106.051913 137.705883,106.006315 C137.668188,105.960717 137.607114,105.956902 137.532993,105.972525 Z M120.559475,59.2465867 L121.309391,59.3403267 L121.174196,60.8332633 L122.302151,61.2592717 L122.051334,61.97304 L121.10388,61.6162467 L121.020878,62.543655 L120.270962,62.4486433 L120.370999,61.33866 L118.992226,60.8189117 L119.243044,60.10369 L120.441134,60.5556767 L120.559475,59.2465867 Z" id="Shape" fill="#FF5E5E"></path>
                <path d="M138.841812,39.01001 C137.937309,38.772935 137.025014,38.6986333 136.250451,38.6986333 C136.136097,38.6986333 136.02428,38.699905 135.91645,38.70263 C135.659108,38.70917 135.422607,38.7235217 135.210753,38.7404167 C135.547291,37.8231817 136.266036,36.356405 137.423894,36.29264 C137.89164,36.2661167 138.567254,36.183095 139.310283,36.0917167 C140.837844,35.904055 142.649387,35.6813317 143.520181,35.8444683 C143.320107,36.1153333 143.201766,36.450145 143.201766,36.81366 C143.201766,37.5223417 143.652658,38.1267467 144.282965,38.3534667 C144.619503,38.913545 144.866515,39.6314917 144.578002,40.3192817 C144.463648,40.5916 144.445525,41.1647583 144.462379,41.7391883 C144.036134,41.01234 143.366863,40.5133017 142.598824,40.1434283 C142.461092,40.07821 142.320641,40.0157167 142.177653,39.9597633 C141.386961,39.63676 140.52414,39.4260267 139.72638,39.23128 L139.716413,39.2289183 L139.716231,39.2289183 C139.422463,39.15716 139.128875,39.0855833 138.841812,39.01001 Z M142.444057,64.8924233 C143.273169,66.63933 144.099744,68.2156517 144.727514,69.1510533 C144.934112,69.459705 145.118601,69.6982333 145.275906,69.8506517 L145.283699,69.8584633 L145.283699,69.85919 C145.283699,69.883715 145.283699,69.90824 145.28243,69.932765 C145.244735,71.53234 145.168076,73.0149217 145.038137,74.231725 C144.702867,74.3801467 144.253062,74.492235 143.720256,74.5703517 C143.436998,74.612135 143.128913,74.6433817 142.804154,74.6668167 C141.644847,74.7474767 140.257012,74.712415 138.867728,74.5834317 C138.419373,74.5416483 137.969749,74.4909633 137.529187,74.4310133 C136.097133,74.2368117 134.748081,73.9475983 133.746078,73.5933483 C133.740279,73.59135 133.73448,73.58917 133.728499,73.5868083 C133.7227,73.5844467 133.716901,73.5822667 133.711101,73.5802683 C133.256222,73.417495 132.875465,73.24037 132.593476,73.0527083 C132.527147,72.9484317 132.732477,69.6186633 132.985832,65.8694267 C131.761645,66.07798 130.089103,66.3359467 128.841538,66.4206033 C128.569879,66.43877 128.319061,66.449125 128.096877,66.449125 C127.875962,66.449125 127.684949,66.43877 127.529094,66.4166067 C127.167728,66.3631967 126.851849,66.1898867 126.619336,65.941185 C126.304907,65.6051017 126.141078,65.1347667 126.212481,64.6437217 C126.261956,64.3049133 126.415274,64.0078883 126.634921,63.7798967 C126.716836,63.6965117 126.806362,63.6223917 126.903862,63.558445 C127.210678,63.357885 127.590167,63.2639633 127.981255,63.3226417 C128.38539,63.3656967 129.44448,63.25488 130.742788,63.0634033 L127.39263,63.08811 C126.92724,63.0268883 126.584178,62.6023333 126.38664,62.090215 C126.221724,61.6616633 126.157932,61.17189 126.208676,60.7823967 C126.254164,60.43723 126.40875,60.133665 126.632384,59.900405 C126.963666,59.55651 127.448448,59.3675767 127.957876,59.43661 L130.410056,59.7583417 C131.02224,58.9415683 131.590204,57.657185 132.100901,56.4977883 C132.758392,55.007395 133.380906,53.599115 134.24119,52.6560833 C134.858629,51.9811917 135.620144,51.5070417 136.301013,51.1838567 C136.512867,50.8127117 136.661111,50.5026067 136.698806,50.3058617 C136.875502,49.4082467 137.191199,48.5329767 137.478443,48.40908 L137.511064,48.9302817 L137.623968,50.67846 L137.661664,51.2450783 L137.702077,51.8756433 C137.452528,52.1323383 135.292667,54.3612067 134.871496,55.114215 C134.638982,55.53114 134.498532,57.0525983 134.416617,58.9599167 C134.368592,60.0424683 134.339958,61.248735 134.324373,62.4484617 C134.368592,62.4393783 134.412811,62.430295 134.457031,62.4224833 C134.473885,61.1106683 134.506324,59.7923133 134.562323,58.642 C134.642788,56.90672 134.775446,55.554575 134.98585,55.17798 C135.413546,54.4108017 137.790335,51.9708367 137.814981,51.9459483 L137.834554,51.92651 L137.791603,51.25289 L137.751371,50.641945 L137.608383,48.411805 L137.607114,48.3896417 C137.607114,48.3887333 137.607114,48.3885517 137.606752,48.3880067 C137.606571,48.387825 137.606389,48.3874617 137.605846,48.3869167 L137.912481,48.3531267 L138.759898,48.2606583 L139.650084,48.1641933 L139.62145,48.8716033 L139.59934,49.4175117 C139.668206,49.6311517 139.995683,49.7027283 140.446757,49.6883767 C140.922296,49.6752967 141.538285,49.567205 142.134884,49.4344067 C142.606617,49.3275867 143.066571,49.2051433 143.438267,49.099595 C143.405827,49.75741 143.357802,50.4960667 143.291473,50.9208033 C143.323913,50.9676733 143.355084,51.015815 143.383717,51.062685 C143.348559,51.0367067 143.314851,51.0132717 143.279693,50.9898367 C142.392226,50.3839783 141.552602,50.054435 140.909428,50.1730633 C140.750855,50.2030383 140.602612,50.2564483 140.462342,50.3320217 C140.462342,50.3305683 140.461073,50.3320217 140.461073,50.3320217 C140.155525,50.4922517 139.89184,50.75149 139.669475,51.0666817 C139.644828,51.0979283 139.622718,51.129175 139.602059,51.1616933 C139.600609,51.1616933 139.602059,51.1631467 139.602059,51.1631467 C139.559108,51.2243683 139.520144,51.2868617 139.483717,51.3518983 C139.295242,51.666 139.138118,52.0189783 139.007997,52.3759533 C138.859935,52.7836133 138.771496,53.1992667 138.731264,53.618735 C138.631227,54.6647717 138.830033,55.7356967 139.127607,56.77919 C139.164033,56.9054483 139.205534,57.043515 139.253741,57.1921183 C139.358309,56.85331 139.460702,56.522495 139.558745,56.2060317 C139.656608,55.88975 139.750121,55.5876383 139.837291,55.3056917 C139.838559,55.30442 139.837291,55.30442 139.837291,55.30442 C139.555121,54.573575 139.471938,53.7764217 139.635767,53.0103333 L139.639754,52.9907133 C139.698109,52.7263883 139.783829,52.46715 139.909963,52.2482417 C140.000939,52.0892833 140.112756,51.9512167 140.251757,51.84694 C140.399094,51.7359417 140.524322,51.6274867 140.638494,51.52866 C140.690325,51.4836067 140.740163,51.4405517 140.78855,51.4002217 C140.824796,51.3702467 140.859954,51.3415433 140.895112,51.3141117 C141.271882,51.02508 141.613676,50.93897 142.438982,51.3936817 C142.442426,51.39568 142.44605,51.3976783 142.449856,51.3998583 C142.458555,51.4047633 142.467616,51.4100317 142.476678,51.4145733 C143.095204,51.7610117 143.782779,52.4593383 144.453318,53.285195 C144.602649,53.759345 144.719721,54.2752783 144.800186,54.8524333 C144.807979,54.9045717 144.814503,54.9565283 144.821027,55.0086667 C144.831357,55.09732 144.843137,55.1976 144.854916,55.31096 C145.04448,57.150335 145.30309,62.2050283 145.312333,67.0171967 C145.14198,66.7165383 144.955135,66.3840883 144.765572,66.0472783 C144.675864,65.887775 144.585432,65.7271817 144.496087,65.5685867 C144.0075,64.699675 143.544828,63.8841733 143.365595,63.5740683 C143.187449,63.2666883 142.489545,61.6473117 141.712444,59.80394 L141.614401,60.123855 C141.428462,60.7302583 141.246329,61.32449 141.078332,61.8753033 C141.51237,62.8797383 141.978848,63.9128767 142.444057,64.8924233 Z M135.911194,67.3207617 C135.911194,67.182695 135.705864,67.0718783 135.451241,67.0718783 C135.196436,67.0718783 134.989837,67.182695 134.989837,67.3207617 C134.989837,67.4575567 135.196436,67.5694633 135.451241,67.5694633 C135.705864,67.5694633 135.911194,67.4575567 135.911194,67.3207617 Z M135.592779,56.6970767 C135.592779,56.8351433 135.799377,56.9457783 136.052914,56.9457783 C136.307537,56.9457783 136.514136,56.8351433 136.514136,56.6970767 C136.514136,56.5602817 136.307537,56.4481933 136.052914,56.4481933 C135.799377,56.4481933 135.592779,56.5602817 135.592779,56.6970767 Z M135.852658,60.4866433 C136.107463,60.4866433 136.312793,60.3760083 136.312793,60.23776 C136.312793,60.100965 136.107463,59.99033 135.852658,59.99033 C135.598034,59.99033 135.391436,60.100965 135.391436,60.23776 C135.391436,60.3760083 135.598034,60.4866433 135.852658,60.4866433 Z M134.438727,66.8048283 C134.437458,66.4309583 134.43619,66.03111 134.43619,65.6101883 C134.393239,65.618 134.349201,65.6258117 134.304981,65.6336233 C134.304981,66.1157667 134.30625,66.5715683 134.308787,66.989765 C134.31513,68.1084683 134.326547,68.9595767 134.331441,69.3172783 C134.332528,69.4010267 134.333253,69.4578883 134.333615,69.4845933 C134.333615,69.5211083 134.362068,69.5483583 134.398494,69.5483583 C134.434921,69.5483583 134.463555,69.5183833 134.463555,69.4833217 C134.462286,69.445535 134.445251,68.3629833 134.438727,66.8048283 Z M132.048889,62.5814417 L131.670669,62.9200683 C132.171036,62.8394083 132.688257,62.750755 133.205479,62.657015 C133.244442,62.1045667 133.282138,61.5601117 133.318564,61.0325517 C132.945599,61.6213333 132.529684,62.1516183 132.048889,62.5814417 Z" id="Shape" fill="#1B5C6A"></path>
                <path d="M122.912886,27.98248 C122.178736,28.1517933 121.668039,28.7551083 121.548429,29.5965883 C121.512003,29.8505583 121.528857,30.07855 121.596454,30.275295 C121.678369,30.51237 121.831687,30.7038467 121.996784,30.8953233 C122.194322,31.12604 122.391859,31.3474917 122.646482,31.5155333 C122.94152,31.710825 123.291106,31.8060183 123.640692,31.8060183 C124.124205,31.8060183 124.608806,31.6248967 124.952049,31.2784583 C125.544661,30.6804117 125.639442,29.66435 125.170246,28.9660233 C124.646501,28.1883083 123.739461,27.792275 122.912886,27.98248 Z M124.714099,31.0439267 C124.238559,31.5246167 123.392412,31.6118167 122.829703,31.2379467 C122.611506,31.09334 122.430822,30.8902367 122.248871,30.67914 C122.100809,30.50583 121.973406,30.348325 121.911064,30.1672033 C121.860321,30.021325 121.849991,29.8454717 121.878443,29.64473 C121.978662,28.9347767 122.382797,28.4488183 122.987007,28.30948 C123.679656,28.1505217 124.445158,28.48933 124.892244,29.1549567 C125.270465,29.7152167 125.191087,30.5632367 124.714099,31.0439267 Z" id="Shape" fill="#0A0F21" fill-rule="nonzero"></path>
            </g>
        </g>
    </g>
</svg>