<?xml version="1.0" encoding="UTF-8"?>
<svg width="37px" height="34px" viewBox="0 0 37 34" version="1.1" xmlns="http://www.w3.org/2000/svg" xmlns:xlink="http://www.w3.org/1999/xlink">
    <!-- Generator: Sketch 57.1 (83088) - https://sketch.com -->
    <title>Icon / Time / History Copy 4</title>
    <desc>Created with Sketch.</desc>
    <g id="Icon-/-Time-/-History-Copy-4" stroke="none" stroke-width="1" fill="none" fill-rule="evenodd">
        <g id="Group-4" transform="translate(-1.000000, 0.000000)">
            <g id="Group-3">
                <path d="M11.8242556,30.2220333 C14.5820333,32.2053667 17.8498111,33.2442556 21.2498111,33.2442556 C30.2031444,33.2442556 37.4942556,25.9531444 37.4942556,16.9998111 C37.4942556,10.1431444 33.1309222,3.98536667 26.6709222,1.69981111 C24.9520333,1.07647778 23.1387,0.755366667 21.2498111,0.755366667 C12.67741,0.755366667 5.62879444,7.43925667 5.04452333,15.8664778 L1.41645889,15.8664778 C0.963125556,15.8664778 0.54757,16.1498111 0.37757,16.5653667 C0.20757,16.9809222 0.283125556,17.4720333 0.623125556,17.7931444 L5.34534778,22.5153667 C5.57201444,22.7420333 5.85534778,22.8553667 6.13868111,22.8553667 C6.42201444,22.8553667 6.72423667,22.7420333 6.93201444,22.5153667 L7.41849778,22.0287889 C7.50147667,21.9662667 7.57442556,21.8929778 7.63596556,21.8113778 L11.6542367,17.7931444 C11.9942367,17.4720333 12.0886811,16.9809222 11.8997922,16.5653667 C11.7297922,16.1498111 11.3142367,15.8664778 10.8609033,15.8664778 L7.31755556,15.8664778 C7.89640556,8.68766111 13.9246433,3.02203333 21.2498111,3.02203333 C22.8742556,3.02203333 24.4420333,3.28647778 25.9153667,3.83425556 C31.4875889,5.7987 35.2275889,11.0875889 35.2275889,16.9998111 C35.2275889,24.7064778 28.9564778,30.9775889 21.2498111,30.9775889 C18.3220333,30.9775889 15.5264778,30.0709222 13.1464778,28.3709222 C12.6364778,28.0120333 11.9187,28.1253667 11.5598111,28.6353667 C11.2009222,29.1453667 11.3142556,29.8631444 11.8242556,30.2220333 Z" id="Path" fill="#529393"></path>
                <path d="M10.8609033,15.8664778 C11.3142367,15.8664778 11.7297922,16.1498111 11.8997922,16.5653667 C12.0886811,16.9809222 11.9942367,17.4720333 11.6542367,17.7931444 L6.93201444,22.5153667 C6.72423667,22.7420333 6.42201444,22.8553667 6.13868111,22.8553667 C5.85534778,22.8553667 5.57201444,22.7420333 5.34534778,22.5153667 L0.623125556,17.7931444 C0.283125556,17.4720333 0.20757,16.9809222 0.37757,16.5653667 C0.54757,16.1498111 0.963125556,15.8664778 1.41645889,15.8664778 L10.8609033,15.8664778 Z M23.1388889,18.8888889 C23.1388889,19.9321222 22.2932333,20.7777778 21.25,20.7777778 C20.2067667,20.7777778 19.3611111,19.9321222 19.3611111,18.8888889 C19.3611111,17.8456556 20.2067667,17 21.25,17 C22.2932333,17 23.1388889,17.8456556 23.1388889,18.8888889 Z" id="Shape"></path>
                <text id="10" font-family="HelveticaNeue-Bold, Helvetica Neue" font-size="16" font-weight="bold" line-spacing="51.4999986" fill="#529393">
                    <tspan x="12" y="23">10</tspan>
                </text>
            </g>
        </g>
    </g>
</svg>