<?xml version="1.0" encoding="UTF-8"?>
<svg width="45px" height="48px" viewBox="0 0 45 48" version="1.1" xmlns="http://www.w3.org/2000/svg" xmlns:xlink="http://www.w3.org/1999/xlink">
    <!-- Generator: Sketch 57.1 (83088) - https://sketch.com -->
    <title>Icon/ Martini / white</title>
    <desc>Created with Sketch.</desc>
    <g id="Icon/-Martini-/-white" stroke="none" stroke-width="1" fill="none" fill-rule="evenodd">
        <path d="M9.79808577,9.375 L13.1732047,12.75 L32.826897,12.75 L36.2020159,9.375 L9.79808577,9.375 Z M25.24863,25.101 L25.24863,38.625 L29.1877688,38.625 C30.7388234,38.625 31.9988678,39.885 31.9988678,41.439 C31.9988678,41.748 31.7468589,42 31.4378481,42 L14.5622536,42 C14.2502426,42 13.9982337,41.748 13.9982337,41.439 C13.9982337,39.885 15.2582781,38.625 16.8123329,38.625 L20.7484715,38.625 L20.7484715,25.101 L5.69994141,10.05 C4.20588878,8.556 5.26192598,6 7.37400038,6 L38.6231012,6 C40.7381757,6 41.7942129,8.556 40.3001602,10.05 L25.24863,25.101 Z" id="Fill-1" fill="#FFFFFF"></path>
    </g>
</svg>