<?xml version="1.0" encoding="UTF-8"?>
<svg width="32px" height="52px" viewBox="0 0 32 52" version="1.1" xmlns="http://www.w3.org/2000/svg" xmlns:xlink="http://www.w3.org/1999/xlink">
    <!-- Generator: Sketch 57.1 (83088) - https://sketch.com -->
    <title>Icon / Mic</title>
    <desc>Created with Sketch.</desc>
    <g id="Page-1" stroke="none" stroke-width="1" fill="none" fill-rule="evenodd">
        <g id="Podcast" transform="translate(-176.000000, -518.000000)" fill="#529393">
            <g id="Icon-/-Mic" transform="translate(166.000000, 518.000000)">
                <g id="mic-simple-filled" transform="translate(10.000000, 0.000000)">
                    <path d="M15.5994367,0.65 C10.9325017,0.65 7.149324,4.43320583 7.149324,9.1 L7.149324,26 C7.149324,30.666935 10.9325017,34.45 15.5994367,34.45 C20.26609,34.45 24.0494367,30.666935 24.0494367,26 L24.0494367,9.1 C24.0494367,4.43320583 20.26609,0.65 15.5994367,0.65 Z M0.107657333,20.3666667 L3.48765733,20.3666667 L3.48765733,27.4083333 C3.48765733,34.0973533 8.9102195,39.52 15.5994367,39.52 C22.2884567,39.52 27.7111033,34.0973533 27.7111033,27.4083333 L27.7111033,20.3666667 L31.0911033,20.3666667 L31.0911033,27.4083333 C31.0911033,35.39302 25.0501983,41.9668383 17.2894367,42.80874 L17.2894367,47.97 L25.1761033,47.97 C26.109265,47.97 26.8661033,48.7265567 26.8661033,49.66 C26.8661033,50.5934433 26.109265,51.35 25.1761033,51.35 L17.2894367,51.35 L13.9094367,51.35 L6.02265733,51.35 C5.08927033,51.35 4.33265733,50.5934433 4.33265733,49.66 C4.33265733,48.7265567 5.0892985,47.97 6.02265733,47.97 L13.9094367,47.97 L13.9094367,42.80874 C6.148506,41.9668383 0.107657333,35.39302 0.107657333,27.4083333 L0.107657333,20.3666667 Z" id="Shape"></path>
                </g>
            </g>
        </g>
    </g>
</svg>