<?xml version="1.0" encoding="UTF-8"?>
<svg width="77px" height="78px" viewBox="0 0 77 78" version="1.1" xmlns="http://www.w3.org/2000/svg" xmlns:xlink="http://www.w3.org/1999/xlink">
    <!-- Generator: Sketch 57.1 (83088) - https://sketch.com -->
    <title>moon zzz-nature (5)</title>
    <desc>Created with Sketch.</desc>
    <g id="Page-1" stroke="none" stroke-width="1" fill="none" fill-rule="evenodd">
        <g id="Individual-Challenge" transform="translate(-148.000000, -453.000000)">
            <g id="moon-zzz-nature-(5)" transform="translate(141.000000, 446.000000)">
                <rect id="Rectangle" x="0" y="0" width="92" height="92"></rect>
                <path d="M56.7724333,12.2666667 L52.9774333,12.2666667 C51.7124333,12.2666667 50.7157667,11.2316667 50.7157667,9.96666667 C50.7157667,8.70166667 51.7507667,7.66666667 53.0157667,7.66666667 L62.3307667,7.66666667 C63.2507667,7.66666667 64.0941,8.24166667 64.4391,9.085 C64.7841,9.92833333 64.5924333,10.925 63.9407667,11.5766667 L58.5357667,16.9816667 L62.3307667,16.9816667 C63.5957667,16.9816667 64.6307667,18.0166667 64.6307667,19.2816667 C64.6307667,20.5466667 63.5957667,21.5816667 62.3307667,21.5816667 L52.9774333,21.5816667 C52.0574333,21.5816667 51.2141,21.0066667 50.8691,20.1633333 C50.5241,19.32 50.7157667,18.3233333 51.3674333,17.6716667 L56.7724333,12.2666667 Z M77.2037167,42.2053833 L80.9987167,42.2053833 C82.2637167,42.2053833 83.33705,43.2403833 83.33705,44.5053833 C83.33705,45.7703833 82.30205,46.8053833 81.03705,46.8053833 L71.6837167,46.8053833 C70.7637167,46.8053833 69.9203833,46.2303833 69.5753833,45.38705 C69.2303833,44.5437167 69.42205,43.54705 70.0737167,42.8953833 L75.4787167,37.4903067 L71.6837167,37.4903067 C70.4187167,37.4903067 69.3837167,36.4553067 69.3837167,35.1903067 C69.3837167,33.9253067 70.4187167,32.8903067 71.6837167,32.8903067 L80.9987167,32.8903067 C81.9187167,32.8903067 82.76205,33.4653067 83.10705,34.30864 C83.45205,35.1519733 83.2603833,36.14864 82.6087167,36.8003067 L77.2037167,42.2053833 Z M42.2824333,37.75795 L49.2591,37.75795 L41.0174333,45.9996167 C40.3657667,46.6512833 40.1741,47.64795 40.5191,48.4912833 C40.8641,49.3346167 41.7074333,49.9096167 42.6274333,49.9096167 L54.7791,49.9096167 C56.0441,49.9096167 57.0791,48.8746167 57.0791,47.6096167 C57.0791,46.3446167 56.0441,45.3096167 54.7791,45.3096167 L48.1474333,45.3096167 L56.3891,37.06795 C57.0407667,36.4162833 57.2324333,35.4196167 56.8874333,34.5762833 C56.5424333,33.73295 55.6991,33.15795 54.7791,33.15795 L42.2441,33.15795 C40.9791,33.15795 39.9441,34.19295 39.9441,35.45795 C39.9441,36.72295 41.0174333,37.75795 42.2824333,37.75795 Z M55.7753833,64.745 C60.0303833,64.745 64.0937167,63.8633333 67.8887167,62.0616667 C68.7703833,61.64 69.8053833,61.8316667 70.45705,62.4833333 C71.14705,63.1733333 71.3387167,64.2083333 70.91705,65.09 C65.51205,76.8583333 53.6287167,84.4483333 40.6337167,84.4483333 C22.1954983,84.4483333 7.207165,69.46 7.207165,51.0216667 C7.207165,38.1034867 14.8354983,26.2201533 26.5654983,20.7001533 C27.447165,20.2784867 28.4821267,20.4701533 29.1721267,21.1601533 C29.8621267,21.8501533 30.0538317,22.8851533 29.632165,23.76682 C27.8688317,27.56182 26.9487933,31.6634867 26.9487933,35.95682 C26.9487933,51.8266667 39.86705,64.745 55.7753833,64.745 Z M11.8454983,51.0216667 C11.8454983,66.93 24.7637933,79.8483333 40.67205,79.8483333 C49.7953833,79.8483333 58.26705,75.5166667 63.6337167,68.425 C61.1037167,69.0383333 58.4587167,69.345 55.7753833,69.345 C37.337165,69.345 22.3487933,54.3566667 22.3487933,35.95682 C22.3487933,33.2734867 22.6554983,30.6284867 23.2688317,28.0601533 C16.177165,33.4651533 11.8454983,41.9366667 11.8454983,51.0216667 Z" id="Shape" fill="#FFB6B6"></path>
            </g>
        </g>
    </g>
</svg>