<?xml version="1.0" encoding="UTF-8"?>
<svg width="33px" height="39px" viewBox="0 0 33 39" version="1.1" xmlns="http://www.w3.org/2000/svg" xmlns:xlink="http://www.w3.org/1999/xlink">
    <!-- Generator: Sketch 57.1 (83088) - https://sketch.com -->
    <title>rain-nature-color</title>
    <desc>Created with Sketch.</desc>
    <g id="Page-1" stroke="none" stroke-width="1" fill="none" fill-rule="evenodd">
        <g id="Questions-Assessment-1" transform="translate(-84.000000, -401.000000)">
            <g id="rain-nature-color" transform="translate(84.000000, 401.000000)">
                <path d="M5.94008,25.0396 C6.24008,24.4596 6.98008,24.2396 7.56008,24.5396 C8.14008,24.8396 8.36008,25.5796 8.06008,26.1596 L4.54006,32.8796 C4.32006,33.2796 3.92006,33.5196 3.48006,33.5196 C3.28006,33.5196 3.10006,33.4796 2.92006,33.3796 C2.34006,33.0796 2.12006,32.3396 2.42006,31.7596 L5.94008,25.0396 Z M19.3402,24.5396 C18.7602,24.2396 18.02,24.4596 17.72,25.0396 L14.2,31.7596 C13.9,32.3396 14.12,33.0796 14.7,33.3796 C14.88,33.4796 15.06,33.5196 15.26,33.5196 C15.7,33.5196 16.1,33.2796 16.32,32.8796 L19.8402,26.1596 C20.1602,25.5796 19.9402,24.8396 19.3402,24.5396 Z M30.52,24.5396 C29.94,24.2396 29.2,24.4596 28.9,25.0396 L25.38,31.7596 C25.08,32.3396 25.3,33.0796 25.88,33.3796 C26.06,33.4796 26.24,33.5196 26.44,33.5196 C26.88,33.5196 27.28,33.2796 27.5,32.8796 L31.02,26.1596 C31.34,25.5796 31.12,24.8396 30.52,24.5396 Z M9.36006,34.5598 C8.78006,34.2398 8.04006,34.4798 7.74006,35.0598 L6.68008,37.0798 C6.38008,37.6598 6.60008,38.3998 7.18008,38.6998 C7.36008,38.7998 7.54006,38.8398 7.74006,38.8398 C8.18006,38.8398 8.58006,38.5998 8.80006,38.1998 L9.86006,36.1798 C10.18006,35.5798 9.96006,34.8598 9.36006,34.5598 Z M19.52,35.0598 C19.82,34.4798 20.56,34.2598 21.14,34.5598 C21.72,34.8598 21.94,35.5798 21.64,36.1798 L20.58,38.1998 C20.36,38.5998 19.96,38.8398 19.52,38.8398 C19.32,38.8398 19.1402,38.7998 18.9602,38.6998 C18.3802,38.3998 18.1602,37.6598 18.4602,37.0798 L19.52,35.0598 Z" id="Shape" fill="#FF5E5E"></path>
                <path d="M25.36,21.08 L6.21998,21.08 C2.77998,21.08 0,18.28 0,14.86 C0,11.42 2.79998,8.62 6.21998,8.62 C6.65998,8.62 7.09998,8.66 7.53998,8.76 C8.15998,3.82 12.38,0 17.48,0 C21.42,0 25,2.34 26.6,5.9 C30.18,6.5 32.88,9.6 32.88,13.28 C32.86,17.5 29.42,21.08 25.36,21.08 Z M6.20002,11.02 C4.08002,11.02 2.38,12.74 2.38,14.86 C2.38,16.98 4.10002,18.68 6.20002,18.68 L25.34,18.68 C28.06,18.68 30.44,16.16 30.44,13.28 C30.44,10.6 28.34,8.38 25.66,8.22 C25.18,8.2 24.76,7.88 24.6,7.44 C23.5,4.44 20.64,2.42 17.44,2.42 C13.24,2.42 9.82,5.84 9.82,10.04 L9.84002,10.28 C9.86002,10.72 9.66002,11.22 9.28002,11.46 C8.90002,11.7 8.44,11.78 8.06,11.56 C7.48,11.2 6.84002,11.02 6.20002,11.02 Z" id="Shape" fill="#529393"></path>
                <path d="M5.94008,25.0396 C6.24008,24.4596 6.98008,24.2396 7.56008,24.5396 C8.14008,24.8396 8.36008,25.5796 8.06008,26.1596 L4.54006,32.8796 C4.32006,33.2796 3.92006,33.5196 3.48006,33.5196 C3.28006,33.5196 3.10006,33.4796 2.92006,33.3796 C2.34006,33.0796 2.12006,32.3396 2.42006,31.7596 L5.94008,25.0396 Z M19.3402,24.5396 C18.7602,24.2396 18.02,24.4596 17.72,25.0396 L14.2,31.7596 C13.9,32.3396 14.12,33.0796 14.7,33.3796 C14.88,33.4796 15.06,33.5196 15.26,33.5196 C15.7,33.5196 16.1,33.2796 16.32,32.8796 L19.8402,26.1596 C20.1602,25.5796 19.9402,24.8396 19.3402,24.5396 Z M30.52,24.5396 C29.94,24.2396 29.2,24.4596 28.9,25.0396 L25.38,31.7596 C25.08,32.3396 25.3,33.0796 25.88,33.3796 C26.06,33.4796 26.24,33.5196 26.44,33.5196 C26.88,33.5196 27.28,33.2796 27.5,32.8796 L31.02,26.1596 C31.34,25.5796 31.12,24.8396 30.52,24.5396 Z" id="Shape" fill-opacity="0.3" fill="#000000"></path>
            </g>
        </g>
    </g>
</svg>