<?xml version="1.0" encoding="UTF-8"?>
<svg width="315px" height="175px" viewBox="0 0 315 175" version="1.1" xmlns="http://www.w3.org/2000/svg" xmlns:xlink="http://www.w3.org/1999/xlink">
    <!-- Generator: Sketch 57.1 (83088) - https://sketch.com -->
    <title>Group 2</title>
    <desc>Created with Sketch.</desc>
    <g id="Page-1" stroke="none" stroke-width="1" fill="none" fill-rule="evenodd">
        <g id="Survey-Challenge-2" transform="translate(-29.000000, -507.000000)">
            <g id="Group-2" transform="translate(29.000000, 507.000000)">
                <g id="Couch-(3)" transform="translate(0.000000, 31.000000)">
                    <path d="M311.257834,142.555414 C311.257834,143.615694 243.148127,144 158.965452,144 C74.7823185,144 0,142.946599 0,141.886318 C0,141.389197 16.4540637,133.58614 42.6139108,133.290344 C72.2242548,132.956025 105.654268,133.290344 150.349758,133.290344 C193.386038,133.290344 237.231745,132.807898 264.91414,133.290803 C291.381248,133.752153 311.257834,142.037197 311.257834,142.555414 Z" id="Path" fill-opacity="0.07" fill="#000000" fill-rule="nonzero"></path>
                    <path d="M30.6444841,15.1910828 C30.6444841,6.80147771 37.4455032,0 45.8355669,0 L268.523771,0 C276.913834,0 283.714854,6.80147771 283.714854,15.1910828 L283.714854,59.5765605 L303.006268,59.5765605 C305.503338,59.5765605 307.527592,61.6008153 307.527592,64.0974268 L307.527592,128.82451 C307.527592,129.823338 306.718166,130.633223 305.719338,130.633223 L284.388535,130.633223 L284.388535,141.969325 L277.282548,141.969325 L277.282548,130.633223 L276.395159,130.633223 C276.377274,130.635057 276.358471,130.635975 276.340127,130.635975 L36.7837452,130.635975 L36.7837452,141.969325 L29.677758,141.969325 L29.677758,130.633223 L8.34741401,130.633223 C7.34858599,130.633223 6.53870064,129.823338 6.53870064,128.82451 L6.53870064,64.0978854 C6.53870064,61.6008153 8.56295541,59.5765605 11.0600255,59.5765605 L30.6444841,59.5765605 L30.6444841,15.1910828 Z" id="Path" fill="#FFD06F"></path>
                    <path d="M46.1896051,0 C37.7995414,0 30.9985223,6.80147771 30.9985223,15.1910828 L30.9985223,59.5793121 L34.769121,59.5793121 C42.3158217,59.5793121 48.4339873,65.6974777 48.4339873,73.2441783 L48.4339873,82.5363057 L266.341299,82.5363057 L266.341299,73.2441783 C266.341299,65.6970191 272.459006,59.5793121 280.006166,59.5793121 L284.068892,59.5793121 L284.068892,15.1910828 C284.068892,6.80147771 277.267873,0 268.877809,0 L46.1896051,0 Z" id="Path" fill-opacity="0.05" fill="#000000"></path>
                    <path d="M98.7821656,39.3032866 L100.004331,41.838879 L102.539465,43.0610446 L104.278471,43.8989045 L102.539465,44.7372229 L100.004331,45.9593885 L98.7821656,48.4949809 L97.9438471,50.2335287 L97.1055287,48.4949809 L95.8833631,45.9593885 L93.3482293,44.7372229 L91.6096815,43.8989045 L93.3482293,43.0610446 L95.8833631,41.838879 L97.1055287,39.3032866 L97.9438471,37.5647389 L98.7821656,39.3032866 Z M99.348535,43.1990828 L100.800917,43.8989045 L99.348535,44.5991847 L98.8734268,44.8284841 L98.6441274,45.3035924 L97.9438471,46.7559745 L97.2435669,45.3035924 L97.0147261,44.8284841 L96.5391592,44.5991847 L95.0867771,43.8989045 L96.5391592,43.1990828 L97.0147261,42.9697834 L97.2435669,42.4946752 L97.9438471,41.042293 L98.6441274,42.4946752 L98.8734268,42.9697834 L99.348535,43.1990828 Z M156.543134,39.3032866 L157.765758,41.838879 L160.300892,43.0610446 L162.039439,43.8989045 L160.300892,44.7372229 L157.765758,45.9593885 L156.543134,48.4949809 L155.705274,50.2335287 L154.866955,48.4949809 L153.64479,45.9593885 L151.109656,44.7372229 L149.37065,43.8989045 L151.109656,43.0610446 L153.64479,41.838879 L154.866955,39.3032866 L155.705274,37.5647389 L156.543134,39.3032866 Z M157.109962,43.1990828 L158.562344,43.8989045 L157.109962,44.5991847 L156.634395,44.8284841 L156.405096,45.3035924 L155.705274,46.7559745 L155.004994,45.3035924 L154.775694,44.8284841 L154.300586,44.5991847 L152.848204,43.8989045 L154.300586,43.1990828 L154.775694,42.9697834 L155.004994,42.4946752 L155.705274,41.042293 L156.405096,42.4946752 L156.634395,42.9697834 L157.109962,43.1990828 Z M215.526268,41.838879 L214.304102,39.3032866 L213.466242,37.5647389 L212.627924,39.3032866 L211.405758,41.838879 L208.870624,43.0610446 L207.131618,43.8989045 L208.870624,44.7372229 L211.405758,45.9593885 L212.627924,48.4949809 L213.466242,50.2335287 L214.304102,48.4949809 L215.526268,45.9593885 L218.06186,44.7372229 L219.800408,43.8989045 L218.06186,43.0610446 L215.526268,41.838879 Z M216.322854,43.8989045 L214.87093,43.1990828 L214.395363,42.9697834 L214.166064,42.4946752 L213.466242,41.042293 L212.765962,42.4946752 L212.536662,42.9697834 L212.061554,43.1990828 L210.609172,43.8989045 L212.061554,44.5991847 L212.536662,44.8284841 L212.765962,45.3035924 L213.466242,46.7559745 L214.166064,45.3035924 L214.395363,44.8284841 L214.87093,44.5991847 L216.322854,43.8989045 Z M29.7836943,132.147516 L33.8688917,132.147516 L33.8688917,140.460076 L29.7836943,140.460076 L29.7836943,132.147516 Z M28.2735287,130.63735 L29.7836943,130.63735 L33.8688917,130.63735 L35.3790573,130.63735 L35.3790573,132.147516 L35.3790573,140.460076 L35.3790573,141.970242 L33.8688917,141.970242 L29.7836943,141.970242 L28.2735287,141.970242 L28.2735287,140.460076 L28.2735287,132.147516 L28.2735287,130.63735 Z M281.47414,132.147057 L277.388484,132.147057 L277.388484,140.460076 L281.47414,140.460076 L281.47414,132.147057 Z M277.388484,130.63735 L275.878318,130.63735 L275.878318,132.147057 L275.878318,140.460076 L275.878318,141.970242 L277.388484,141.970242 L281.47414,141.970242 L282.983847,141.970242 L282.983847,140.460076 L282.983847,132.147057 L282.983847,130.63735 L281.47414,130.63735 L277.388484,130.63735 Z M41.7430318,130.447032 L47.6552866,130.447032 L47.6552866,133.950268 L41.7430318,133.950268 L41.7430318,130.447032 Z M266.411006,130.447032 L272.323261,130.447032 L272.323261,133.950268 L266.411006,133.950268 L266.411006,130.447032 Z" id="Shape" fill="#28323F"></path>
                </g>
                <g id="Character-41" transform="translate(43.000000, 0.000000)">
                    <path d="M226.572455,44.13067 L225.817361,43.19943 L225.505839,42.81844 L225.355502,43.21059 L225.249181,43.48928 L224.901082,44.3982 L225.121163,44.36162 L225.124572,44.36162 L225.161459,44.3579 L226.572455,44.13067 Z M237.829738,45.78359 L235.802826,45.01355 L236.150925,47.15441 L237.829738,45.78359 Z M234.109134,58.69912 L236.711666,57.83019 L234.659026,56.00832 L234.109134,58.69912 Z M227.408452,75.85886 L229.179017,74.60863 L229.314785,76.07152 L229.377089,76.76809 L229.02868,76.60658 L227.408452,75.85886 Z M225.38123,63.29022 L227.349867,64.19573 L227.151794,62.03627 L225.38123,63.29022 Z M227.104059,88.46253 L225.135731,87.55702 L226.906296,86.30679 L227.104059,88.46253 Z M220.762635,50.3378 L220.714899,50.37438 L219.083822,51.70893 L218.735723,49.56807 L220.597729,50.27549 L220.762635,50.3378 Z M219.421073,56.2371 L219.325601,56.30313 L217.650508,57.48733 L219.618835,58.39656 L219.435641,56.38001 L219.421073,56.2371 Z M216.206345,100.44806 C216.411547,100.17309 216.59505,99.88355 216.759956,99.57541 L216.94315,99.23472 L217.089767,100.85509 L216.206345,100.44806 Z M213.2957,79.44928 L214.406332,77.37445 L211.906402,78.26508 L213.2957,79.44928 Z M208.314127,68.40336 L205.143415,69.51781 L205.76646,66.21476 L208.314127,68.40336 Z M196.404662,97.72068 L196.045403,99.62687 L198.677072,98.70307 L196.404662,97.72068 Z M187.596164,104.88385 L185.627527,103.97462 L187.398092,102.7247 L187.596164,104.88385 Z M229.25217,48.30296 C229.068976,48.33241 228.944367,48.50818 228.977224,48.68798 C229.006672,48.8529 229.145849,48.96667 229.307345,48.96667 L229.36593,48.96295 L231.451737,48.59994 C231.634931,48.57049 231.755821,48.39472 231.722963,48.21151 C231.693516,48.02799 231.521171,47.90709 231.334258,47.94026 L229.25217,48.30296 Z M230.39969,67.23435 C230.560875,67.14631 230.766077,67.20862 230.85411,67.37013 L231.869581,69.22858 C231.957613,69.39009 231.898718,69.59531 231.733812,69.68335 C231.682667,69.71249 231.627492,69.72365 231.572627,69.72365 C231.455457,69.72365 231.341697,69.66134 231.279392,69.54757 L230.263921,67.69253 C230.175889,67.52761 230.234784,67.32611 230.39969,67.23435 Z M229.926671,67.87512 C229.834919,67.71392 229.633437,67.65502 229.468531,67.74306 C229.307035,67.8311 229.24845,68.03632 229.336483,68.19783 L230.348234,70.05628 C230.410539,70.16633 230.527708,70.23236 230.645188,70.23236 C230.700053,70.23236 230.755228,70.21748 230.806374,70.18834 C230.96787,70.1003 231.030174,69.89508 230.938422,69.73357 L229.926671,67.87512 Z M229.186146,47.92166 L229.127561,47.92507 C228.966375,47.92507 228.823478,47.81161 228.79775,47.64669 C228.764583,47.46317 228.885782,47.29112 229.068976,47.25795 L229.607709,47.16278 L231.154783,46.89494 C231.337977,46.86208 231.510322,46.9867 231.543179,47.16991 C231.565187,47.29825 231.514042,47.41915 231.41857,47.49262 C231.374554,47.52548 231.327128,47.54749 231.268233,47.55865 L229.186146,47.92166 Z M231.242816,57.09766 L229.197305,57.63303 C229.109273,57.65504 229.039529,57.70991 228.995823,57.78338 C228.948087,57.85654 228.929798,57.95202 228.955216,58.04347 C228.995823,58.19382 229.131281,58.29643 229.281618,58.29643 L229.36593,58.28558 L229.747197,58.18669 L231.41485,57.75021 C231.594635,57.70278 231.700955,57.51926 231.65322,57.33977 C231.605484,57.15997 231.42229,57.05364 231.242816,57.09766 Z M229.098424,57.25948 L229.014111,57.27033 C228.863774,57.27033 228.728006,57.17144 228.68771,57.02109 C228.639974,56.84129 228.750014,56.65808 228.929798,56.61034 L230.974999,56.07528 C231.154783,56.03126 231.337977,56.13387 231.385713,56.31708 C231.433139,56.49316 231.323408,56.68009 231.143624,56.72411 L229.098424,57.25948 Z M221.627769,70.51136 C221.440855,70.49276 221.27936,70.62482 221.257351,70.80803 L221.030141,72.91231 C221.008133,73.09583 221.140182,73.26447 221.327095,73.28276 L221.363982,73.28648 C221.532297,73.28648 221.678914,73.15814 221.697513,72.98578 L221.924723,70.8815 C221.946731,70.69829 221.814683,70.53337 221.627769,70.51136 Z M220.205304,70.69426 C220.227312,70.51105 220.388808,70.37899 220.575721,70.39759 C220.762635,70.41588 220.894373,70.58452 220.872675,70.76773 L220.645155,72.87201 C220.626867,73.04437 220.48025,73.17271 220.311624,73.17271 L220.275048,73.16899 C220.088134,73.1507 219.956086,72.98206 219.978094,72.79854 L220.205304,70.69426 Z M216.987166,63.99299 C216.928581,64.015 216.873406,64.0553 216.83311,64.11017 C216.800252,64.16163 216.778244,64.22022 216.774525,64.2754 C216.763676,64.39258 216.814821,64.50976 216.917422,64.57951 L218.413041,65.6208 L218.449618,65.64622 L218.625682,65.3201 L218.76858,65.04885 L217.298689,64.02616 C217.203527,63.96013 217.086047,63.94897 216.987166,63.99299 Z M216.092585,65.17471 C216.198905,65.02064 216.407827,64.98406 216.561883,65.09039 L218.060912,66.13137 L218.156383,66.20112 L217.837421,66.79849 L217.672516,66.68503 L216.176897,65.64374 C216.022841,65.53741 215.986264,65.32847 216.092585,65.17471 Z M210.642023,57.03783 L208.600232,57.38968 C208.420757,57.42254 208.295838,57.5949 208.329006,57.77842 C208.358143,57.94334 208.497631,58.0568 208.658817,58.0568 L208.717401,58.05308 L210.755473,57.69751 C210.938977,57.66465 211.059866,57.49229 211.030419,57.30908 C210.997561,57.12587 210.825217,57.00466 210.642023,57.03783 Z M208.482752,57.03969 C208.332415,57.03969 208.200677,56.9408 208.16007,56.79417 L208.16007,56.79045 C208.157901,56.78611 208.155731,56.78022 208.154181,56.77371 C208.154181,56.77247 208.153871,56.77154 208.153561,56.7703 C208.153561,56.76906 208.153251,56.76782 208.153251,56.76658 L208.152941,56.76348 L208.152941,56.761 C208.119774,56.57779 208.240973,56.40543 208.424167,56.37257 L208.486472,56.36141 L210.462238,56.02072 C210.645432,55.98755 210.821497,56.10845 210.850634,56.29197 C210.883801,56.47518 210.762912,56.64754 210.579408,56.6804 L208.541337,57.03597 L208.482752,57.03969 Z M206.147727,81.43607 L203.420586,81.90882 C203.37657,81.91626 203.332554,81.93455 203.299387,81.95656 C203.233672,82.00058 203.185937,82.06289 203.163929,82.13605 C203.141921,82.18751 203.138201,82.24238 203.14936,82.29756 C203.174778,82.46248 203.317675,82.57594 203.479171,82.57594 L203.537756,82.57222 L206.261177,82.09947 C206.444681,82.0663 206.56557,81.89053 206.536123,81.71073 C206.503266,81.52752 206.330921,81.4029 206.147727,81.43607 Z M203.955599,81.09507 L203.299697,81.20884 L203.240802,81.21225 C203.083336,81.21225 202.940438,81.09879 202.910991,80.93387 C202.881853,80.75035 203.002743,80.5783 203.185937,80.54513 L204.556946,80.30705 L205.909358,80.07238 C206.096581,80.04293 206.268616,80.16383 206.298064,80.34735 C206.330921,80.53056 206.210031,80.70292 206.026837,80.73578 L203.955599,81.09507 Z M198.340132,106.7299 L196.510982,108.80876 C196.389783,108.94795 196.404662,109.16061 196.543839,109.28151 C196.606144,109.33638 196.686737,109.36583 196.76392,109.36583 C196.859082,109.36583 196.950834,109.32553 197.016858,109.25206 L198.846007,107.17351 C198.966897,107.03432 198.952328,106.82166 198.81284,106.70076 C198.677382,106.57614 198.461021,106.59071 198.340132,106.7299 Z M197.302653,105.81757 C197.423542,105.67807 197.636183,105.6635 197.775361,105.7844 C197.914539,105.90933 197.929418,106.12168 197.804809,106.26118 L195.979379,108.33601 C195.913355,108.41289 195.817883,108.44978 195.726441,108.44978 C195.645538,108.44978 195.568665,108.42405 195.502641,108.36887 C195.363463,108.24425 195.352304,108.0319 195.473503,107.8924 L197.302653,105.81757 Z M182.665737,93.06417 L180.979485,92.83663 C180.968636,92.23926 180.950347,91.64158 180.924619,91.05506 L171.295004,86.90881 C170.268684,86.53123 169.484143,86.07677 168.919682,85.58201 C167.845627,85.0981 166.514913,84.47841 165.056181,83.76727 C163.797692,83.15285 162.78718,82.94701 161.860362,82.75822 C161.415551,82.66739 160.989958,82.5809 160.565605,82.45473 C159.315795,82.08831 158.073114,81.38058 156.372293,79.236 C155.943291,78.6935 155.642617,78.20215 155.455704,77.75885 L155.453534,77.75761 C155.003453,77.52325 154.553373,77.2892 154.099572,77.0474 C149.79064,74.7813 145.23776,72.24829 140.697898,69.7221 L140.697898,69.7221 L140.697278,69.72179 C136.512645,67.39369 132.338861,65.07148 128.377719,62.9703 L126.31764,61.63575 C122.655931,58.84234 117.42483,58.84978 113.744522,61.92901 L77.5648061,92.23554 L43.9547643,92.76719 C39.4790669,92.84035 35.7290159,95.821 34.4829252,99.87921 C34.1785319,100.86532 34.0210657,101.91374 34.0379227,103.00246 C34.0796506,105.41829 34.9630731,107.62146 36.4072364,109.33359 C38.2912511,111.56993 41.1250225,112.9702 44.2737263,112.91874 L52.2282486,112.79412 L51.3190983,111.84118 C50.9303924,111.43787 50.9452711,110.79245 51.3519554,110.40402 C51.5500281,110.21709 51.8029659,110.12161 52.0559037,110.12161 C52.3234102,110.12161 52.5909168,110.22794 52.7889894,110.43688 L54.9994055,112.7501 L59.3356151,112.68066 L57.8731634,111.14833 C57.535913,110.79245 57.5030559,110.26111 57.7705624,109.87237 C57.8071392,109.8175 57.854875,109.76232 57.9060205,109.71117 C58.3130148,109.32243 58.9546585,109.33731 59.3430545,109.74403 L59.5042403,109.91267 L62.107082,112.63664 L62.8181596,112.62548 C62.6358956,112.68748 62.4536316,112.74576 62.2716776,112.80404 L62.2682679,112.80528 L65.7284943,116.42701 C66.1172002,116.83404 66.1026315,117.47574 65.6956372,117.86417 C65.4975646,118.05482 65.2446268,118.14658 64.991689,118.14658 C64.7241824,118.14658 64.4566759,118.04025 64.2586033,117.83131 L60.1018679,113.47984 C58.9509389,113.82425 57.7925705,114.1544 56.6487708,114.4768 L59.1744293,117.11986 C59.5631352,117.52689 59.5482565,118.172 59.1415721,118.55702 C58.9472192,118.74767 58.6942814,118.83943 58.4413436,118.83943 C58.173837,118.83943 57.9060205,118.73682 57.7045382,118.52416 L54.4200663,115.08533 C53.5474929,115.32248 52.6879383,115.55281 51.8485319,115.77787 L51.847292,115.77818 C44.8291976,117.65957 39.2121803,119.16524 39.1272478,120.96913 C38.9731913,124.21359 70.5231538,124.24304 77.9315039,123.79571 C80.1564887,121.47877 79.7274864,115.84793 79.2693465,112.69151 C80.8127012,112.91874 82.4034816,112.7904 83.9065398,112.29192 L162.699148,111.04541 C165.576626,112.54488 167.885923,113.44667 169.271502,113.44667 L180.191534,113.44667 C180.11435,112.11956 180.206102,110.15478 180.349,107.81955 C180.390226,107.17289 180.435482,106.4974 180.481978,105.79897 C180.706089,102.45004 180.965536,98.56822 180.986924,94.76142 L181.214134,94.79428 L182.409079,94.95579 L182.453095,94.9592 C182.618001,94.9592 182.764618,94.8383 182.786626,94.66966 C182.812354,94.48273 182.684025,94.31409 182.497111,94.28836 L180.990644,94.08686 C180.990644,93.89621 180.990644,93.70556 180.986924,93.51491 L182.573985,93.73129 L182.621721,93.73501 C182.786626,93.73501 182.929834,93.6138 182.951532,93.44547 C182.977259,93.25823 182.848931,93.08959 182.665737,93.06417 Z M74.6873285,112.43855 C73.9688115,112.58146 73.210308,112.61835 72.4623437,112.47172 C71.3774388,112.26278 70.303383,111.6651 69.3905131,110.4406 C70.0504452,109.36645 70.8861319,108.30346 71.8061312,107.38338 C72.1362523,108.01733 72.5392169,108.62245 73.0159551,109.19409 C73.9982589,110.36372 75.1894844,111.25807 76.4873406,111.85947 C75.9411685,112.09755 75.3289722,112.31021 74.6873285,112.43855 Z M109.565779,91.7259 L120.95852,82.18348 L121.108856,82.28237 L121.112576,82.28237 C121.911686,82.90206 126.761211,86.65585 133.139521,91.35204 L109.565779,91.7259 Z M26.1031203,99.7146 C26.1620151,99.7549 26.2168803,99.79179 26.2754651,99.82837 C23.9956151,105.53268 29.6330906,109.04095 29.6330906,109.04095 C29.6330906,109.04095 29.5893844,109.08125 29.5047619,109.15813 C28.5776332,110.01962 22.7417751,115.2363 18.6767917,114.48858 C14.3036953,108.65965 -2.4373162,81.81024 0.300983598,80.1753 C1.82790966,79.267 6.38327006,83.31405 11.9711499,88.27808 C12.9698823,89.1653 14.0017818,90.08166 15.0550694,91.00453 L13.8672536,95.2568 C13.691499,95.88393 14.0578869,96.53276 14.6812422,96.70853 C14.7875628,96.73798 14.8935735,96.74883 14.9998942,96.74883 C15.5132092,96.74883 15.9862277,96.41186 16.1291252,95.89106 L17.019677,92.7055 C18.0425873,93.58156 19.0797563,94.44677 20.1172353,95.28997 L18.4201342,101.3607 C18.2440696,101.9838 18.6107675,102.63294 19.2338128,102.80871 C19.3401335,102.83816 19.4464542,102.85273 19.5527748,102.85273 C20.0657798,102.85273 20.5387984,102.51173 20.6816958,101.99124 L22.1150101,96.8626 C23.4565724,97.89645 24.7910054,98.86055 26.1031203,99.7146 Z" id="Shape" fill="#1B5C6A"></path>
                    <path d="M238.775775,52.34319 C238.775775,52.34319 238.775775,52.33947 238.775775,52.33575 C238.684023,48.25553 237.833457,45.18343 236.634793,42.50379 C233.687881,42.37545 229.355081,41.1618 227.269274,40.73307 C227.159234,40.71106 227.052913,40.68905 226.954032,40.67076 C226.477604,40.58272 226.070609,40.53126 225.725919,40.51669 C225.681903,40.51297 225.641607,40.51297 225.60503,40.51297 C223.904209,40.47267 223.805328,41.3819 224.080274,43.10488 C224.23402,44.08014 223.424061,45.5793 222.456326,46.93586 C220.780923,46.93214 218.908068,47.04932 217.39416,47.1851 C214.883071,47.03847 212.361132,48.16036 210.817777,50.37438 L199.601101,66.47888 L200.367044,67.01425 L201.961854,68.12498 C201.917838,68.29734 201.873822,68.47311 201.833525,68.64919 C199.601101,78.27221 196.302061,81.83566 192.467697,81.83566 C190.220704,81.83566 188.431851,82.36731 185.154818,82.34158 L192.438559,84.58877 L199.61195,86.79566 L207.991755,89.38013 L213.2957,79.44897 L211.906712,78.26508 L214.406642,77.37414 L215.605307,75.12695 L226.664517,81.03276 L216.94315,99.2341 L217.089767,100.85447 L216.206345,100.44775 C214.402923,102.88187 211.173316,103.89371 208.251822,102.82328 L202.69122,100.42946 L198.677382,98.70276 L196.045403,99.62656 L196.404662,97.72006 L180.924619,91.05537 C180.950347,91.64189 180.968636,92.23957 180.979795,92.83725 L182.665737,93.06448 C182.849241,93.09021 182.977569,93.25885 182.951842,93.44578 C182.929834,93.61442 182.786936,93.73532 182.622031,93.73532 L182.574295,93.7316 L180.986924,93.51522 C180.990644,93.70587 180.990644,93.89652 180.990644,94.08717 L182.497111,94.28898 C182.684335,94.3144 182.812354,94.48304 182.786936,94.66997 C182.764928,94.83861 182.618311,94.95982 182.453405,94.95982 L182.409389,94.9561 L181.214134,94.7949 L180.986924,94.76173 C180.961196,99.36244 180.587369,104.0732 180.34931,107.81986 C180.206102,110.15509 180.11466,112.12018 180.191534,113.44698 C180.264997,114.62746 180.470199,115.30574 180.895482,115.30574 C205.979102,115.30574 223.240557,103.00277 228.222131,92.86267 C229.875525,89.50103 232.140807,84.78655 234.27435,79.72766 C233.944229,79.26204 233.650994,78.73411 233.401776,78.14046 C232.756723,76.60782 232.745564,74.93258 233.097693,73.14729 C233.753595,69.80022 235.678216,66.061 237.100372,62.11656 C237.8006,60.18464 238.37622,58.20126 238.621718,56.19587 C238.654575,55.93206 238.680303,55.67166 238.702311,55.40785 C238.71347,55.27579 238.7206,55.14373 238.728039,55.01198 C238.779184,54.07702 238.794063,53.1898 238.775775,52.34319 Z M185.627837,103.97431 L187.398092,102.72408 L187.596164,104.88354 L185.627837,103.97431 Z M195.726441,108.4504 C195.645848,108.4504 195.568975,108.42467 195.502951,108.3698 C195.363463,108.24518 195.352614,108.03252 195.473503,107.89333 L197.302653,105.81819 C197.423542,105.679 197.636183,105.66443 197.775671,105.78533 C197.914849,105.90995 197.929418,106.12261 197.804809,106.2618 L195.979379,108.33663 C195.913355,108.41382 195.818193,108.4504 195.726441,108.4504 Z M198.846007,107.17475 L197.016858,109.2533 C196.950834,109.32646 196.859082,109.36676 196.76392,109.36676 C196.687047,109.36676 196.606144,109.33762 196.543839,109.28244 C196.404662,109.16154 196.390093,108.94888 196.510982,108.80969 L198.340132,106.73114 C198.461021,106.59164 198.677382,106.57707 198.81284,106.70169 C198.952328,106.82259 198.966897,107.03525 198.846007,107.17475 Z M237.829738,45.78483 L236.150925,47.15565 L235.802826,45.01479 L237.829738,45.78483 Z M231.143934,56.7238 L229.098424,57.25917 L229.014111,57.27002 C228.863774,57.27002 228.728006,57.17113 228.68771,57.02078 C228.640284,56.84129 228.750014,56.65777 228.929798,56.61034 L230.975309,56.07497 C231.154783,56.03095 231.337977,56.13356 231.385713,56.31708 C231.433449,56.49285 231.323408,56.67978 231.143934,56.7238 Z M231.65322,57.33977 C231.700955,57.51926 231.594635,57.70278 231.41516,57.75021 L229.747197,58.18669 L229.36593,58.28558 L229.281618,58.29643 C229.131281,58.29643 228.995823,58.19382 228.955526,58.04347 C228.929798,57.95202 228.948087,57.85654 228.995823,57.78338 C229.039839,57.70991 229.109273,57.65504 229.197305,57.63303 L231.242816,57.09766 C231.42229,57.05395 231.605794,57.15997 231.65322,57.33977 Z M229.179017,74.61018 L229.314785,76.07276 L229.377089,76.76933 L229.02868,76.60782 L227.408452,75.8601 L229.179017,74.61018 Z M229.336793,68.19814 C229.24876,68.03694 229.307345,67.83172 229.468531,67.74368 C229.633437,67.65564 229.835229,67.71454 229.926671,67.87574 L230.938422,69.73419 C231.030174,69.8957 230.96787,70.10092 230.806684,70.18896 C230.755228,70.2181 230.700363,70.23298 230.645188,70.23298 C230.528018,70.23298 230.410539,70.16695 230.348234,70.0569 L229.336793,68.19814 Z M230.263921,67.69253 C230.176199,67.5273 230.234784,67.3258 230.39969,67.23404 C230.560875,67.146 230.766077,67.20862 230.85411,67.36982 L231.869581,69.22858 C231.957613,69.38978 231.899028,69.595 231.733812,69.68304 C231.682667,69.71218 231.627802,69.72334 231.572627,69.72334 C231.455457,69.72334 231.341697,69.66103 231.279392,69.54726 L230.263921,67.69253 Z M231.722963,48.21151 C231.755821,48.39472 231.634931,48.5708 231.451737,48.60025 L229.36593,48.96295 L229.307345,48.96667 C229.146159,48.96667 229.006672,48.85321 228.977534,48.68798 C228.944367,48.50849 229.068976,48.33241 229.25217,48.30327 L231.334258,47.94026 C231.521481,47.9074 231.693516,48.0283 231.722963,48.21151 Z M229.068976,47.25826 L229.608019,47.16309 L231.154783,46.89556 C231.337977,46.86239 231.510322,46.98701 231.543179,47.17053 C231.565497,47.29887 231.514042,47.41977 231.41857,47.49293 C231.374864,47.5261 231.327128,47.54811 231.268543,47.55896 L229.186456,47.92197 L229.127561,47.92569 C228.966375,47.92569 228.823478,47.81192 228.79775,47.647 C228.764893,47.46379 228.885782,47.29143 229.068976,47.25826 Z M225.249491,43.4899 L225.355812,43.21121 L225.506149,42.81906 L225.817671,43.20005 L226.572765,44.13129 L225.161459,44.35852 L225.124882,44.36224 L225.121163,44.36224 L224.901082,44.39882 L225.249491,43.4899 Z M220.762635,50.3378 L220.715209,50.37438 L219.083822,51.70893 L218.735723,49.56807 L220.597729,50.27549 L220.762635,50.3378 Z M219.325911,56.3022 L219.421073,56.23617 L219.435641,56.37939 L219.619145,58.39563 L217.650508,57.4864 L219.325911,56.3022 Z M208.152941,56.76069 C208.120084,56.57717 208.240973,56.40481 208.424167,56.37195 L208.486472,56.36079 L210.462238,56.0201 C210.645742,55.98693 210.821497,56.10814 210.850944,56.29135 C210.883801,56.47456 210.762912,56.64692 210.579718,56.67978 L208.541647,57.03535 L208.482752,57.03907 C208.332725,57.03907 208.200677,56.94018 208.16038,56.79355 C208.16038,56.79355 208.16038,56.79355 208.16038,56.78983 C208.156661,56.78239 208.152941,56.77154 208.152941,56.76069 Z M202.910991,80.93387 C202.881853,80.75066 203.002743,80.5783 203.185937,80.54513 L204.556946,80.30705 L205.909668,80.07238 C206.096581,80.04293 206.268926,80.16383 206.298064,80.34735 C206.331231,80.53056 206.210341,80.70292 206.026837,80.73578 L203.955909,81.09507 L203.299697,81.20884 L203.241112,81.21225 C203.083336,81.21225 202.940438,81.09879 202.910991,80.93387 Z M206.261487,82.09947 L203.538066,82.57253 L203.479171,82.57625 C203.317985,82.57625 203.175088,82.46248 203.14936,82.29756 C203.138511,82.24269 203.141921,82.18751 203.163929,82.13636 C203.185937,82.06289 203.233672,82.00058 203.299697,81.95656 C203.332554,81.93455 203.37657,81.91626 203.420586,81.90882 L206.147727,81.43607 C206.331231,81.4029 206.503576,81.52783 206.536433,81.71104 C206.56588,81.89053 206.444681,82.06661 206.261487,82.09947 Z M205.143415,69.51812 L205.76677,66.21507 L208.314127,68.40367 L205.143415,69.51812 Z M210.755473,57.69906 L208.717401,58.05463 L208.658817,58.05835 C208.497631,58.05835 208.358143,57.94458 208.329006,57.77966 C208.295838,57.59645 208.420448,57.42409 208.600232,57.39092 L210.642023,57.03907 C210.825217,57.00621 210.997561,57.12711 211.030419,57.31032 C211.059866,57.49384 210.938977,57.66589 210.755473,57.69906 Z M217.837421,66.79787 L217.672516,66.68441 L216.176897,65.64312 C216.023151,65.53679 215.986574,65.32785 216.092585,65.17378 C216.198905,65.02002 216.407827,64.98313 216.561883,65.08946 L218.061222,66.13075 L218.156383,66.2005 L217.837421,66.79787 Z M218.625682,65.32041 L218.449618,65.64684 L218.413041,65.62111 L216.917422,64.58013 C216.814821,64.51038 216.763676,64.3932 216.774525,64.27571 C216.778244,64.22084 216.800252,64.16194 216.83311,64.11079 C216.873406,64.05561 216.928581,64.01531 216.987166,63.9933 C217.086047,63.94959 217.203527,63.96044 217.298689,64.02647 L218.76858,65.04916 L218.625682,65.32041 Z M220.645465,72.87232 C220.627177,73.04468 220.48056,73.17302 220.311934,73.17302 L220.275048,73.1693 C220.088134,73.15101 219.956396,72.98237 219.978404,72.79916 L220.205614,70.69488 C220.227622,70.51136 220.388808,70.37961 220.575721,70.3979 C220.762635,70.41619 220.894683,70.58483 220.872675,70.76804 L220.645465,72.87232 Z M221.697513,72.98609 C221.679224,73.15845 221.532607,73.28648 221.363982,73.28648 L221.327095,73.28307 C221.140182,73.26447 221.008443,73.09614 221.030451,72.91262 L221.257661,70.80834 C221.27967,70.62513 221.440855,70.49307 221.627769,70.51136 C221.814683,70.53337 221.946731,70.6986 221.924723,70.88181 L221.697513,72.98609 Z M225.38154,63.2896 L227.151794,62.03596 L227.349867,64.19511 L225.38154,63.2896 Z M225.135731,87.55826 L226.906296,86.30803 L227.104369,88.46377 L225.135731,87.55826 Z M234.109134,58.69974 L234.659026,56.00894 L236.711976,57.83112 L234.109134,58.69974 Z" id="Shape" fill="#F8F8F8" fill-rule="nonzero"></path>
                    <path d="M269.995616,72.27092 C267.360847,67.47212 266.795767,50.51698 263.276646,42.83673 C259.757834,35.15679 256.652837,35.35829 253.76451,18.93108 C250.809849,2.14117 234.420967,-2.80798 226.503021,1.44088 C206.151447,-3.82695 210.56143,18.93108 210.56143,18.93108 C210.56143,18.93108 211.294515,18.67099 213.013625,18.46918 C215.509836,18.17964 220.081005,18.00728 227.511053,18.93108 C227.793438,24.56223 229.068976,28.52124 230.670916,31.81716 C231.055902,32.61262 231.462586,33.36778 231.8733,34.10093 C233.511817,36.98982 235.289511,39.50082 236.634793,42.50317 C237.833457,45.18312 238.684023,48.25522 238.775775,52.33544 C238.775775,52.33916 238.775775,52.34257 238.775775,52.34257 C238.794063,53.18949 238.779184,54.07671 238.728039,55.01136 C238.7206,55.14342 238.71347,55.27548 238.702311,55.40754 C238.680303,55.67135 238.654575,55.93175 238.621718,56.19556 C238.37622,58.20095 237.8006,60.18402 237.100372,62.11594 C235.678216,66.06069 233.753595,69.79991 233.097693,73.14698 C232.745564,74.93227 232.756723,76.60751 233.401776,78.13984 C233.650994,78.7338 233.944229,79.26173 234.27435,79.72735 C237.320452,84.0348 243.639868,83.2319 251.132531,83.2319 C256.022352,83.2319 277.565152,86.04732 269.995616,72.27092 Z" id="Path" fill="#FF5E5E" fill-rule="nonzero"></path>
                    <path d="M230.377681,34.95095 L230.520579,34.89236 C229.93752,36.11655 228.511645,38.60957 227.268964,40.73214 C227.159234,40.71013 227.052913,40.68812 226.953722,40.66983 C226.477294,40.58179 226.070299,40.53033 225.725919,40.51576 C225.883386,39.18152 225.978857,37.94586 225.989706,36.94518 C225.989706,36.94146 225.989706,36.93774 225.989706,36.93433 C226.004585,36.80599 226.011714,36.73624 226.011714,36.73624 L226.576175,36.50529 C227.99492,36.06168 229.25961,35.53003 230.377681,34.95095 Z" id="Path" fill="#080E12" fill-rule="nonzero"></path>
                    <path d="M226.576485,36.5056 L230.377681,34.95126 C229.25961,35.53065 227.99492,36.06199 226.576485,36.5056 Z" id="Path" fill="#080E12" fill-rule="nonzero"></path>
                    <path d="M225.990016,36.94611 C225.978857,37.94679 225.883696,39.18214 225.725919,40.51669 C225.681903,40.51297 225.641607,40.51297 225.60503,40.51297 C225.773655,38.98436 225.934841,37.48489 225.990016,36.94611 Z" id="Path" fill="#080E12" fill-rule="nonzero"></path>
                    <path d="M216.990886,30.33567 L217.936613,30.57778 C217.73482,31.37324 216.605899,32.95331 214.391764,33.04507 C214.351467,32.71864 214.31861,32.39252 214.281723,32.06609 C215.975415,32.02951 216.855118,30.87848 216.990886,30.33567 Z" id="Path" fill="#080E12" fill-rule="nonzero"></path>
                    <path d="M214.919647,28.78226 C214.861063,28.99864 214.66671,29.14527 214.450349,29.14527 C214.406332,29.14527 214.366036,29.13783 214.32202,29.12667 C214.234298,29.10466 214.109688,29.06808 213.963071,29.02406 C213.926185,28.66849 213.889608,28.31292 213.856751,27.95735 C214.098529,28.04539 214.344028,28.12227 214.574958,28.18458 C214.835335,28.25433 214.989391,28.52186 214.919647,28.78226 Z" id="Path" fill="#080E12" fill-rule="nonzero"></path>
                    <path d="M214.839054,22.70409 C214.725294,23.9506 214.182842,24.92555 213.63667,25.67358 C213.585524,25.11248 213.534069,24.56285 213.486333,24.02376 C213.676966,23.60588 213.819864,23.13654 213.8676,22.61605 C213.893327,22.34852 214.127977,22.14671 214.399203,22.17244 C214.66671,22.19817 214.864782,22.43656 214.839054,22.70409 Z" id="Path" fill="#080E12" fill-rule="nonzero"></path>
                    <path d="M214.281723,32.06578 C214.3183,32.3919 214.351467,32.71802 214.391764,33.04445 C214.325739,33.04817 214.259715,33.04817 214.193691,33.04817 C214.157114,33.04817 214.120537,33.04445 214.080241,33.04445 L214.102249,32.06919 C214.164554,32.06919 214.223138,32.06919 214.281723,32.06578 Z" id="Path" fill="#080E12" fill-rule="nonzero"></path>
                    <path d="M213.486333,24.02376 C213.534069,24.56254 213.585524,25.11248 213.63667,25.67327 C213.40574,25.98854 213.17481,26.26351 212.973328,26.5019 C212.771536,26.7437 212.50031,27.06641 212.434285,27.21676 C212.61407,27.43655 213.215107,27.72981 213.856751,27.95735 C213.889608,28.31292 213.926185,28.66849 213.963071,29.02406 C213.226266,28.80024 211.913841,28.31633 211.543734,27.63464 C211.232211,27.05897 211.69407,26.50903 212.225364,25.87508 C212.636078,25.38745 213.141953,24.78264 213.486333,24.02376 Z" id="Path" fill="#080E12" fill-rule="nonzero"></path>
                    <g id="Group" opacity="0.06" transform="translate(199.312516, 46.810000)" fill="#000000" fill-rule="nonzero">
                        <path d="M36.3619804,5.23652 C36.2042042,5.14135 36.0430183,5.04618 35.8781128,4.95814 C35.123019,4.55483 34.3310385,4.27986 33.5319286,4.12951 C32.2601102,3.88771 30.9662837,3.95715 29.7490204,4.30187 C27.8907334,4.8298 26.2227698,6.01028 25.1084175,7.72582 C24.9800888,7.92391 24.8591994,8.12541 24.7454393,8.33807 L23.0117614,11.58253 L19.4560633,18.23978 L19.3131659,18.51103 L19.1371013,18.83746 L18.843867,19.39081 L18.524905,19.98849 L14.5662423,27.39718 L16.2924808,28.31757 L27.3516907,34.22338 L29.0782393,35.14718 L33.7848664,26.33791 C34.4410789,22.99084 36.3657,19.25162 37.7878553,15.30687 C38.4880839,13.37495 39.0633934,11.39188 39.3092018,9.38649 C39.3420589,9.12268 39.3677867,8.86228 39.3897948,8.59847 C38.7335823,7.25276 37.7072623,6.07631 36.3619804,5.23652 Z M21.3329487,26.06294 C21.3146603,26.2353 21.1680432,26.36364 20.9994179,26.36364 L20.9625312,26.35992 C20.7756176,26.34163 20.6435692,26.17299 20.6655772,25.98947 L20.8930973,23.88519 C20.9151053,23.70198 21.0762912,23.56992 21.2632048,23.58852 C21.4501184,23.60681 21.5821668,23.77545 21.5601588,23.95866 L21.3329487,26.06294 Z M22.3849964,26.17671 C22.366708,26.34876 22.2197809,26.4771 22.0514657,26.4771 L22.0145789,26.47338 C21.8276653,26.45509 21.6956169,26.28645 21.7176249,26.10324 L21.945145,23.99896 C21.9671531,23.81575 22.1283389,23.68369 22.3152525,23.70198 C22.5021661,23.72399 22.6342145,23.88891 22.6122065,24.07243 L22.3849964,26.17671 Z M32.3407031,10.53039 C32.3884389,10.70988 32.2821182,10.89309 32.102334,10.94083 L30.4346803,11.377 L30.0534137,11.4762 L29.9691011,11.48705 C29.8187643,11.48705 29.6833062,11.38444 29.6426998,11.23409 C29.617282,11.14264 29.6355704,11.04716 29.6833062,10.974 C29.7270124,10.90053 29.7967562,10.84566 29.8847885,10.82365 L31.9302991,10.28828 C32.1097734,10.24426 32.2929673,10.35059 32.3407031,10.53039 Z M29.617282,9.80065 L31.6624826,9.26559 C31.8422668,9.22157 32.0254607,9.32418 32.0731966,9.50739 C32.1209324,9.68347 32.010892,9.8704 31.8311078,9.91442 L29.7859072,10.44948 L29.7015946,10.46064 C29.5512578,10.46064 29.4154897,10.36175 29.3751932,10.2114 C29.3274574,10.0316 29.4374978,9.84839 29.617282,9.80065 Z M26.0687133,16.48022 L27.839278,15.22627 L28.0373506,17.38573 L26.0687133,16.48022 Z M29.7161633,29.79844 L28.0959354,29.05072 L29.8665001,27.80049 L30.0019582,29.26338 L30.0642628,29.95995 L29.7161633,29.79844 Z M31.4938574,23.37958 C31.4427119,23.40872 31.3875367,23.42329 31.3326715,23.42329 C31.2155018,23.42329 31.0980221,23.35757 31.0357176,23.24752 L30.0239663,21.38876 C29.936244,21.22756 29.9948289,21.02234 30.1560147,20.9343 C30.3209203,20.84626 30.5227126,20.90485 30.6141545,21.06636 L31.6259058,22.92481 C31.7176577,23.08601 31.6553532,23.29154 31.4938574,23.37958 Z M32.421296,22.87366 C32.3701505,22.9028 32.3149754,22.91396 32.2601102,22.91396 C32.1429404,22.91396 32.0291804,22.85165 31.9668759,22.73788 L30.951405,20.88284 C30.8633727,20.71792 30.9222675,20.51642 31.0871731,20.42466 C31.2483589,20.33662 31.4535609,20.39893 31.5415932,20.56044 L32.5570641,22.41889 C32.6450964,22.58009 32.5862016,22.78562 32.421296,22.87366 Z M34.7966177,11.89036 L35.3465094,9.19956 L37.3994593,11.02143 L34.7966177,11.89036 Z" id="Shape"></path>
                        <path d="M17.9787329,2.15295 C18.935619,1.77537 19.9470603,1.44553 21.010267,1.16684 C21.3475174,1.0788 21.6918972,0.99448 22.0403066,0.9176 C22.2455086,0.87358 22.4507106,0.82956 22.6559126,0.78554 C22.8211281,0.57288 22.9860337,0.35309 23.1434999,0.125773778 C21.4684068,0.12214 19.5952411,0.23932 18.0813339,0.3751 C15.5705542,0.22847 13.0486154,1.35005 11.5052608,3.56438 L0.288274713,19.66888 L1.0545275,20.20425 L2.64902763,21.31498 C3.12576581,19.36477 3.74881116,17.45455 4.53676204,15.6364 C6.28531866,11.58191 8.85127357,7.94871 12.4729959,5.22505 C12.7002059,5.05269 12.9311357,4.88405 13.1657851,4.71913 C14.3167141,3.91995 15.5739639,3.20509 16.9378442,2.59284 C17.2747847,2.43908 17.6231941,2.29245 17.9787329,2.15295 Z" id="Path"></path>
                    </g>
                    <path d="M236.634793,42.50286 C235.289511,39.50051 233.511817,36.9892 231.8733,34.10062 C231.462586,33.36716 231.055902,32.612 230.670916,31.81654 C229.068976,28.52093 227.793438,24.56161 227.511053,18.93077 C220.081005,18.00697 215.509836,18.17933 213.013625,18.46887 C213.145363,20.09668 213.303139,21.9883 213.486333,24.02283 C213.676966,23.60495 213.819864,23.13561 213.8676,22.61512 C213.893327,22.34759 214.127977,22.14578 214.399203,22.17151 C214.66671,22.19724 214.864782,22.43532 214.839054,22.70316 C214.725294,23.94936 214.182842,24.92462 213.63667,25.67234 C213.706414,26.42037 213.779567,27.18297 213.856751,27.95642 C214.098529,28.04446 214.344028,28.12134 214.574958,28.18365 C214.835335,28.2534 214.989391,28.52093 214.919647,28.78133 C214.861063,28.9974 214.66671,29.14403 214.450349,29.14403 C214.406332,29.14403 214.366036,29.1369 214.32202,29.12574 C214.234298,29.10373 214.109688,29.06715 213.963071,29.02313 C214.061953,30.02753 214.171993,31.04681 214.281723,32.06578 C215.975415,32.0292 216.855118,30.87817 216.990886,30.33567 L217.936613,30.57747 C217.73482,31.37293 216.605899,32.953 214.391764,33.04476 C214.567828,34.6394 214.758462,36.23032 214.959944,37.77381 C219.377056,38.01189 223.013347,37.53542 225.993426,36.68137 C225.993426,36.76197 225.993426,36.85001 225.990016,36.93433 C226.004585,36.80599 226.011714,36.73624 226.011714,36.73624 L226.576485,36.50529 L230.377681,34.95095 L230.520579,34.89236 C229.93783,36.11686 228.511955,38.60957 227.269274,40.73214 C229.354771,41.16118 233.687571,42.37452 236.634793,42.50286 Z" id="Path" fill="#FFB877" fill-rule="nonzero"></path>
                    <path d="M214.406642,77.37414 L213.2957,79.44897 L207.991755,89.38013 L199.61195,86.79535 L192.438249,84.58846 L185.154818,82.34127 L177.889366,80.10524 C176.533235,77.4473 174.513452,75.81236 172.156419,74.84826 C171.328171,74.50726 170.455598,74.24686 169.553887,74.05993 L169.550167,74.05993 C167.666152,73.66034 165.660938,73.55773 163.663164,73.60919 C161.526211,73.66406 159.510148,73.84355 157.985082,74.26515 C156.63267,74.63932 155.661216,75.20011 155.338534,76.03587 C155.144181,76.51606 155.169909,77.08429 155.456014,77.75885 C155.642927,78.20246 155.943291,78.69381 156.372293,79.23631 C158.073114,81.38089 159.315795,82.08831 160.565915,82.45504 C161.87431,82.84347 163.194175,82.85835 165.056181,83.76758 C166.515223,84.47872 167.845627,85.0981 168.919682,85.58201 C169.484143,86.07708 170.268684,86.53154 171.295004,86.90912 L180.924619,91.05537 L196.404662,97.72006 L198.677382,98.70245 L202.69122,100.42915 L208.251822,102.82297 C211.173316,103.8934 214.402923,102.88156 216.206345,100.44744 C216.411547,100.17247 216.59474,99.88293 216.759956,99.5751 L216.94315,99.2341 L226.664207,81.03276 L215.605307,75.12664 L214.406642,77.37414 Z" id="Path" fill="#FFB877" fill-rule="nonzero"></path>
                    <path d="M73.0159551,109.19316 C72.5392169,108.62152 72.1362523,108.0164 71.8061312,107.38245 C70.8861319,108.30253 70.0504452,109.36552 69.3905131,110.43967 C70.303383,111.66417 71.3774388,112.26154 72.4623437,112.47079 C73.210308,112.61742 73.9688115,112.58053 74.6873285,112.43762 C75.3289722,112.30928 75.9411685,112.09662 76.4873406,111.85854 C75.1894844,111.25714 73.9982589,110.36279 73.0159551,109.19316 Z" id="Path" fill="#FFB877" fill-rule="nonzero"></path>
                    <path d="M65.7284943,116.42701 C66.1172002,116.83404 66.1023216,117.47574 65.6956372,117.86417 C65.4975646,118.05482 65.2446268,118.14658 64.991689,118.14658 C64.7241824,118.14658 64.4566759,118.04025 64.2586033,117.83131 L60.1018679,113.47984 C60.8275143,113.25974 61.5497509,113.03623 62.2682679,112.80528 L65.7284943,116.42701 Z" id="Path" fill="#FFFAEE" fill-rule="nonzero"></path>
                    <path d="M62.107082,112.63633 L62.2682679,112.80497 C61.5497509,113.03592 60.8275143,113.25943 60.1018679,113.47953 L59.3356151,112.68035 L62.107082,112.63633 Z" id="Path" fill="#FFFAEE" fill-rule="nonzero"></path>
                    <path d="M62.107082,112.63695 L59.3359251,112.68097 L57.8731634,111.14864 C57.535913,110.79276 57.5030559,110.26142 57.7705624,109.87268 L59.5045503,109.91298 L62.107082,112.63695 Z" id="Path" fill="#FFFAEE" fill-rule="nonzero"></path>
                    <path d="M59.5042403,109.91236 L57.7705624,109.87206 C57.8071392,109.81719 57.854875,109.76201 57.9060205,109.71086 C58.3130148,109.32212 58.9546585,109.33669 59.3430545,109.74372 L59.5042403,109.91236 Z" id="Path" fill="#FFFAEE" fill-rule="nonzero"></path>
                    <path d="M59.1744293,117.11955 C59.5628252,117.52627 59.5482565,118.17169 59.1412622,118.5564 C58.9472192,118.74705 58.6942814,118.83881 58.4413436,118.83881 C58.1735271,118.83881 57.9060205,118.7362 57.7045382,118.52354 L54.4200663,115.08471 C55.153152,114.88693 55.8973967,114.68512 56.6487708,114.47618 L59.1744293,117.11955 Z" id="Path" fill="#FFFAEE" fill-rule="nonzero"></path>
                    <path d="M54.9990955,112.75072 L56.6487708,114.47742 C55.8973967,114.68636 55.153152,114.88786 54.4200663,115.08595 L52.2279386,112.79474 L54.9990955,112.75072 Z" id="Path" fill="#FFFAEE" fill-rule="nonzero"></path>
                    <path d="M54.9994055,112.7501 L52.2279386,112.79412 L51.3190983,111.84118 C50.9303924,111.43787 50.9449611,110.79276 51.3519554,110.40402 C51.5500281,110.21709 51.8029659,110.12161 52.0559037,110.12161 C52.3234102,110.12161 52.5909168,110.22794 52.7889894,110.43688 L54.9994055,112.7501 Z" id="Path" fill="#FFFAEE" fill-rule="nonzero"></path>
                    <path d="M200.367044,67.01363 L191.818924,78.2316 L172.453373,73.94616 C172.160138,73.88013 171.863184,73.83983 171.56995,73.82154 C171.518804,73.77008 171.463629,73.72606 171.405044,73.67832 C166.984212,70.22864 162.219,71.70238 157.985082,74.26484 C159.510148,73.84355 161.526211,73.66375 163.663164,73.60888 C165.660938,73.55742 167.666152,73.66003 169.550167,74.05962 L169.553887,74.05962 C170.455598,74.24655 171.328171,74.50695 172.156419,74.84795 C174.513452,75.81205 176.533235,77.44699 177.889676,80.10493 L185.154818,82.34096 C188.431851,82.36669 190.220704,81.83504 192.467697,81.83504 C196.302061,81.83504 199.601101,78.2719 201.833525,68.64888 C201.873822,68.4728 201.917838,68.29672 201.961854,68.12467 L200.367044,67.01363 Z" id="Path" fill="#D69962" fill-rule="nonzero"></path>
                    <path d="M155.338534,76.03525 C154.887833,76.37253 154.46968,76.70981 154.099572,77.04709 C154.553993,77.2892 155.005003,77.52387 155.456014,77.75823 C155.169909,77.08398 155.144181,76.51575 155.338534,76.03525 Z" id="Path" fill="#D69962" fill-rule="nonzero"></path>
                    <path d="M34.4829252,99.87921 L26.7630524,99.68484 C26.7227559,99.68484 26.6824594,99.68484 26.642163,99.68484 C26.4586591,99.68484 26.2791848,99.696 26.1031203,99.71429 C26.1617051,99.75459 26.2168803,99.79117 26.2754651,99.82806 C23.9953051,105.53206 29.6330906,109.04064 29.6330906,109.04064 C29.6330906,109.04064 29.5890745,109.08094 29.5047619,109.15782 L36.4072364,109.3339 C34.9630731,107.62177 34.0796506,105.4186 34.0393541,103.00277 C34.0210657,101.91374 34.1785319,100.86532 34.4829252,99.87921 Z" id="Path" fill="#D69962" fill-rule="nonzero"></path>
                    <g id="Group" opacity="0.72" transform="translate(0.000000, 46.810000)" fill="#000000" fill-rule="nonzero">
                        <path d="M229.25217,1.49358 C229.068976,1.52303 228.944367,1.6988 228.977224,1.8786 C229.006672,2.04352 229.145849,2.15729 229.307035,2.15729 L229.36593,2.15357 L231.451427,1.79056 C231.634931,1.76111 231.755821,1.58534 231.722963,1.40182 C231.693516,1.21861 231.521171,1.09771 231.334258,1.13057 L229.25217,1.49358 Z" id="Path" opacity="0.22"></path>
                        <path d="M231.869581,22.41858 L230.85411,20.55982 C230.766077,20.39862 230.560875,20.33631 230.39969,20.42404 C230.234784,20.5158 230.175889,20.71761 230.263921,20.88253 L231.279392,22.73726 C231.341697,22.85103 231.455457,22.91334 231.572627,22.91334 C231.627492,22.91334 231.682667,22.90249 231.733812,22.87304 C231.898718,22.785 231.957613,22.57978 231.869581,22.41858 Z" id="Path" opacity="0.22"></path>
                        <path d="M229.926671,21.06543 C229.835229,20.90423 229.633437,20.84564 229.468531,20.93337 C229.307345,21.02141 229.24876,21.22663 229.336483,21.38814 L230.348234,23.24659 C230.410539,23.35664 230.528018,23.42267 230.645188,23.42267 C230.700053,23.42267 230.755228,23.4081 230.806374,23.37865 C230.96787,23.29061 231.030174,23.08539 230.938422,22.92419 L229.926671,21.06543 Z" id="Path" opacity="0.22"></path>
                        <path d="M229.127561,1.11507 L229.186146,1.11166 L231.268233,0.74865 C231.326818,0.73749 231.374554,0.71548 231.41857,0.68262 C231.514042,0.60915 231.565187,0.48825 231.543179,0.35991 C231.510322,0.1767 231.337977,0.05208 231.154783,0.08494 L229.607709,0.35278 L229.068976,0.44795 C228.885782,0.48112 228.764583,0.65317 228.79775,0.83669 C228.823478,1.00161 228.966375,1.11507 229.127561,1.11507 Z" id="Path" opacity="0.22"></path>
                        <path d="M229.747197,11.37607 L231.41485,10.93959 C231.594635,10.89216 231.700955,10.70864 231.65322,10.52915 C231.605484,10.34935 231.42229,10.24302 231.242506,10.28704 L229.197305,10.82241 C229.109273,10.84442 229.039529,10.89929 228.995513,10.97276 C228.948087,11.04592 228.929488,11.1414 228.955216,11.23285 C228.995513,11.3832 229.131281,11.48581 229.281618,11.48581 L229.36593,11.47496 L229.747197,11.37607 Z" id="Path" opacity="0.22"></path>
                        <path d="M229.098424,10.44886 L231.143624,9.91349 C231.323408,9.86947 231.433449,9.68254 231.385713,9.50677 C231.337977,9.32325 231.154783,9.22064 230.974999,9.26466 L228.929798,9.80003 C228.750014,9.84746 228.639974,10.03098 228.68771,10.21047 C228.728006,10.36082 228.863774,10.45971 229.014111,10.45971 L229.098424,10.44886 Z" id="Path" opacity="0.22"></path>
                        <path d="M221.627769,23.70105 C221.440855,23.68276 221.27936,23.81482 221.257351,23.99803 L221.030141,26.10231 C221.008133,26.28552 221.140182,26.45416 221.327095,26.47245 L221.363672,26.47617 C221.532297,26.47617 221.678914,26.34783 221.697513,26.17578 L221.924723,24.0715 C221.946731,23.88798 221.814683,23.72306 221.627769,23.70105 Z" id="Path" opacity="0.22"></path>
                        <path d="M220.575721,23.5879 C220.388808,23.56961 220.227312,23.70167 220.205304,23.88488 L219.978094,25.98916 C219.956086,26.17268 220.088134,26.34132 220.275048,26.35961 L220.311624,26.36302 C220.48025,26.36302 220.626867,26.23499 220.645155,26.06263 L220.872675,23.95835 C220.894683,23.77514 220.762635,23.6065 220.575721,23.5879 Z" id="Path" opacity="0.22"></path>
                        <path d="M216.987166,17.18268 C216.928271,17.20469 216.873406,17.24499 216.83311,17.30017 C216.800252,17.35132 216.778244,17.41022 216.774525,17.46509 C216.763366,17.58227 216.814821,17.69976 216.917422,17.7692 L218.413041,18.81049 L218.449618,18.83622 L218.625682,18.50979 L218.76858,18.23854 L217.298689,17.21585 C217.203217,17.14982 217.086047,17.13897 216.987166,17.18268 Z" id="Path" opacity="0.22"></path>
                        <path d="M216.561883,18.27977 C216.407827,18.17344 216.198905,18.21002 216.092585,18.36409 C215.986264,18.51785 216.023151,18.72679 216.176897,18.83312 L217.672516,19.87441 L217.837421,19.98818 L218.156383,19.3905 L218.061222,19.32075 L216.561883,18.27977 Z" id="Path" opacity="0.22"></path>
                        <path d="M210.642023,10.22814 L208.600232,10.57999 C208.420448,10.61316 208.295838,10.78552 208.329006,10.96873 C208.358143,11.13365 208.497631,11.24742 208.658817,11.24742 L208.717401,11.2437 L210.755473,10.88813 C210.938977,10.85496 211.059866,10.6826 211.030419,10.49939 C210.997561,10.31618 210.825217,10.19528 210.642023,10.22814 Z" id="Path" opacity="0.22"></path>
                        <path d="M208.541337,10.22535 L210.579718,9.86978 C210.762912,9.83692 210.883801,9.66456 210.850944,9.48104 C210.821497,9.29783 210.645432,9.17693 210.462238,9.20979 L208.486472,9.55079 L208.424167,9.56195 C208.240973,9.59481 208.120084,9.76717 208.152941,9.95038 C208.152941,9.96154 208.156661,9.97239 208.16038,9.97983 C208.16038,9.98355 208.16038,9.98355 208.16038,9.98355 C208.200677,10.13018 208.332415,10.22907 208.482752,10.22907 L208.541337,10.22535 Z" id="Path" opacity="0.22"></path>
                        <path d="M206.147727,34.62514 L203.420586,35.0982 C203.37657,35.10564 203.332554,35.12393 203.299387,35.14594 C203.233672,35.18965 203.185937,35.25196 203.163929,35.32543 C203.141921,35.37689 203.138201,35.43176 203.14936,35.48663 C203.174778,35.65186 203.317985,35.76532 203.479171,35.76532 L203.537756,35.7616 L206.261487,35.28885 C206.444681,35.25568 206.56557,35.07991 206.536123,34.90011 C206.503266,34.7169 206.330921,34.59228 206.147727,34.62514 Z" id="Path" opacity="0.22"></path>
                        <path d="M203.299387,34.39884 L203.955599,34.28538 L206.026837,33.92609 C206.210031,33.89292 206.330921,33.72056 206.298064,33.53735 C206.268616,33.35414 206.096271,33.23324 205.909358,33.26238 L204.556946,33.49705 L203.185937,33.73544 C203.002743,33.7683 202.881543,33.94066 202.910991,34.12387 C202.940438,34.28879 203.083336,34.40256 203.240802,34.40256 L203.299387,34.39884 Z" id="Path" opacity="0.22"></path>
                        <path d="M198.340132,59.92052 L196.510982,61.99907 C196.389783,62.13826 196.404662,62.35092 196.543839,62.47182 C196.606144,62.527 196.686737,62.55614 196.76392,62.55614 C196.859082,62.55614 196.950834,62.51584 197.016858,62.44268 L198.846007,60.36413 C198.966897,60.22463 198.952018,60.01197 198.81284,59.89107 C198.677382,59.76645 198.461021,59.78102 198.340132,59.92052 Z" id="Path" opacity="0.22"></path>
                        <path d="M197.775361,58.9744 C197.636183,58.8535 197.423542,58.86807 197.302653,59.00726 L195.473503,61.0824 C195.352614,61.22159 195.363463,61.43425 195.502641,61.55887 C195.568665,61.61374 195.645848,61.63947 195.726441,61.63947 C195.817883,61.63947 195.913355,61.60289 195.979379,61.52601 L197.804809,59.45087 C197.929418,59.31168 197.914849,59.09902 197.775361,58.9744 Z" id="Path" opacity="0.22"></path>
                        <path d="M182.665737,46.25448 L180.979485,46.02694 L180.216951,45.92433 C180.033758,45.89891 179.865132,46.02694 179.839405,46.21046 C179.813987,46.39367 179.942006,46.56231 180.129229,46.58804 L180.986924,46.70522 L182.573985,46.9216 L182.621721,46.92532 C182.786626,46.92532 182.929524,46.80411 182.951532,46.63578 C182.977259,46.44854 182.848931,46.2799 182.665737,46.25448 Z" id="Path" opacity="0.22"></path>
                        <path d="M182.497111,47.47898 L180.990644,47.27717 L180.587369,47.2223 L180.052356,47.14914 C179.865132,47.12341 179.696817,47.25175 179.674809,47.43496 C179.649081,47.61817 179.77741,47.78681 179.960604,47.81254 L180.986924,47.95173 L181.214134,47.9849 L182.409079,48.1461 L182.453095,48.14982 C182.618311,48.14982 182.764928,48.02892 182.786936,47.86028 C182.812354,47.67335 182.684025,47.50471 182.497111,47.47898 Z" id="Path" opacity="0.22"></path>
                        <path d="M109.565779,44.91621 L87.2130197,63.64176 C86.2049882,64.48496 85.0831966,65.09721 83.9065398,65.48223 L162.699148,64.23572 C154.711769,60.0749 142.336724,51.32422 133.139521,44.54235 L109.565779,44.91621 Z" id="Path" opacity="0.22"></path>
                        <path d="M34.4829252,53.06952 C34.1785319,54.05563 34.0210657,55.10405 34.0393541,56.19277 C34.0796506,58.6086 34.9630731,60.81177 36.4072364,62.5239 C38.2915611,64.76024 41.1250225,66.16051 44.2737263,66.10905 L52.2282486,65.98443 L51.3190983,65.03149 C50.9307024,64.62818 50.9452711,63.98307 51.3522654,63.59433 C51.5500281,63.4074 51.8029659,63.31223 52.0559037,63.31223 C52.3234102,63.31223 52.5912267,63.41825 52.7889894,63.6275 L54.9994055,65.94041 L59.3359251,65.87097 L57.8731634,64.33864 C57.535913,63.98307 57.5030559,63.45142 57.7705624,63.06268 C57.8071392,63.00781 57.854875,62.95294 57.9063305,62.90148 C58.3130148,62.51305 58.9546585,62.52762 59.3430545,62.93434 L59.5045503,63.10298 L62.107082,65.82695 L62.8181596,65.81579 C65.0543035,65.08636 67.2278328,64.29462 69.2293273,63.41484 C69.2807827,63.488 69.3319283,63.56147 69.3905131,63.63091 C70.0504452,62.55676 70.8861319,61.49377 71.8064412,60.57369 C69.6583296,56.46774 70.5708896,51.28423 74.2694851,48.1864 L77.565116,45.42585 L43.9547643,45.9575 C39.4790669,46.03066 35.7293258,49.01131 34.4829252,53.06952 Z" id="Path" opacity="0.22"></path>
                        <path d="M26.2754651,53.01775 C26.2168803,52.98117 26.1617051,52.94459 26.1031203,52.90429 C24.7910054,52.04993 23.4565724,51.08583 22.1150101,50.05198 L20.6816958,55.18093 C20.5387984,55.70142 20.0657798,56.04242 19.5527748,56.04242 C19.4464542,56.04242 19.3401335,56.02754 19.2338128,55.9984 C18.6107675,55.82232 18.2440696,55.17349 18.4201342,54.55039 L20.1172353,48.47935 C19.0797563,47.63615 18.0425873,46.77125 17.019677,45.89488 L16.1291252,49.08075 C15.9859177,49.60124 15.5132092,49.93852 14.9998927,49.93852 C14.8935735,49.93852 14.7872529,49.92736 14.6809322,49.89822 C14.0578869,49.72214 13.691499,49.07331 13.8672536,48.44649 L15.0550694,44.19391 C8.10857872,38.10861 2.10068573,32.29425 0.300673625,33.36468 C-2.4373162,34.99962 14.3033853,61.84903 18.6764817,67.67796 C22.7417751,68.42599 28.5776332,63.20931 29.5047619,62.34782 C29.5890745,62.27063 29.6330906,62.23033 29.6330906,62.23033 C29.6330906,62.23033 23.9953051,58.72206 26.2754651,53.01775 Z" id="Path" opacity="0.22"></path>
                    </g>
                    <path d="M22.7417751,90.2596 C23.3685401,90.43568 23.7315183,91.08079 23.5557637,91.70761 L22.1150101,96.86198 C21.4479486,96.35234 20.7808871,95.82813 20.1172353,95.28935 L21.2938921,91.07335 C21.4699567,90.45025 22.1187298,90.08724 22.7417751,90.2596 Z" id="Path" fill="#FFF3D6" fill-rule="nonzero"></path>
                    <path d="M22.1150101,96.86136 L20.6816958,101.99031 C20.5387984,102.5108 20.0657798,102.8518 19.5527748,102.8518 C19.4464542,102.8518 19.3401335,102.83692 19.2338128,102.80778 C18.6107675,102.6317 18.2440696,101.98287 18.4201342,101.35977 L20.1172353,95.28873 C20.7805771,95.82782 21.4479486,96.35203 22.1150101,96.86136 Z" id="Path" fill="#FFF3D6" fill-rule="nonzero"></path>
                    <path d="M18.1892045,84.15911 C18.8122498,84.33147 19.1789476,84.9803 19.0028831,85.60712 L17.019987,92.70426 C16.3600549,92.13634 15.7038425,91.56811 15.0550694,91.00329 L16.7413215,84.97286 C16.917076,84.34976 17.5661591,83.98675 18.1892045,84.15911 Z" id="Path" fill="#FFF3D6" fill-rule="nonzero"></path>
                    <path d="M17.019677,92.7055 L16.1291252,95.89106 C15.9859177,96.41155 15.5132092,96.74883 14.9998942,96.74883 C14.8935735,96.74883 14.7872529,96.73798 14.6812422,96.70853 C14.0578869,96.53276 13.691499,95.88362 13.8672536,95.2568 L15.0550694,91.00422 C15.7038425,91.56904 16.3600549,92.13727 17.019677,92.7055 Z" id="Path" fill="#FFF3D6" fill-rule="nonzero"></path>
                </g>
            </g>
        </g>
    </g>
</svg>