<?xml version="1.0" encoding="UTF-8"?>
<svg width="32px" height="24px" viewBox="0 0 32 24" version="1.1" xmlns="http://www.w3.org/2000/svg" xmlns:xlink="http://www.w3.org/1999/xlink">
    <!-- Generator: Sketch 57.1 (83088) - https://sketch.com -->
    <title>folder-color-filled</title>
    <desc>Created with Sketch.</desc>
    <g id="-symbols" stroke="none" stroke-width="1" fill="none" fill-rule="evenodd">
        <g id="Bottom-Nav-/-Default" transform="translate(-53.000000, -21.000000)">
            <g id="Group-25">
                <g id="folder-color-filled" transform="translate(51.000000, 15.000000)">
                    <rect id="Rectangle" x="0" y="0" width="36" height="36"></rect>
                    <path d="M6.28647,11.25 C6.28647,10.007355 7.293825,9 8.53647,9 L19.7865,9 L21.9078,6.878685 C22.47045,6.316065 23.2335,6 24.0291,6 L31.0365,6 C32.2791,6 33.2865,7.007355 33.2865,8.25 L33.2865,27.75 C33.2865,28.9926 32.2791,30 31.0365,30 L8.53647,30 C7.293825,30 6.28647,28.9926 6.28647,27.75 L6.28647,11.25 Z" id="Path" fill="#533C59" opacity="0.7"></path>
                    <path d="M2.303205,15.39465 C2.042955,14.44047 2.76129,13.5 3.750345,13.5 L27.6408,13.5 C28.31715,13.5 28.90995,13.95273 29.08785,14.60532 L32.76975,28.10535 C33.03,29.0595 32.31165,30 31.32255,30 L7.432155,30 C6.75573,30 6.16299,29.5473 5.985015,28.89465 L2.303205,15.39465 Z" id="Path" fill="#FFE5E1"></path>
                    <path d="M2.303205,15.39465 C2.042955,14.44047 2.76129,13.5 3.750345,13.5 L27.6408,13.5 C28.31715,13.5 28.90995,13.95273 29.08785,14.60532 L32.76975,28.10535 C33.03,29.0595 32.31165,30 31.32255,30 L7.432155,30 C6.75573,30 6.16299,29.5473 5.985015,28.89465 L2.303205,15.39465 Z" id="Path" fill="#533C59"></path>
                </g>
            </g>
        </g>
    </g>
</svg>