<?xml version="1.0" encoding="UTF-8"?>
<svg width="45px" height="48px" viewBox="0 0 45 48" version="1.1" xmlns="http://www.w3.org/2000/svg" xmlns:xlink="http://www.w3.org/1999/xlink">
    <!-- Generator: Sketch 57.1 (83088) - https://sketch.com -->
    <title>Icon/ Moon / Yellow</title>
    <desc>Created with Sketch.</desc>
    <g id="Icon/-Moon-/-Yellow" stroke="none" stroke-width="1" fill="none" fill-rule="evenodd">
        <g id="moon-zzz-nature" transform="translate(0.000000, 1.000000)" fill="#A39386">
            <path d="M28.7058583,3.06666667 L26.5196083,3.06666667 C25.7908583,3.06666667 25.2166917,2.47041667 25.2166917,1.74166667 C25.2166917,1.01291667 25.8129417,0.416666667 26.5416917,0.416666667 L31.9079417,0.416666667 C32.4379417,0.416666667 32.923775,0.747916667 33.122525,1.23375 C33.321275,1.71958333 33.2108583,2.29375 32.8354417,2.66916667 L29.7216917,5.78291667 L31.9079417,5.78291667 C32.6366917,5.78291667 33.2329417,6.37916667 33.2329417,7.10791667 C33.2329417,7.83666667 32.6366917,8.43291667 31.9079417,8.43291667 L26.5196083,8.43291667 C25.9896083,8.43291667 25.503775,8.10166667 25.305025,7.61583333 C25.106275,7.13 25.2166917,6.55583333 25.5921083,6.18041667 L28.7058583,3.06666667 Z M40.4760542,20.3139708 L42.6623042,20.3139708 C43.3910542,20.3139708 44.0093875,20.9102208 44.0093875,21.6389708 C44.0093875,22.3677208 43.4131375,22.9639708 42.6843875,22.9639708 L37.2960542,22.9639708 C36.7660542,22.9639708 36.2802208,22.6327208 36.0814708,22.1468875 C35.8827208,21.6610542 35.9931375,21.0868875 36.3685542,20.7114708 L39.4823042,17.5976767 L37.2960542,17.5976767 C36.5673042,17.5976767 35.9710542,17.0014267 35.9710542,16.2726767 C35.9710542,15.5439267 36.5673042,14.9476767 37.2960542,14.9476767 L42.6623042,14.9476767 C43.1923042,14.9476767 43.6781375,15.2789267 43.8768875,15.76476 C44.0756375,16.2505933 43.9652208,16.82476 43.5898042,17.2001767 L40.4760542,20.3139708 Z M20.3583583,17.7518625 L24.377525,17.7518625 L19.6296083,22.4997792 C19.2541917,22.8751958 19.143775,23.4493625 19.342525,23.9351958 C19.541275,24.4210292 20.0271083,24.7522792 20.5571083,24.7522792 L27.557525,24.7522792 C28.286275,24.7522792 28.882525,24.1560292 28.882525,23.4272792 C28.882525,22.6985292 28.286275,22.1022792 27.557525,22.1022792 L23.7371083,22.1022792 L28.485025,17.3543625 C28.8604417,16.9789458 28.9708583,16.4047792 28.7721083,15.9189458 C28.5733583,15.4331125 28.087525,15.1018625 27.557525,15.1018625 L20.336275,15.1018625 C19.607525,15.1018625 19.011275,15.6981125 19.011275,16.4268625 C19.011275,17.1556125 19.6296083,17.7518625 20.3583583,17.7518625 Z M28.1314708,33.29875 C30.5827208,33.29875 32.9235542,32.7908333 35.1098042,31.7529167 C35.6177208,31.51 36.2139708,31.6204167 36.5893875,31.9958333 C36.9868875,32.3933333 37.0973042,32.9895833 36.8543875,33.4975 C33.7406375,40.2770833 26.8948042,44.6495833 19.4085542,44.6495833 C8.78653708,44.6495833 0.15195375,36.015 0.15195375,25.3929167 C0.15195375,17.9509217 4.54653708,11.1050883 11.3040371,7.92508833 C11.8119538,7.68217167 12.4081817,7.79258833 12.8056817,8.19008833 C13.2031817,8.58758833 13.3136204,9.18383833 13.0707038,9.691755 C12.0548704,11.878005 11.5248483,14.2409217 11.5248483,16.714255 C11.5248483,25.8566667 18.9668875,33.29875 28.1314708,33.29875 Z M2.82403708,25.3929167 C2.82403708,34.5575 10.2660983,41.9995833 19.4306375,41.9995833 C24.6864708,41.9995833 29.5668875,39.5041667 32.6585542,35.41875 C31.2010542,35.7720833 29.6773042,35.94875 28.1314708,35.94875 C17.5094538,35.94875 8.87484833,27.3141667 8.87484833,16.714255 C8.87484833,15.1684217 9.05153708,13.6446717 9.40487042,12.1650883 C5.31945375,15.2788383 2.82403708,20.1591667 2.82403708,25.3929167 Z" id="Shape"></path>
        </g>
    </g>
</svg>