<?xml version="1.0" encoding="UTF-8"?>
<svg width="34px" height="34px" viewBox="0 0 34 34" version="1.1" xmlns="http://www.w3.org/2000/svg" xmlns:xlink="http://www.w3.org/1999/xlink">
    <!-- Generator: Sketch 57.1 (83088) - https://sketch.com -->
    <title>snow-nature-color</title>
    <desc>Created with Sketch.</desc>
    <g id="Page-1" stroke="none" stroke-width="1" fill="none" fill-rule="evenodd">
        <g id="Questions-Assessment-1" transform="translate(-190.000000, -403.000000)">
            <g id="snow-nature-color" transform="translate(190.000000, 403.000000)">
                <path d="M30.4506,25.14 C32.1506,24.02 31.3704,23.22 30.2304,24.92 C30.6504,22.92 29.5104,22.92 29.9304,24.92 C28.8104,23.22 28.0104,24 29.7104,25.14 C27.7104,24.72 27.7104,25.86 29.7104,25.44 C28.0104,26.56 28.7904,27.36 29.9304,25.66 C29.5104,27.66 30.6504,27.66 30.2304,25.66 C31.3504,27.36 32.1506,26.58 30.4506,25.44 C32.4506,25.84 32.4506,24.72 30.4506,25.14 Z M4.35052,31.1796 C5.49052,29.4796 6.27056,30.2796 4.57056,31.3996 C6.57056,30.9796 6.57056,32.0996 4.57056,31.6996 C6.27056,32.8396 5.47052,33.6196 4.35052,31.9196 C4.77052,33.9196 3.63054,33.9196 4.05054,31.9196 C2.91054,33.6196 2.13056,32.8196 3.83056,31.6996 C1.83056,32.1196 1.83056,30.9796 3.83056,31.3996 C2.13056,30.2596 2.93054,29.4796 4.05054,31.1796 C3.63054,29.1796 4.77052,29.1796 4.35052,31.1796 Z M11.63062,31.3996 C13.3306,30.2796 12.55058,29.4796 11.41058,31.1796 C11.83058,29.1796 10.6906,29.1796 11.1106,31.1796 C9.9906,29.4796 9.19062,30.2596 10.89062,31.3996 C8.89062,30.9796 8.89062,32.1196 10.89062,31.6996 C9.19062,32.8196 9.9706,33.6196 11.1106,31.9196 C10.6906,33.9196 11.83058,33.9196 11.41058,31.9196 C12.53058,33.6196 13.3306,32.8396 11.63062,31.6996 C13.6306,32.0996 13.6306,30.9796 11.63062,31.3996 Z M18.4506,31.1796 C19.5906,29.4796 20.3706,30.2796 18.6706,31.3996 C20.6706,30.9796 20.6706,32.0996 18.6706,31.6996 C20.3706,32.8396 19.5706,33.6196 18.4506,31.9196 C18.8706,33.9196 17.7306,33.9196 18.1506,31.9196 C17.0106,33.6196 16.2306,32.8196 17.9306,31.6996 C15.9306,32.1196 15.9306,30.9796 17.9306,31.3996 C16.2306,30.2596 17.0306,29.4796 18.1506,31.1796 C17.7306,29.1796 18.8706,29.1796 18.4506,31.1796 Z M25.5104,31.1796 C26.6504,29.4796 27.4304,30.2796 25.7304,31.3996 C27.7304,30.9796 27.7304,32.0996 25.7304,31.6996 C27.4304,32.8396 26.6304,33.6196 25.5104,31.9196 C25.9304,33.9196 24.7904,33.9196 25.2104,31.9196 C24.0704,33.6196 23.2904,32.8196 24.9904,31.6996 C22.9904,32.1196 22.9904,30.9796 24.9904,31.3996 C23.2904,30.2596 24.0904,29.4796 25.2104,31.1796 C24.7904,29.1796 25.9304,29.1796 25.5104,31.1796 Z M23.4104,25.14 C25.4104,24.72 25.4104,25.86 23.4104,25.44 C25.1104,26.56 24.3104,27.34 23.1904,25.66 C23.6104,27.66 22.4704,27.66 22.8904,25.66 C21.7504,27.36 20.9704,26.56 22.6704,25.44 C20.6704,25.86 20.6704,24.72 22.6704,25.14 C20.9704,24 21.7704,23.22 22.8904,24.92 C22.4704,22.92 23.6104,22.92 23.1904,24.92 C24.3304,23.22 25.1104,24.02 23.4104,25.14 Z M16.3506,25.44 C18.3506,25.86 18.3506,24.72 16.3506,25.14 C18.0506,24.02 17.2706,23.22 16.1306,24.92 C16.5506,22.92 15.4106,22.92 15.8306,24.92 C14.7106,23.22 13.9106,24 15.6106,25.14 C13.6106,24.72 13.6106,25.86 15.6106,25.44 C13.9106,26.56 14.6906,27.36 15.8306,25.66 C15.4106,27.66 16.5506,27.66 16.1306,25.66 C17.2506,27.34 18.0506,26.56 16.3506,25.44 Z M9.29052,25.14 C11.29052,24.72 11.29052,25.86 9.29052,25.44 C11.01052,26.56 10.21056,27.34 9.07056,25.66 C9.49056,27.66 8.35056,27.66 8.77056,25.66 C7.63056,27.36 6.85054,26.56 8.55054,25.44 C6.55054,25.86 6.55054,24.72 8.55054,25.14 C6.85054,24 7.65056,23.22 8.77056,24.92 C8.35056,22.92 9.49056,22.92 9.07056,24.92 C10.21056,23.22 10.99052,24.02 9.29052,25.14 Z" id="Shape" fill="#FF5E5E"></path>
                <path d="M26.0904,21.08 L6.9505,21.08 C3.5105,21.08 0.71044,18.28 0.71044,14.84 C0.71044,11.4 3.5105,8.62 6.9505,8.62 C7.3905,8.62 7.8305,8.66 8.2705,8.76 C8.8905,3.82 13.1104,0 18.2104,0 C22.1504,0 25.7306,2.34 27.3306,5.9 C30.9106,6.5 33.6104,9.6 33.6104,13.28 C33.5904,17.52 30.1504,21.08 26.0904,21.08 Z M6.9505,11.02 C4.8305,11.02 3.11048,12.74 3.11048,14.84 C3.11048,16.96 4.8305,18.68 6.9505,18.68 L26.0904,18.68 C28.8104,18.68 31.1904,16.16 31.1904,13.28 C31.1904,10.6 29.0904,8.38 26.4104,8.22 C25.9304,8.2 25.5104,7.88 25.3504,7.44 C24.2504,4.44 21.3904,2.42 18.1904,2.42 C13.9904,2.42 10.5705,5.84 10.5705,10.04 L10.59046,10.28 C10.63046,10.72 10.41046,11.22 10.03046,11.44 C9.65046,11.68 9.19048,11.76 8.81048,11.54 C8.21048,11.2 7.5905,11.02 6.9505,11.02 Z" id="Shape" fill="#529393"></path>
                <path d="M9.29052,25.14 C11.29052,24.72 11.29052,25.86 9.29052,25.44 C11.01052,26.56 10.21056,27.34 9.07056,25.66 C9.49056,27.66 8.35056,27.66 8.77056,25.66 C7.63056,27.36 6.85054,26.56 8.55054,25.44 C6.55054,25.86 6.55054,24.72 8.55054,25.14 C6.85054,24 7.65056,23.22 8.77056,24.92 C8.35056,22.92 9.49056,22.92 9.07056,24.92 C10.21056,23.22 10.99052,24.02 9.29052,25.14 Z M23.4104,25.44 C25.4104,25.86 25.4104,24.72 23.4104,25.14 C25.1104,24.02 24.3304,23.22 23.1904,24.92 C23.6104,22.92 22.4704,22.92 22.8904,24.92 C21.7704,23.22 20.9704,24 22.6704,25.14 C20.6704,24.72 20.6704,25.86 22.6704,25.44 C20.9704,26.56 21.7504,27.36 22.8904,25.66 C22.4704,27.66 23.6104,27.66 23.1904,25.66 C24.3104,27.34 25.1104,26.56 23.4104,25.44 Z M18.6706,31.3996 C20.3706,30.2796 19.5906,29.4796 18.4506,31.1796 C18.8706,29.1796 17.7306,29.1796 18.1506,31.1796 C17.0306,29.4796 16.2306,30.2596 17.9306,31.3996 C15.9306,30.9796 15.9306,32.1196 17.9306,31.6996 C16.2306,32.8196 17.0106,33.6196 18.1506,31.9196 C17.7306,33.9196 18.8706,33.9196 18.4506,31.9196 C19.5706,33.6196 20.3706,32.8396 18.6706,31.6996 C20.6706,32.0996 20.6706,30.9796 18.6706,31.3996 Z" id="Shape" fill-opacity="0.3" fill="#000000"></path>
            </g>
        </g>
    </g>
</svg>