<?xml version="1.0" encoding="UTF-8"?>
<svg width="45px" height="48px" viewBox="0 0 45 48" version="1.1" xmlns="http://www.w3.org/2000/svg" xmlns:xlink="http://www.w3.org/1999/xlink">
    <!-- Generator: Sketch 57.1 (83088) - https://sketch.com -->
    <title>Icon/ Social / white</title>
    <desc>Created with Sketch.</desc>
    <g id="Icon/-Social-/-white" stroke="none" stroke-width="1" fill="none" fill-rule="evenodd">
        <g id="fast-food-food" transform="translate(2.000000, 0.000000)" fill="#FFFFFF">
            <path d="M38.75712,11.443176 C39.64512,11.443176 40.53312,11.851128 41.13312,12.54708 C41.75712,13.29108 42.04512,14.275152 41.90112,15.259104 L37.12512,47.8512 L26.44512,47.8512 C26.63712,47.4192 26.73312,46.9152 26.73312,46.4112 C26.73312,45.9072 26.63712,45.4032 26.44512,44.9712 L34.62912,44.9712 L35.75712,37.2672 L26.42112,37.2672 L26.42112,35.8272 C26.42112,35.3472 26.39712,34.8672 26.32512,34.3872 L36.18912,34.3872 L37.41312,25.9152 L21.26112,25.9152 L21.33312,26.4432 C21.14544,26.29296 20.92848,26.1576 20.71632,26.02536 C20.65728,25.9884 20.59872,25.95168 20.54112,25.9152 C20.03712,25.57896 19.50912,25.29096 18.95712,25.0512 L18.95712,25.0272 C18.69312,24.9072 18.45312,24.8112 18.18912,24.7152 L16.797072,15.23508 C16.653072,14.275152 16.91712,13.29108 17.56512,12.54708 C18.16512,11.851128 19.02912,11.443176 19.94112,11.443176 L27.73032,11.443176 L29.3016,2.775696 C29.4516,1.876872 29.96952,1.055376 30.72432,0.545616 C31.446,0.056952 32.30616,-0.114144 33.15936,0.075696 L40.00776,1.590936 C40.78368,1.763208 41.27352,2.531952 41.1024,3.307728 C40.92888,4.087032 40.16496,4.575696 39.38448,4.403424 L32.53584,2.888208 C32.23584,2.99952 32.16336,3.121392 32.13984,3.266712 L30.6588,11.443176 L38.75712,11.443176 Z M19.62912,14.827104 L20.82912,23.03496 L37.84512,23.03496 L39.04512,14.827104 C39.09312,14.6112 38.99712,14.4672 38.94912,14.419152 L19.94112,14.323056 C19.70112,14.4672 19.60512,14.6112 19.62912,14.827104 Z M12.942192,25.9836 C19.39464,25.9836 24.64464,30.40152 24.64464,35.8308 L24.64464,37.27104 L1.237488,37.27104 L1.237488,35.8308 C1.237488,30.40152 6.487488,25.9836 12.942192,25.9836 Z M12.942192,28.86408 C8.7,28.86408 5.149224,31.23816 4.30548,34.39056 L21.57648,34.39056 C20.73288,31.23816 17.18208,28.86408 12.942192,28.86408 Z M2.36952,44.96328 C1.575,44.96328 0.93048,45.60768 0.93048,46.40352 C0.93048,47.19912 1.575,47.84376 2.36952,47.84376 L23.51496,47.84376 C24.30936,47.84376 24.954,47.19912 24.954,46.40352 C24.954,45.60768 24.30936,44.96328 23.51496,44.96328 L2.36952,44.96328 Z M0,41.06904 C0,40.27344 0.64452,39.6288 1.439064,39.6288 L24.4452,39.6288 C25.23984,39.6288 25.88448,40.27344 25.88448,41.06904 C25.88448,41.86464 25.23984,42.50928 24.4452,42.50928 L1.439064,42.50928 C0.64452,42.50928 0,41.86464 0,41.06904 Z" id="Shape"></path>
        </g>
    </g>
</svg>