<?xml version="1.0" encoding="UTF-8"?>
<svg width="45px" height="48px" viewBox="0 0 45 48" version="1.1" xmlns="http://www.w3.org/2000/svg" xmlns:xlink="http://www.w3.org/1999/xlink">
    <!-- Generator: Sketch 57.1 (83088) - https://sketch.com -->
    <title>Icon/ Sparkle / white</title>
    <desc>Created with Sketch.</desc>
    <g id="Icon/-Sparkle-/-white" stroke="none" stroke-width="1" fill="none" fill-rule="evenodd">
        <g id="sparkles-nature" transform="translate(-1.000000, 0.000000)" fill="#FFFFFF">
            <path d="M15.9960831,13.956512 C15.1610781,10.115489 14.8509573,9.78148703 10.986077,8.94648204 C10.3419303,8.80333832 9.8647846,8.23076347 9.8647846,7.5389022 C9.8647846,6.84704092 10.318073,6.27446607 10.986077,6.13132236 C14.8271,5.29631737 15.1610781,4.98617265 15.9960831,1.12129242 C16.1392268,0.477145709 16.7118017,0 17.4036629,0 C18.0955242,0 18.6681229,0.477145709 18.8112666,1.12129242 C19.6462001,4.96231537 19.9563448,5.29631737 23.821225,6.13132236 C24.4653717,6.27446607 24.9425174,6.84704092 24.9425174,7.5389022 C24.9425174,8.23076347 24.489229,8.80333832 23.821225,8.94648204 C19.980202,9.78148703 19.6462001,10.0916317 18.8112666,13.956512 C18.6681229,14.6006587 18.0955242,15.0778044 17.4036629,15.0778044 C16.7118017,15.0778044 16.1392268,14.624516 15.9960831,13.956512 Z M19.1452686,7.56275948 C18.4056928,7.10947106 17.8569514,6.56075349 17.4036629,5.82117764 C16.9742318,6.56075349 16.4255142,7.10947106 15.6620811,7.56275948 C16.4016569,8.0160479 16.9503745,8.56476547 17.4036629,9.30434132 C17.8569514,8.56476547 18.4056928,8.0160479 19.1452686,7.56275948 Z M46.6290284,22.6644212 C39.4479855,21.1136976 38.565266,20.2071208 36.9906851,13.0499351 C36.8475414,12.3819311 36.2749666,11.9286427 35.5831053,11.9286427 C34.891244,11.9286427 34.3186692,12.4057884 34.1755254,13.0499351 C32.6248019,20.2071208 31.7182251,21.1136976 24.5610394,22.6644212 C23.8930354,22.8075649 23.439747,23.3801397 23.439747,24.072001 C23.439747,24.7638623 23.9168927,25.3364371 24.5610394,25.4795808 C31.7420823,27.0303044 32.6248019,27.9368812 34.1755254,35.0940669 C34.3186692,35.7620709 34.891244,36.2153593 35.5831053,36.2153593 C36.2749666,36.2153593 36.8475414,35.7382136 36.9906851,35.0940669 C38.5414087,27.913024 39.4479855,27.0303044 46.6051712,25.4795808 C47.2731752,25.3364371 47.7264636,24.7638623 47.7264636,24.072001 C47.7264636,23.3801397 47.2970324,22.8075649 46.6290284,22.6644212 Z M35.6069626,29.5114621 C34.4856702,26.6963024 32.9826612,25.1694361 30.1675015,24.072001 C32.9826612,22.9507086 34.5095274,21.4476996 35.6069626,18.6325399 C36.728255,21.4476996 38.231264,22.9745659 41.0464237,24.072001 C38.231264,25.1694361 36.7043977,26.6963024 35.6069626,29.5114621 Z M24.7516591,33.4717715 C17.0935182,31.8017615 16.0199404,30.7281836 14.3499304,23.069995 C14.2067867,22.401991 13.6342357,21.9487026 12.9423744,21.9487026 C12.2505131,21.9487026 11.6779383,22.4258483 11.5347946,23.069995 C9.8647846,30.7281836 8.79120675,31.8017615 1.13301813,33.4717715 C0.465014137,33.6149152 0.0117257143,34.18749 0.0117257143,34.8793513 C0.0117257143,35.5712126 0.488871423,36.1437874 1.13301813,36.2869311 C8.79120675,37.9569411 9.8647846,39.030519 11.5347946,46.6887076 C11.6779383,47.3567116 12.2505131,47.81 12.9423744,47.81 C13.6342357,47.81 14.2067867,47.3328543 14.3499304,46.6887076 C16.0199404,39.030519 17.0935182,37.9569411 24.7516591,36.2869311 C25.4196631,36.1437874 25.8729515,35.5712126 25.8729515,34.8793513 C25.8729515,34.18749 25.4196631,33.6149152 24.7516591,33.4717715 Z M12.9662317,41.0106737 C11.7495101,37.7899401 10.0556429,36.0960729 6.83490935,34.8793513 C10.0556429,33.6626297 11.7495101,31.9687625 12.9662317,28.7480289 C14.1829771,31.9687625 15.8768205,33.6626297 19.0975541,34.8793513 C15.8529632,36.0960729 14.1829771,37.7899401 12.9662317,41.0106737 Z" id="Shape"></path>
        </g>
    </g>
</svg>