<?xml version="1.0" encoding="UTF-8"?>
<svg width="40px" height="28px" viewBox="0 0 40 28" version="1.1" xmlns="http://www.w3.org/2000/svg" xmlns:xlink="http://www.w3.org/1999/xlink">
    <!-- Generator: Sketch 57.1 (83088) - https://sketch.com -->
    <title>cloud-nature-color</title>
    <desc>Created with Sketch.</desc>
    <g id="Page-1" stroke="none" stroke-width="1" fill="none" fill-rule="evenodd">
        <g id="Questions-Assessment-1" transform="translate(-244.000000, -400.000000)">
            <g id="cloud-nature-color" transform="translate(244.000000, 400.000000)">
                <path d="M15.38,0 C10.92,0 7.22004,3.32 6.60004,7.6 C6.26004,7.54 5.92002,7.5 5.58002,7.5 C2.50002,7.5 0,10.02 0,13.08 C0,15.58 1.64002,17.7 3.90002,18.42 C4.16002,17.62 4.54,16.88 5.06,16.24 C3.54,15.98 2.40002,14.66 2.40002,13.08 C2.40002,11.34 3.82002,9.9 5.58002,9.9 C6.10002,9.9 6.64002,10.06 7.14002,10.34 C7.52002,10.56 7.98004,10.54 8.36004,10.32 C8.72004,10.08 8.94004,9.66 8.92004,9.24 C8.92004,9.22 8.90002,8.88 8.90002,8.88 C8.90002,5.3 11.8,2.4 15.38,2.4 C17.2,2.4 18.88,3.16 20.06,4.42 C20.94,4.16 21.86,4.04 22.82,4.02 C21.18,1.56 18.4,0 15.38,0 Z" id="Path" fill="#FF5E5E"></path>
                <path d="M33.0402,10.58 C31.28,6.62002 27.32,4.02002 22.96,4.02002 L22.82,4.02002 C21.86,4.04002 20.94,4.16002 20.06,4.42002 C15.76,5.58002 12.50006,9.30002 12.00006,13.82 C11.48006,13.7 10.94008,13.64 10.40008,13.64 C8.24008,13.64 6.30006,14.66 5.06006,16.24 C4.54006,16.88 4.16008,17.62 3.90008,18.42 L3.90008,18.44 C3.70008,19.06 3.6001,19.74 3.6001,20.44 C3.6001,24.2 6.66008,27.26 10.40008,27.26 L31.76,27.26 C36.22,27.26 40,23.32 40,18.68 C40,14.62 37,11.2 33.0402,10.58 Z M31.76,24.86 L10.40008,24.86 C7.98008,24.86 6.00006,22.88 6.00006,20.44 C6.00006,19.8 6.14006,19.2 6.38006,18.68 C6.86006,17.56 7.8201,16.68 8.9801,16.28 C9.4201,16.12 9.90008,16.04 10.40008,16.04 C10.88008,16.04 11.34004,16.12 11.80004,16.28 C12.06004,16.36 12.32006,16.48 12.56006,16.62 C12.94006,16.84 13.4201,16.74 13.7801,16.5 C13.8801,16.44 13.9601,16.38 14.0401,16.28 C14.2601,16.02 14.38008,15.66 14.34008,15.32 L14.32006,15.06 C14.32006,10.8 17.4002,7.28002 21.4202,6.56002 C21.9202,6.46002 22.44,6.42002 22.96,6.42002 C24.66,6.42002 26.3,6.92002 27.68,7.82002 C29.22,8.82002 30.42,10.3 31.08,12.1 C31.24,12.56 31.64,12.86 32.12,12.9 C35.2,13.08 37.6,15.62 37.6,18.68 C37.6,21.96 34.88,24.86 31.76,24.86 Z" id="Shape" fill="#529393"></path>
                <path d="M21,2.01708 C20.3058,2.12588 18.8256,2.51114 18.4586,3.18176 C19.0552,3.50672 19.5962,3.92474 20.06,4.42002 C20.94,4.16002 21.86,4.04002 22.82,4.02002 C22.3134,3.25998 21.6978,2.58584 21,2.01708 Z M3.0366,15 L1.59998,17 C2.23216,17.6458 3.019,18.1394 3.90008,18.42 C4.16008,17.62 4.54004,16.88 5.06004,16.24 C4.2317,16.0984 3.51622,15.6418 3.0366,15 Z" id="Shape" fill-opacity="0.3" fill="#000000"></path>
            </g>
        </g>
    </g>
</svg>