<?xml version="1.0" encoding="UTF-8"?>
<svg width="45px" height="48px" viewBox="0 0 45 48" version="1.1" xmlns="http://www.w3.org/2000/svg" xmlns:xlink="http://www.w3.org/1999/xlink">
    <!-- Generator: Sketch 57.1 (83088) - https://sketch.com -->
    <title>Icon/ Tent / white</title>
    <desc>Created with Sketch.</desc>
    <g id="Icon/-Tent-/-white" stroke="none" stroke-width="1" fill="none" fill-rule="evenodd">
        <g id="camping-tent-object" transform="translate(-2.000000, 0.000000)" fill="#FFFFFF">
            <path d="M47.9403028,34.0226748 C48.2067683,34.4829333 48.2067683,35.0400884 47.9403028,35.4761228 C47.6980615,35.9121572 47.2135788,36.2028468 46.704872,36.1786227 L41.811597,36.1786227 L46.704872,45.8925004 C46.9228892,46.3285348 46.8986651,46.8614657 46.6321996,47.2975001 C46.3657341,47.7335345 45.9054756,48 45.3967688,48 L25.5814273,48 C24.7820309,48 24.1279793,47.3459484 24.1279793,46.546552 C24.1279793,45.7471556 24.7820309,45.0931039 25.5814273,45.0931039 L43.0228037,45.0931039 L34.8592706,28.8387102 L12.7667879,28.8387102 L20.3732386,45.9651728 C20.5912558,46.4254313 20.5428075,46.9583622 20.2521179,47.3459484 C19.9856524,47.7577587 19.5253939,48 19.0409112,48 L1.98704833,48 C1.50256565,48 1.04230711,47.7577587 0.775841637,47.3459484 C0.509376166,46.9341381 0.485152032,46.4254313 0.678945102,45.9651728 L9.2058402,26.8038829 L9.23006433,26.7796588 C9.47230567,26.2951761 9.95678835,25.9560382 10.5381676,25.9560382 L23.4497035,25.9560382 C23.4739277,25.7864693 23.5223759,25.6169004 23.6192725,25.4473314 L25.2907377,22.5162112 L23.8130656,22.5162112 C23.2801346,22.5162112 22.7714278,22.2255216 22.5291865,21.741039 C22.2869451,21.2565563 22.3353934,20.6751771 22.626083,20.2391427 L27.0348753,13.8440925 C26.5261685,13.8198683 26.0901341,13.5291787 25.8478928,13.1173685 C25.6056515,12.6571099 25.5814273,12.124179 25.8478928,11.6639204 L32.0734952,0.690387813 C32.582202,-0.230129271 34.0840983,-0.230129271 34.5928051,0.690387813 L40.8184075,11.6639204 C41.0848729,12.124179 41.0848729,12.681334 40.8184075,13.1173685 C40.551942,13.5534029 40.1159076,13.8198683 39.6314249,13.8440925 L44.0644414,20.2391427 C44.3793551,20.6751771 44.4035793,21.2565563 44.1613379,21.741039 C43.9190966,22.2255216 43.4103898,22.5162112 42.8774589,22.5162112 L41.3997867,22.5162112 L47.9403028,34.0226748 Z M9.08471953,45.1173281 L9.08471953,34.240692 L4.23989277,45.1173281 L9.08471953,45.1173281 Z M11.9916156,34.240692 L11.9916156,45.1173281 L16.8364423,45.1173281 L11.9916156,34.240692 Z M40.3339248,33.2959508 L40.3581489,33.2959508 L40.3581489,33.2717267 L44.2824586,33.2717267 L37.7419425,21.7652631 C37.475477,21.3050046 37.475477,20.7720736 37.7419425,20.3118151 C38.008408,19.8515565 38.4928906,19.5850911 39.0015974,19.5850911 L40.18858,19.5850911 L35.7555635,13.1900409 C35.4406498,12.7540064 35.4164256,12.1726272 35.658667,11.6881446 C35.9009083,11.2036619 36.4096151,10.9129723 36.9425461,10.9129723 L37.1363391,10.9129723 L33.4058225,4.34823202 L29.6753059,10.9129723 L29.869099,10.9129723 C30.4020299,10.9129723 30.9107368,11.2036619 31.1529781,11.6881446 C31.3952194,12.1726272 31.3709953,12.7540064 31.0560816,13.1900409 L26.6230651,19.5850911 L27.8100476,19.5850911 C28.3187544,19.5850911 28.8274612,19.8515565 29.0697026,20.3118151 C29.3119439,20.7720736 29.3361681,21.3050046 29.0697026,21.7652631 L26.6715133,25.9318141 L35.7313394,25.9318141 C35.7676756,25.9318141 35.7979557,25.9439262 35.8282359,25.9560382 C35.8585161,25.9681503 35.8887962,25.9802624 35.9251325,25.9802624 C35.958804,25.9887408 35.9956247,25.9943124 36.0331721,25.9998839 C36.1034221,26.0105425 36.1768212,26.0214434 36.2400462,26.0529348 C36.3369427,26.0771589 36.4096151,26.1256072 36.4822875,26.1740554 C36.5220151,26.2040934 36.5576246,26.2256529 36.5910539,26.2460011 C36.6387754,26.2748278 36.6816521,26.3009899 36.7245289,26.3436244 C36.7972013,26.4162968 36.8698737,26.4889692 36.9183219,26.5858657 C36.930434,26.6222019 36.9546581,26.6464261 36.9788823,26.6706502 C37.0031064,26.6948743 37.0273305,26.7190985 37.0394426,26.7554347 L40.3339248,33.2959508 Z M2.78639629,33.5633852 C2.54415496,34.1205403 2.01122401,34.435454 1.45406894,34.435454 C1.26027586,34.435454 1.06648279,34.3870058 0.84846559,34.3143334 C0.121741576,33.9994196 -0.193172163,33.1273508 0.121741576,32.4006268 L6.39581645,18.0841637 L6.12932676,18.0841637 C5.62061995,18.0841637 5.13613727,17.7934741 4.8696718,17.3574397 C4.60320633,16.8971812 4.60320633,16.3642502 4.8696718,15.9039917 L10.5865916,5.80252789 C11.0952984,4.8820108 12.5971705,4.8820108 13.1059015,5.80252789 L18.822894,15.9039917 C19.0893595,16.3642502 19.0893595,16.8971812 18.822894,17.3574397 C18.5564285,17.8176983 18.0719458,18.0841637 17.5631421,18.0841637 L17.2482284,18.0841637 L18.7259975,21.7177838 C19.0166871,22.4687319 18.6775492,23.3165766 17.9265041,23.6314904 C17.175556,23.92218 16.3277113,23.558818 16.0127976,22.8078698 L13.735729,17.1636466 C13.5661601,16.7276122 13.6146083,16.2189054 13.8810738,15.782871 C14.1475393,15.3952849 14.5835737,15.1530435 15.0680321,15.1530435 L11.8462466,9.46037209 L8.62441254,15.1530435 C9.08467108,15.1530435 9.54495385,15.3952849 9.81141932,15.8070951 C10.0778848,16.2189054 10.1263088,16.7276122 9.93253999,17.1878708 L6.78337837,24.6004557 L2.78639629,33.5633852 Z" id="Shape"></path>
        </g>
    </g>
</svg>