<?xml version="1.0" encoding="UTF-8"?>
<svg width="34px" height="42px" viewBox="0 0 34 42" version="1.1" xmlns="http://www.w3.org/2000/svg" xmlns:xlink="http://www.w3.org/1999/xlink">
    <!-- Generator: Sketch 57.1 (83088) - https://sketch.com -->
    <title>thunder &amp; rain-nature-color</title>
    <desc>Created with Sketch.</desc>
    <g id="Page-1" stroke="none" stroke-width="1" fill="none" fill-rule="evenodd">
        <g id="Questions-Assessment-1" transform="translate(-30.000000, -399.000000)">
            <g id="thunder-&amp;-rain-nature-color" transform="translate(30.000000, 399.000000)">
                <path d="M13.58,38.8106 C13.26,38.8106 12.96006,38.6906 12.72006,38.4506 C12.26006,37.9706 12.28006,37.2106 12.76006,36.7506 L17.68,32.0106 L15.12,32.0106 C14.64,32.0106 14.2,31.7306 14.02,31.2906 C13.84,30.8506 13.92,30.3306 14.26,29.9906 L18.56,25.4906 C19.02,25.0106 19.78,24.9906 20.26,25.4506 C20.74,25.9106 20.76,26.6706 20.3,27.1506 L17.94,29.6306 L20.66,29.6306 C21.14,29.6306 21.58,29.9306 21.78,30.3906 C21.96,30.8506 21.86,31.3706 21.5,31.7106 L14.44,38.5106 C14.18,38.7106 13.88,38.8106 13.58,38.8106 Z" id="Path" fill="#FF5E5E"></path>
                <path d="M33.78,14.4902 C33.78,10.7302 31.02,7.5702 27.38,6.9702 C25.74,3.3302 22.1,0.9502 18.08,0.9502 C12.85998,0.9502 8.55998,4.8702 7.93998,9.9302 C7.47998,9.8102 7.01998,9.7502 6.55998,9.7502 C3.05998,9.7502 0.21998,12.6102 0.21998,16.1102 C0.21998,19.6102 3.05998,22.4502 6.55998,22.4502 L26.14,22.4502 C30.28,22.4502 33.78,18.8102 33.78,14.4902 Z M26.14,20.0502 L6.55998,20.0502 C4.37998,20.0502 2.61998,18.2702 2.61998,16.1102 C2.61998,13.9502 4.37998,12.1702 6.55998,12.1702 C7.21998,12.1702 7.85998,12.3502 8.47998,12.6902 C8.85998,12.9102 9.33998,12.8302 9.69998,12.5902 C10.07998,12.3502 10.27998,11.8702 10.25998,11.4302 L10.25998,11.1502 C10.25998,6.8502 13.76,3.3302 18.08,3.3302 C21.34,3.3302 24.3,5.3902 25.42,8.4702 C25.58,8.9102 26,9.2302 26.48,9.2502 C29.24,9.4302 31.4,11.7102 31.4,14.4502 C31.38,17.4502 28.94,20.0502 26.14,20.0502 Z M33.12,25.3704 C32.54,25.0504 31.8,25.2904 31.5,25.8704 L30.44,27.8902 C30.14,28.4702 30.36,29.2104 30.94,29.5102 C31.12,29.6104 31.3,29.6502 31.5,29.6502 C31.94,29.6502 32.34,29.4104 32.56,29.0102 L33.62,26.9902 C33.94,26.3904 33.72,25.6704 33.12,25.3704 Z M1.66,25.8704 C1.96,25.2904 2.7,25.0504 3.28,25.3704 C3.86,25.6704 4.1,26.3904 3.78,26.9902 L2.72,29.0102 C2.5,29.4104 2.1,29.6502 1.66,29.6502 C1.46,29.6502 1.28,29.6104 1.1,29.5102 C0.52,29.2104 0.3,28.4702 0.6,27.8902 L1.66,25.8704 Z M6.69992,36.7702 C6.11992,36.4702 5.37992,36.6902 5.07992,37.2702 L4.01992,39.2902 C3.71992,39.8702 3.93992,40.6102 4.51992,40.9102 C4.69992,41.0102 4.87992,41.0502 5.07992,41.0502 C5.51992,41.0502 5.91992,40.8102 6.13992,40.4102 L7.19992,38.3902 C7.51992,37.8102 7.29992,37.0702 6.69992,36.7702 Z M28.08,37.2702 C28.38,36.6902 29.12,36.4702 29.7,36.7702 C30.28,37.0702 30.52,37.8102 30.2,38.3902 L29.14,40.4102 C28.92,40.8102 28.52,41.0502 28.08,41.0502 C27.88,41.0502 27.7,41.0102 27.52,40.9102 C26.94,40.6102 26.72,39.8702 27.02,39.2902 L28.08,37.2702 Z" id="Shape" fill="#529393"></path>
                <path d="M1.66,25.8704 C1.96,25.2904 2.7,25.0504 3.28,25.3704 C3.86,25.6704 4.1,26.3902 3.78,26.9902 L2.72,29.0104 C2.5,29.4104 2.1,29.6502 1.66,29.6502 C1.46,29.6502 1.28,29.6104 1.1,29.5104 C0.52,29.2104 0.3,28.4702 0.6,27.8902 L1.66,25.8704 Z M31.5,25.8704 C31.8,25.2904 32.54,25.0504 33.12,25.3704 C33.72,25.6704 33.94,26.3902 33.62,26.9902 L32.56,29.0104 C32.34,29.4104 31.94,29.6502 31.5,29.6502 C31.3,29.6502 31.12,29.6104 30.94,29.5104 C30.36,29.2104 30.14,28.4702 30.44,27.8902 L31.5,25.8704 Z" id="Shape" fill-opacity="0.3" fill="#000000"></path>
            </g>
        </g>
    </g>
</svg>