<?xml version="1.0" encoding="UTF-8"?>
<svg width="24px" height="24px" viewBox="0 0 24 24" version="1.1" xmlns="http://www.w3.org/2000/svg" xmlns:xlink="http://www.w3.org/1999/xlink">
    <!-- Generator: Sketch 57.1 (83088) - https://sketch.com -->
    <title>Icon / Time</title>
    <desc>Created with Sketch.</desc>
    <g id="Icon-/-Time" stroke="none" stroke-width="1" fill="none" fill-rule="evenodd">
        <g id="Icon-/-Time-/-Outline">
            <g id="clock-office-color">
                <path d="M24,12 C24,18.6274667 18.6274667,24 12,24 C5.37258667,24 0,18.6274667 0,12 C0,5.37258667 5.37258667,0 12,0 C18.6274667,0 24,5.37258667 24,12 Z M22.4,12 C22.4,17.7437333 17.7437333,22.4 12,22.4 C6.25624,22.4 1.6,17.7437333 1.6,12 C1.6,6.25624 6.25624,1.6 12,1.6 C17.7437333,1.6 22.4,6.25624 22.4,12 Z" id="Shape" stroke="#533C59" stroke-width="0.25" fill="#533C59"></path>
                <path d="M11.2,3.46666667 C11.2,3.02484 11.5581333,2.66666667 12,2.66666667 C12.4418667,2.66666667 12.8,3.02484 12.8,3.46666667 L12.8,10.9332 C12.9010667,11.0090667 12.9909333,11.0989333 13.0668,11.2 L17.8666667,11.2 C18.3085333,11.2 18.6666667,11.5581333 18.6666667,12 C18.6666667,12.4418667 18.3085333,12.8 17.8666667,12.8 L13.0668,12.8 C12.8234667,13.1238667 12.4362667,13.3333333 12,13.3333333 C11.2636,13.3333333 10.6666667,12.7364 10.6666667,12 C10.6666667,11.5637333 10.8761333,11.1765333 11.2,10.9332 L11.2,3.46666667 Z" id="Path" stroke="#533C59" stroke-width="0.25" fill="#533C59"></path>
                <path d="M12,13.3333333 C12.7364,13.3333333 13.3333333,12.7364 13.3333333,12 C13.3333333,11.2636 12.7364,10.6666667 12,10.6666667 C11.2636,10.6666667 10.6666667,11.2636 10.6666667,12 C10.6666667,12.7364 11.2636,13.3333333 12,13.3333333 Z" id="Path"></path>
            </g>
        </g>
    </g>
</svg>